<?xml version="1.0" standalone="no"?>
<!DOCTYPE svg PUBLIC "-//W3C//DTD SVG 1.1//EN" "http://www.w3.org/Graphics/SVG/1.1/DTD/svg11.dtd" >
<svg>
<metadata>
Created by FontForge 20090914 at Wed Aug 21 13:09:38 2019
 By www-data
 
</metadata>
<defs>
<font id="Pragmatica-Bold" horiz-adv-x="351" >
  <font-face 
    font-family="Pragmatica"
    font-weight="700"
    font-stretch="normal"
    units-per-em="1000"
    panose-1="0 0 0 0 0 0 0 0 0 0"
    ascent="800"
    descent="-200"
    x-height="539"
    cap-height="742"
    bbox="-224 -207 1203 924"
    underline-thickness="50"
    underline-position="-55"
    unicode-range="U+0020-U+F002"
  />
<missing-glyph 
 />
    <glyph glyph-name=".notdef" 
 />
    <glyph glyph-name="space" unicode=" " 
 />
    <glyph glyph-name="space" unicode="&#xa0;" 
 />
    <glyph glyph-name="exclam" unicode="!" horiz-adv-x="407" 
d="M116 0v168h175v-168h-175v0zM112 742h183v-194l-46 -310h-91l-46 310v194v0z" />
    <glyph glyph-name="quotedbl" unicode="&#x22;" horiz-adv-x="526" 
d="M242 742l-56 -203h-70l-56 203h182v0zM466 742l-56 -203h-70l-56 203h182v0z" />
    <glyph glyph-name="numbersign" unicode="#" horiz-adv-x="1054" 
d="M656 -59h-119l32 164h-161l-32 -164h-119l32 164h-164l23 118h164l32 162h-164l23 118h164l31 163h119l-32 -163h162l31 163h119l-32 -163h164l-23 -118h-164l-31 -162h164l-23 -118h-164l-32 -164v0zM593 223l32 162h-164l-31 -162h163v0z" />
    <glyph glyph-name="dollar" unicode="$" horiz-adv-x="683" 
d="M35 239l158 1.00098c4.66699 -42 15.334 -72.333 32.001 -91s34.667 -30.667 54 -36c4.66699 -1.33301 9.5 -2.33301 14.5 -3s9.83301 -1 14.5 -1v206c-78 18 -139 43.5 -183 76.5s-66 84.5 -66 154.5c0 62 14.833 107.833 44.5 137.5s62.167 50.167 97.5 61.5
c18 5.33301 35.667 9 53 11s32.666 3 45.999 3h2h2h2h2v66h81v-66c68 0 118.5 -13.167 151.5 -39.5s55.833 -55.166 68.5 -86.499c6.66699 -18 11.167 -35.5 13.5 -52.5s3.5 -31.5 3.5 -43.5h-157c0 27.333 -5 47.833 -15 61.5s-21 23.167 -33 28.5
c-6.66699 3.33301 -12.834 5.5 -18.501 6.5s-10.834 1.83301 -15.501 2.5v-183c104 -24.667 172.333 -57.334 205 -98.001s49 -88.667 49 -144c0 -61.333 -14.5 -107.833 -43.5 -139.5s-60.5 -54.167 -94.5 -67.5c-22 -7.33301 -43.167 -12.333 -63.5 -15
s-37.166 -4.33398 -50.499 -5.00098v-85h-81v84c-94 2 -161.667 25 -203 69s-64.666 106.333 -69.999 187v0zM387 302.001v-192.999c27.333 0 49 10.167 65 30.5s25 42.5 27 66.5v4v4c0 22.667 -6 40.167 -18 52.5s-25 21.166 -39 26.499c-6 2.66699 -12 4.66699 -18 6
s-11.667 2.33301 -17 3v0zM308 468.002l0.000976562 168.001c-24.667 -1.33301 -43.167 -7.16602 -55.5 -17.499s-20.833 -21.833 -25.5 -34.5c-2 -6 -3.5 -11.833 -4.5 -17.5s-1.5 -10.834 -1.5 -15.501c0 -26.667 8.66699 -46.334 26 -59.001s37.666 -20.667 60.999 -24v0
z" />
    <glyph glyph-name="percent" unicode="%" horiz-adv-x="1011" 
d="M565 198c0 9.33301 0.5 19.166 1.5 29.499s2.83301 20.833 5.5 31.5c8.66699 38 27.5 72.667 56.5 104s72.833 47 131.5 47s102.5 -15.667 131.5 -47s47.833 -66 56.5 -104c2.66699 -10.667 4.5 -21.167 5.5 -31.5s1.5 -20.166 1.5 -29.499
c0 -69.333 -19 -121.833 -57 -157.5s-84 -53.5 -138 -53.5s-100 17.833 -138 53.5s-57 88.167 -57 157.5v0zM677 198c0 -38.667 6.50195 -67.667 19.502 -87s27.167 -31.666 42.5 -36.999c3.33301 -1.33301 6.83301 -2.33301 10.5 -3s7.16699 -1 10.5 -1
s6.83301 0.333008 10.5 1s7.16699 1.66699 10.5 3c15.333 4.66699 29.5 16.667 42.5 36s19.5 48.666 19.5 87.999c0 42.667 -7.83301 74 -23.5 94s-32.834 31.333 -51.501 34h-4h-4h-4h-4c-18.667 -2.66699 -35.834 -14.167 -51.501 -34.5s-23.5 -51.5 -23.5 -93.5v0z
M214.002 0l473 742h109l-473 -742h-109v0zM56.002 544c0 66 15.335 114.833 46.002 146.5s64 51.834 100 60.501c8.66699 1.33301 16.834 2.5 24.501 3.5s15.5 1.5 23.5 1.5c7.33301 0 14.666 -0.333008 21.999 -1s14.666 -1.66699 21.999 -3
c37.333 -8 71.833 -27.833 103.5 -59.5s47.5 -81.167 47.5 -148.5c0 -10 -0.5 -20.333 -1.5 -31s-2.83301 -21.334 -5.5 -32.001c-8.66699 -37.333 -27.334 -71.5 -56.001 -102.5s-72.667 -46.5 -132 -46.5c-54.667 0 -100.667 17.833 -138 53.5s-56 88.5 -56 158.5v0z
M168.004 544c0 -35.333 4.99902 -61.9961 14.999 -79.9961s20.667 -30.667 32 -38c6.66699 -4 13 -6.66699 19 -8s11.333 -2 16 -2s9.83398 0.666992 15.501 2s11.5 3.66602 17.5 6.99902c12 7.33301 23.333 20.166 34 38.499s16 45.166 16 80.499
c0 39.333 -6.5 68.666 -19.5 87.999s-27.167 31.333 -42.5 36c-3.33301 1.33301 -6.83301 2.33301 -10.5 3s-7.16699 1 -10.5 1c-4.66699 0 -10 -0.666992 -16 -2s-12.333 -4 -19 -8c-11.333 -6.66699 -22 -19 -32 -37s-15 -45 -15 -81v0z" />
    <glyph glyph-name="ampersand" unicode="&#x26;" horiz-adv-x="743" 
d="M546 342l140.997 0.00390625c-3.33301 -19.333 -10.666 -44.333 -21.999 -75s-31 -64.667 -59 -102l137 -165h-187l-54 67c-12 -13.333 -25.167 -24.833 -39.5 -34.5s-28.5 -17.5 -42.5 -23.5c-30 -12.667 -58.167 -20.167 -84.5 -22.5s-45.166 -3.5 -56.499 -3.5
c-74.667 0 -130.834 19.833 -168.501 59.5s-59.834 83.167 -66.501 130.5c-0.666992 5.33301 -1.16699 10.666 -1.5 15.999s-0.5 10.666 -0.5 15.999c0 66 14.5 113 43.5 141s63.167 52.333 102.5 73l12 6l12 6c-6.66699 7.33301 -12.667 14.5 -18 21.5s-10 14.167 -14 21.5
c-10 15.333 -17.5 31.333 -22.5 48s-7.5 35 -7.5 55c0 55.333 20 97.833 60 127.5s88.333 44.5 145 44.5c48.667 0 86 -9 112 -27s44.667 -38 56 -60c10 -20 16 -38.5 18 -55.5s3 -27.167 3 -30.5c0 -10.667 -2 -26.334 -6 -47.001s-14.667 -42.334 -32 -65.001
c-9.33301 -12 -21.166 -24 -35.499 -36s-32.166 -23.333 -53.499 -34l103 -123c9.33301 16 15.833 30.167 19.5 42.5s5.83398 21.833 6.50098 28.5v0zM426.997 161.004l-133.999 168.001c-28 -12.667 -49.333 -28 -64 -46s-22 -40.667 -22 -68
c0 -3.33301 0.166992 -6.83301 0.5 -10.5s0.833008 -7.16699 1.5 -10.5c4 -20.667 14.333 -39.334 31 -56.001s41.667 -25 75 -25c2.66699 0 5.5 0.166992 8.5 0.5s6.16699 0.5 9.5 0.5c18.667 2.66699 36.667 8.16699 54 16.5s30.666 18.5 39.999 30.5v0zM340.998 484.005
c27.333 12 48.001 25.5 62.001 40.5s21 34.5 21 58.5c0 20 -5 34.833 -15 44.5s-20.667 16.167 -32 19.5c-4 1.33301 -7.83301 2.16602 -11.5 2.49902s-7.16699 0.5 -10.5 0.5h-2.5h-2.5c-16 -1.33301 -30.5 -7.5 -43.5 -18.5s-19.5 -27.5 -19.5 -49.5
c0 -16 4.66699 -31.167 14 -45.5s19.666 -28.166 30.999 -41.499c1.33301 -2 2.83301 -3.83301 4.5 -5.5s3.16699 -3.5 4.5 -5.5v0z" />
    <glyph glyph-name="quotesingle" unicode="'" horiz-adv-x="302" 
d="M242 742l-56 -203h-70l-56 203h182v0z" />
    <glyph glyph-name="parenleft" unicode="(" horiz-adv-x="419" 
d="M241 742l122 0.0078125c-16 -35.333 -30.833 -71.5 -44.5 -108.5s-25.834 -74.167 -36.501 -111.5c-11.333 -42.667 -20.5 -84.834 -27.5 -126.501s-10.5 -82.5 -10.5 -122.5s3.5 -80.833 10.5 -122.5s16.167 -83.834 27.5 -126.501
c10.667 -36.667 22.834 -73.5 36.501 -110.5s28.5 -73.167 44.5 -108.5l-122 -1c-32.667 56 -59.834 106.5 -81.501 151.5s-38.834 89.167 -51.501 132.5c-8 29.333 -14 59.166 -18 89.499s-6 62.166 -6 95.499s2 65.166 6 95.499s10 60.166 18 89.499
c12.667 43.333 29.834 87.666 51.501 132.999s48.834 95.666 81.501 150.999v0z" />
    <glyph glyph-name="parenright" unicode=")" horiz-adv-x="419" 
d="M177 -196l-121 -0.00292969c30 72.667 57.167 147.834 81.5 225.501s36.5 158.834 36.5 243.501c0 22 -1 44.167 -3 66.5s-5 44.5 -9 66.5c-9.33301 56 -23.5 111.833 -42.5 167.5s-40.167 111.834 -63.5 168.501h121c73.333 -117.333 118 -214 134 -290
s24 -135.667 24 -179c0 -42.667 -8 -102 -24 -178s-60.667 -172.667 -134 -290v-1z" />
    <glyph glyph-name="asterisk" unicode="*" horiz-adv-x="510" 
d="M255 520l-75 -101l-63 49l72 98l-115 39l26 75l116 -39v122h79v-122l115 39l26 -75l-115 -39l73 -98l-64 -49l-75 101v0z" />
    <glyph glyph-name="plus" unicode="+" horiz-adv-x="742" 
d="M56 413h273v273h84v-273h273v-84h-273v-273h-84v273h-273v84v0z" />
    <glyph glyph-name="comma" unicode="," horiz-adv-x="399" 
d="M112 0l-0.00195312 168h175v-168c0 -56.667 -11.333 -98.167 -34 -124.5s-48 -43.833 -76 -52.5c-11.333 -4 -22.666 -6.66699 -33.999 -8s-21.666 -2 -30.999 -2v83c0.666992 0.666992 1.16699 1 1.5 1h1.5c22 1.33301 42.167 9.5 60.5 24.5s27.5 39.5 27.5 73.5v5h-91
v0z" />
    <glyph glyph-name="hyphen" unicode="-" horiz-adv-x="474" 
d="M84 217v133h306v-133h-306v0z" />
    <glyph glyph-name="period" unicode="." horiz-adv-x="399" 
d="M112 0v168h175v-168h-175v0z" />
    <glyph glyph-name="slash" unicode="/" horiz-adv-x="501" 
d="M0 -196l389 938h112l-389 -938h-112v0z" />
    <glyph glyph-name="zero" unicode="0" horiz-adv-x="685" 
d="M342 -14c-104 0.666992 -179.833 37.499 -227.5 110.499s-71.5 164.5 -71.5 274.5s23.833 201.667 71.5 275s123.5 110 227.5 110c86.667 0 150.834 -22.833 192.501 -68.5s70.167 -95.834 85.5 -150.501c9.33301 -30.667 15.333 -60.667 18 -90s4 -54.666 4 -75.999
s-1.33301 -46.666 -4 -75.999s-8.66699 -59.333 -18 -90c-15.333 -54.667 -43.833 -104.667 -85.5 -150s-105.834 -68 -192.501 -68v-1zM342 107.999c42 0 72.167 15.167 90.5 45.5s30.166 63.5 35.499 99.5c3.33301 21.333 5.33301 42 6 62s1 37 1 51v2.5v2.5v2.5v2.5
c0 14 -0.333008 31 -1 51s-2.66699 40.667 -6 62c-5.33301 36 -17.166 69.167 -35.499 99.5s-48.5 45.5 -90.5 45.5c-42.667 0 -73.167 -15.833 -91.5 -47.5s-30.166 -66.5 -35.499 -104.5c-2.66699 -20.667 -4.33398 -40.667 -5.00098 -60s-1 -36.333 -1 -51
s0.333008 -31.667 1 -51s2.33398 -39.333 5.00098 -60c5.33301 -38 17.166 -72.833 35.499 -104.5s48.833 -47.5 91.5 -47.5v0z" />
    <glyph glyph-name="one" unicode="1" horiz-adv-x="686" 
d="M129 521l0.000976562 89h23c9.33301 0 19.166 0.666992 29.499 2s20.5 3.33301 30.5 6c30 8 58.333 22.167 85 42.5s43.667 47.5 51 81.5h131v-742h-175v521h-175v0z" />
    <glyph glyph-name="two" unicode="2" horiz-adv-x="685" 
d="M628 133l-0.000976562 -132.998h-569v30c0 30 4 57.333 12 82s21.667 49 41 73c18.667 23.333 43.834 47.333 75.501 72s70.834 52 117.501 82l59 39c17.333 12 32.333 23.667 45 35c18 15.333 31.333 31.666 40 48.999s13 37.666 13 60.999
c0 39.333 -11.667 67.5 -35 84.5s-49 26.167 -77 27.5h-3.5h-2.5c-36.667 0 -66.834 -10.667 -90.501 -32s-35.5 -51.666 -35.5 -90.999v-27h-162v23c0 14 1.5 30 4.5 48s8.5 36.667 16.5 56c15.333 36 43.833 69.167 85.5 99.5s104.5 45.5 188.5 45.5
c77.333 0 143 -18.167 197 -54.5s81 -93.833 81 -172.5c0 -64 -18 -114.833 -54 -152.5s-75.333 -69.5 -118 -95.5l-15.5 -9.5l-15.5 -9.5c-36.667 -22 -65.5 -40 -86.5 -54s-37.5 -27.333 -49.5 -40c-5.33301 -6 -10 -11.833 -14 -17.5s-7.66699 -11.834 -11 -18.501h363v0
z" />
    <glyph glyph-name="three" unicode="3" horiz-adv-x="686" 
d="M40 255l164.997 -0.000976562v-0.5v-1.5v-1.5v-0.5c0 -8 0.666992 -16.667 2 -26s3.33301 -19 6 -29c7.33301 -22 20.666 -42 39.999 -60s48.666 -27 87.999 -27s70.333 10.333 93 31s34 48 34 82c0 30 -6.66699 52 -20 66s-28.333 23.667 -45 29
c-9.33301 2.66699 -18.666 4.33398 -27.999 5.00098s-17 1 -23 1h-74v122h56c6.66699 0 14.667 0.333008 24 1s19 2.33398 29 5.00098c16.667 4 32 12.5 46 25.5s21 33.833 21 62.5c0 4.66699 -0.333008 9.66699 -1 15s-2 11 -4 17c-6 15.333 -17.5 29.5 -34.5 42.5
s-43.5 19.5 -79.5 19.5c-6.66699 0 -14.5 -0.333008 -23.5 -1s-18.167 -2.66699 -27.5 -6c-17.333 -6.66699 -33.166 -19.334 -47.499 -38.001s-21.5 -49 -21.5 -91h-156v2v2v1v2c0 12.667 0.833008 26 2.5 40s4.5 28 8.5 42c12 42.667 38.333 81.5 79 116.5
s105.334 52.5 194.001 52.5c93.333 0 161 -19.667 203 -59s63 -87 63 -143c0 -50.667 -13.667 -89 -41 -115s-57.666 -42.333 -90.999 -49v-3l14.5 -2c5 -0.666992 9.83301 -1.66699 14.5 -3c32 -8 61.333 -25.833 88 -53.5s40 -68.167 40 -121.5
c0 -8.66699 -1.5 -23 -4.5 -43s-10.833 -40.667 -23.5 -62c-16 -28.667 -43.667 -54.667 -83 -78s-97.666 -35 -174.999 -35c-100 0 -171.667 19.167 -215 57.5s-71 80.833 -83 127.5c-4 14 -6.66699 28 -8 42s-2 27.333 -2 40v0z" />
    <glyph glyph-name="four" unicode="4" horiz-adv-x="686" 
d="M379 167h-344v133l350 442h162v-446h104v-129h-104v-167h-168v167v0zM167 296h219v280l-219 -280v0z" />
    <glyph glyph-name="five" unicode="5" horiz-adv-x="686" 
d="M52 215l164.997 0.000976562c2.66699 -30 14.834 -55.667 36.501 -77s50.834 -32 87.501 -32s63.667 8.83301 81 26.5s29.333 37.167 36 58.5c4 12.667 6.5 25.167 7.5 37.5s1.5 22.5 1.5 30.5c0 48 -12.5 82.833 -37.5 104.5s-52.5 32.834 -82.5 33.501h-1.5h-1.5
c-5.33301 0 -11 -0.333008 -17 -1s-12 -1.66699 -18 -3c-16 -3.33301 -31.333 -9 -46 -17s-25.667 -18.667 -33 -32h-164l47 398h474v-129h-360l-21 -161c27.333 20 55.666 33.833 84.999 41.5s60.333 11.5 93 11.5c64.667 0 122.5 -20.333 173.5 -61
s76.5 -103.334 76.5 -188.001v-5.5v-5.5c-2.66699 -64.667 -26.667 -123.834 -72 -177.501s-120.333 -80.5 -225 -80.5c-97.333 0 -167.666 22.333 -210.999 67s-67.666 93.667 -72.999 147c0 2.66699 -0.166992 5.16699 -0.5 7.5s-0.5 4.5 -0.5 6.5v0z" />
    <glyph glyph-name="six" unicode="6" horiz-adv-x="687" 
d="M629 567l-150.999 -0.00585938c-6.66699 22.667 -21.667 39.334 -45 50.001s-49.666 16 -78.999 16c-53.333 0 -90 -19.167 -110 -57.5s-31.333 -82.166 -34 -131.499c8.66699 8.66699 17.667 16.334 27 23.001s18.666 12.667 27.999 18c22 10.667 43 17.5 63 20.5
s35.333 4.5 46 4.5c79.333 0 143 -23.167 191 -69.5s72 -107.5 72 -183.5c0 -10.667 -0.5 -21.5 -1.5 -32.5s-2.5 -22.167 -4.5 -33.5c-10.667 -51.333 -36.5 -98.166 -77.5 -140.499s-106.167 -63.5 -195.5 -63.5c-92.667 0 -160.334 22.167 -203.001 66.5
s-71.334 93.5 -86.001 147.5c-8.66699 30.667 -14 60.834 -16 90.501s-3 54.834 -3 75.501c0 20 1.33301 46 4 78s9.66699 65 21 99c16.667 52.667 46.667 101 90 145s109.333 66 198 66c64 0 114 -10.833 150 -32.5s62.667 -45.5 80 -71.5
c10.667 -16 18.834 -31.5 24.501 -46.5s9.5 -27.5 11.5 -37.5v0zM210.001 254.994c0 -39.333 12.167 -73.667 36.5 -103s58.5 -44 102.5 -44c43.333 0 76.5 14 99.5 42s34.5 62 34.5 102c0 46.667 -13 82.167 -39 106.5s-58.333 36.5 -97 36.5h-6.5h-6.5
c-31.333 -2.66699 -59.833 -14.667 -85.5 -36s-38.5 -56 -38.5 -104v0z" />
    <glyph glyph-name="seven" unicode="7" horiz-adv-x="686" 
d="M36 606l-0.00195312 135.999h614v-123c-32.667 -29.333 -63.667 -62.333 -93 -99s-55.333 -74 -78 -112l-23 -42c-7.33301 -14 -14 -27.667 -20 -41l-15.5 -37c-5 -12 -9.5 -24.333 -13.5 -37c-14.667 -40.667 -25.667 -81.667 -33 -123s-11.333 -84 -12 -128h-182
c2 40 7.33301 78.333 16 115s18 69.334 28 98.001c6 18.667 12 35.167 18 49.5l15 35.5c21.333 46.667 46.833 91.5 76.5 134.5s60.167 81.833 91.5 116.5c8.66699 10 17.334 19.5 26.001 28.5s17.334 17.5 26.001 25.5v3h-441v0z" />
    <glyph glyph-name="eight" unicode="8" horiz-adv-x="686" 
d="M343 -13c-2.66699 0.666992 -5.33301 0.999023 -8 0.999023h-9c-15.333 0 -32.333 1 -51 3s-37.667 5 -57 9c-44 12 -84.333 34 -121 66s-55 80.667 -55 146c0 10 0.666992 20.167 2 30.5s3.33301 20.833 6 31.5c7.33301 23.333 20.5 45.833 39.5 67.5
s47.5 39.5 85.5 53.5c-32.667 11.333 -59 31 -79 59s-30 61.333 -30 100c0 6 0.333008 12.167 1 18.5s1.66699 12.833 3 19.5c8 40.667 32.5 78 73.5 112s107.5 51 199.5 51c12 0 24.5 -0.5 37.5 -1.5s25.833 -2.5 38.5 -4.5c50 -8 96 -26.667 138 -56
s63 -75.666 63 -138.999c0 -38.667 -9.83301 -72 -29.5 -100s-46.167 -47.667 -79.5 -59c38 -14 66.5 -31.833 85.5 -53.5s32.167 -44.167 39.5 -67.5c2.66699 -10.667 4.66699 -21.167 6 -31.5s2 -20.5 2 -30.5c0 -66 -18.5 -115 -55.5 -147s-77.5 -53.667 -121.5 -65
c-19.333 -4 -38.333 -7 -57 -9s-35.667 -3 -51 -3h-4h-4h-4h-4v-1zM343.001 108.999h3.49414h2.5c4.66699 0 9.33398 0.166992 14.001 0.5s9.33398 0.833008 14.001 1.5c26 4 50 14.833 72 32.5s33 45.167 33 82.5c0 4.66699 -0.666992 12.334 -2 23.001
s-5 22.334 -11 35.001c-8 15.333 -21.667 29.333 -41 42s-47.666 19 -84.999 19s-65.666 -6.33301 -84.999 -19s-33 -26.667 -41 -42c-6 -12.667 -9.66699 -24.334 -11 -35.001s-2 -18.334 -2 -23.001c0 -37.333 11 -64.833 33 -82.5s46 -28.5 72 -32.5
c4.66699 -0.666992 9.33398 -1.16699 14.001 -1.5s9.33398 -0.5 14.001 -0.5h3.5h2.5v0zM342.995 442.999c5.33301 0 10.8311 0.166992 16.498 0.5s11.5 0.833008 17.5 1.5c22.667 4 43.334 13.5 62.001 28.5s28 38.5 28 70.5c0 30 -11.667 53.167 -35 69.5
s-53 24.5 -89 24.5c-36.667 0 -66.334 -8.16699 -89.001 -24.5s-34 -39.5 -34 -69.5c0 -29.333 7.33301 -51 22 -65s30.667 -23.667 48 -29c8.66699 -2.66699 17.334 -4.5 26.001 -5.5s16.334 -1.5 23.001 -1.5h0.5h1.5h1.5h0.5v0z" />
    <glyph glyph-name="nine" unicode="9" horiz-adv-x="687" 
d="M65 174l150.999 0.00195312c7.33301 -23.333 21.666 -40.166 42.999 -50.499s46.333 -15.5 75 -15.5c8 0 17.5 0.833008 28.5 2.5s22.167 5.83398 33.5 12.501c19.333 10 37 28 53 54s25.333 66 28 120c-10 -10 -20.167 -18.667 -30.5 -26s-20.5 -13.333 -30.5 -18
c-18 -9.33301 -35.833 -15.5 -53.5 -18.5s-34.167 -4.5 -49.5 -4.5h-9.5c-3 0 -6.16699 0.333008 -9.5 1c-60.667 3.33301 -116.5 25.166 -167.5 65.499s-76.5 102.5 -76.5 186.5c0 10.667 0.5 21.667 1.5 33s2.83301 22.666 5.5 33.999
c10.667 51.333 37.167 98.333 79.5 141s108.833 64 199.5 64c89.333 0 154.833 -21.333 196.5 -64s69.834 -89.667 84.501 -141c8.66699 -30.667 14.167 -60.334 16.5 -89.001s3.5 -53 3.5 -73c0 -110.667 -17 -193.834 -51 -249.501s-71.333 -94.5 -112 -116.5
c-30 -16 -58.833 -25.833 -86.5 -29.5s-48.167 -5.5 -61.5 -5.5c-62.667 0 -111.667 10.667 -147 32s-61.666 45 -78.999 71c-10.667 16 -18.667 31.5 -24 46.5s-9 27.5 -11 37.5v0zM476.999 486.002c0 7.33301 -0.498047 14.834 -1.49805 22.501s-2.5 15.5 -4.5 23.5
c-7.33301 25.333 -21.333 48.5 -42 69.5s-51 31.5 -91 31.5c-43.333 0 -76.5 -14 -99.5 -42s-34.5 -62.333 -34.5 -103c0 -38.667 11.167 -72.167 33.5 -100.5s56.166 -42.5 101.499 -42.5c49.333 0 84.666 14.667 105.999 44s32 61.666 32 96.999v0z" />
    <glyph glyph-name="colon" unicode=":" horiz-adv-x="399" 
d="M112 0v168h175v-168h-175v0zM112 371v168h175v-168h-175v0z" />
    <glyph glyph-name="semicolon" unicode=";" horiz-adv-x="399" 
d="M112 0l-0.00195312 168h175v-168c0 -56.667 -11.333 -98.167 -34 -124.5s-48 -43.833 -76 -52.5c-11.333 -4 -22.666 -6.66699 -33.999 -8s-21.666 -2 -30.999 -2v83c0.666992 0.666992 1.16699 1 1.5 1h1.5c22 1.33301 42.167 9.5 60.5 24.5s27.5 39.5 27.5 73.5v5h-91
v0zM111.998 371v168h175v-168h-175v0z" />
    <glyph glyph-name="less" unicode="&#x3c;" horiz-adv-x="700" 
d="M43 408l538 311l59 -102l-439 -254l439 -253l-59 -102l-538 310v90v0z" />
    <glyph glyph-name="equal" unicode="=" horiz-adv-x="742" 
d="M56 307h630v-84h-630v84v0zM56 519h630v-84h-630v84v0z" />
    <glyph glyph-name="greater" unicode="&#x3e;" horiz-adv-x="700" 
d="M657 408v-90l-538 -310l-59 102l439 253l-439 254l59 102l538 -311v0z" />
    <glyph glyph-name="question" unicode="?" horiz-adv-x="617" 
d="M212 0v168h175v-168h-175v0zM206 506l-164 -0.000976562v6v7c0 64.667 19.333 120.167 58 166.5s109.334 69.5 212.001 69.5c90.667 0 157.167 -18.333 199.5 -55s63.5 -83.334 63.5 -140.001c0 -40.667 -9 -74 -27 -100s-37.667 -47.333 -59 -64
c-6.66699 -5.33301 -13.334 -10.166 -20.001 -14.499l-19 -12.5c-2 -1.33301 -3.83301 -2.5 -5.5 -3.5s-3.16699 -1.83301 -4.5 -2.5c-21.333 -13.333 -39.166 -28 -53.499 -44s-21.5 -38.667 -21.5 -68v-3c0 -1.33301 0.333008 -2.33301 1 -3v-3.5v-3.5h-133
c-0.666992 5.33301 -1 10.5 -1 15.5v14.5c0 44 8.5 77.833 25.5 101.5s35.833 43.167 56.5 58.5c2 1.33301 4.16699 3 6.5 5s4.83301 3.66699 7.5 5l20.5 15c6.33301 4.66699 12.166 9.33398 17.499 14.001c13.333 12 23.666 24.5 30.999 37.5s11 28.5 11 46.5
c0 29.333 -9.66699 50.333 -29 63s-42.333 19 -69 19c-5.33301 0 -12.166 -0.5 -20.499 -1.5s-16.833 -3.16699 -25.5 -6.5c-14.667 -6 -28 -17 -40 -33s-18 -40.667 -18 -74v-6v-6v0z" />
    <glyph glyph-name="at" unicode="@" horiz-adv-x="1052" 
d="M726 -7l50.0029 -90.002c-22.667 -14 -44.667 -25.667 -66 -35s-42.333 -16.666 -63 -21.999c-20 -5.33301 -39.833 -8.83301 -59.5 -10.5s-40.167 -2.5 -61.5 -2.5c-154 0 -271.833 47 -353.5 141s-122.5 205.333 -122.5 334c0 145.333 47.333 261 142 347
s206 129 334 129c142.667 0 249.667 -35.833 321 -107.5s117.666 -150.5 138.999 -236.5c5.33301 -22.667 9.33301 -45 12 -67s4 -43.667 4 -65v-6.5v-7.5c-3.33301 -63.333 -25.5 -121.333 -66.5 -174s-98.833 -79 -173.5 -79c-7.33301 0 -15.666 0.333008 -24.999 1
s-19 2.33398 -29 5.00098c-10 3.33301 -19.833 8.5 -29.5 15.5s-18.167 16.833 -25.5 29.5c-8 -12.667 -18.333 -22.834 -31 -30.501s-26 -13.5 -40 -17.5c-17.333 -5.33301 -33.833 -8.33301 -49.5 -9s-26.167 -1 -31.5 -1h-1.5h-0.5c-74.667 0 -131.5 23.667 -170.5 71
s-58.5 110 -58.5 188c0 68.667 19.167 128.834 57.5 180.501s92.833 77.5 163.5 77.5c29.333 0 53.166 -3.16699 71.499 -9.5s33.166 -13.5 44.499 -21.5l8 -6c2.66699 -2 5 -4 7 -6l1 26h127v-327c0 -26.667 3.16699 -43 9.5 -49s14.166 -9 23.499 -9
c36.667 0 64 15.167 82 45.5s28 63.833 30 100.5v6.5v6.5c0 128 -37.5 223 -112.5 285s-160.5 93 -256.5 93c-97.333 0 -183.333 -34.167 -258 -102.5s-112 -160.166 -112 -275.499c0 -128 38.5 -222.833 115.5 -284.5s161.833 -92.5 254.5 -92.5
c45.333 0 84 6.16699 116 18.5s60 27.166 84 44.499v-1zM619.003 290.998c0 60.667 -11.002 101 -33.002 121s-46.333 30 -73 30c-36.667 0 -63 -12.167 -79 -36.5s-26 -50.833 -30 -79.5c-0.666992 -6 -1.16699 -12 -1.5 -18s-0.5 -11.667 -0.5 -17
c0 -52.667 10.5 -90.667 31.5 -114s47.167 -35 78.5 -35c28.667 0 50.334 7.83301 65.001 23.5s25.334 33.167 32.001 52.5c4.66699 16 7.5 31 8.5 45s1.5 23.333 1.5 28v0z" />
    <glyph glyph-name="A" unicode="A" horiz-adv-x="714" 
d="M268 742h177l279 -742h-185l-48 139h-269l-47 -139h-185l278 742v0zM260 265h193l-96 283l-97 -283v0z" />
    <glyph glyph-name="B" unicode="B" horiz-adv-x="768" 
d="M79 742h372.999c66 0 114.833 -10.667 146.5 -32s53.5 -44.666 65.5 -69.999c8 -17.333 12.833 -33.833 14.5 -49.5s2.5 -28.167 2.5 -37.5c0 -34 -7.16699 -61.333 -21.5 -82s-30.166 -36.667 -47.499 -48c-10 -6.66699 -19.667 -11.834 -29 -15.501
s-17.333 -6.5 -24 -8.5v-2c2.66699 -0.666992 5.33398 -1.16699 8.00098 -1.5s5.33398 -0.833008 8.00098 -1.5c35.333 -9.33301 67.833 -28.666 97.5 -57.999s44.5 -72 44.5 -128c0 -64.667 -16.833 -111.334 -50.5 -140.001s-70.834 -47.667 -111.501 -57
c-22.667 -5.33301 -44.834 -8.5 -66.501 -9.5s-40.167 -1.5 -55.5 -1.5h-354v742v0zM253.999 313v-177h182c5.33301 0 11.5 0.5 18.5 1.5s14.5 3.16699 22.5 6.5c13.333 5.33301 25.833 14.5 37.5 27.5s17.5 31.833 17.5 56.5c0 36.667 -12.167 60 -36.5 70
s-50.833 15 -79.5 15h-1.5h-1.5h-159v0zM253.999 606l0.000976562 -157h162c3.33301 0 6.66602 0.166992 9.99902 0.5s6.66602 0.833008 9.99902 1.5c16.667 2.66699 31.834 10 45.501 22s20.5 29.667 20.5 53c0 28 -8.33301 47.833 -25 59.5s-35 18.167 -55 19.5
c-2 0.666992 -4.16699 1 -6.5 1h-7.5h-154v0z" />
    <glyph glyph-name="C" unicode="C" horiz-adv-x="773" 
d="M571 262l173.999 -0.00292969c-1.33301 -15.333 -4 -31.833 -8 -49.5s-9.66699 -35.5 -17 -53.5c-18 -45.333 -50.667 -87 -98 -125s-118.666 -57 -213.999 -57c-106.667 0 -185.167 22.333 -235.5 67s-84.5 94 -102.5 148c-10.667 30.667 -17.5 60.667 -20.5 90
s-4.5 54.333 -4.5 75c0 110.667 19.167 193.834 57.5 249.501s80.5 94.834 126.5 117.501c36.667 18 71.334 28.833 104.001 32.5s55.667 5.5 69 5.5c96.667 0 168.667 -18.167 216 -54.5s80 -76.5 98 -120.5c6.66699 -16.667 11.667 -33.334 15 -50.001
s5.33301 -32.334 6 -47.001h-172c-0.666992 7.33301 -2.16699 15.5 -4.5 24.5s-5.83301 18.167 -10.5 27.5c-8.66699 18.667 -23.834 36 -45.501 52s-53.167 24 -94.5 24c-50 0 -87 -14 -111 -42s-41 -58.667 -51 -92c-6.66699 -24 -10.667 -47.167 -12 -69.5
s-2 -39.166 -2 -50.499c0 -65.333 9.66699 -114.666 29 -147.999s40.666 -57 63.999 -71c19.333 -11.333 37.5 -18.166 54.5 -20.499s28.5 -3.5 34.5 -3.5c38.667 0 68.334 7.83301 89.001 23.5s36 33.167 46 52.5c6.66699 12.667 11.5 25 14.5 37s4.83301 21.333 5.5 28v0z
" />
    <glyph glyph-name="D" unicode="D" horiz-adv-x="804" 
d="M79 742l319.999 -0.000976562c110.667 0 191.5 -24.667 242.5 -74s84.5 -103.333 100.5 -162c6.66699 -24 11.167 -47.333 13.5 -70s3.5 -44 3.5 -64c0 -108.667 -20.667 -188.667 -62 -240s-86.666 -86.333 -135.999 -105c-35.333 -13.333 -69 -21.166 -101 -23.499
s-56.667 -3.5 -74 -3.5h-1.5h-1.5h-304v742v0zM253.999 597.999l0.000976562 -453.999h112c59.333 0 108.166 16.167 146.499 48.5s57.5 91.166 57.5 176.499c0 73.333 -12.667 125.833 -38 157.5s-53.333 52.167 -84 61.5c-12.667 4 -25.167 6.66699 -37.5 8
s-23.833 2 -34.5 2h-122v0z" />
    <glyph glyph-name="E" unicode="E" horiz-adv-x="700" 
d="M254 447h363v-136h-363v-167h422v-144h-597v742h587v-144h-412v-151v0z" />
    <glyph glyph-name="F" unicode="F" horiz-adv-x="632" 
d="M254 428h308v-144h-308v-284h-175v742h539v-144h-364v-170v0z" />
    <glyph glyph-name="G" unicode="G" horiz-adv-x="832" 
d="M452 403l314.996 0.000976562v-403h-130v80h-2c-15.333 -24 -33.166 -43 -53.499 -57s-41.166 -24 -62.499 -30c-19.333 -6.66699 -38.666 -10.834 -57.999 -12.501s-36.333 -2.5 -51 -2.5c-124.667 0 -216.667 35.333 -276 106s-89 167 -89 289
c0 113.333 22.5 197 67.5 251s94.833 91 149.5 111c32.667 12 64.667 19.667 96 23s57.333 5 78 5c98.667 0 173 -23.667 223 -71s82 -99.333 96 -156c1.33301 -6 2.5 -11.833 3.5 -17.5s1.83301 -11.5 2.5 -17.5h-183c0 4.66699 -0.5 9.16699 -1.5 13.5
s-1.83301 8.83301 -2.5 13.5c-6.66699 22.667 -20.667 43.334 -42 62.001s-53.666 28 -96.999 28c-60.667 0 -105 -15.167 -133 -45.5s-46.667 -63.833 -56 -100.5c-5.33301 -19.333 -8.66602 -38 -9.99902 -56s-2 -34 -2 -48c0 -86.667 19.167 -149.334 57.5 -188.001
s84.166 -58 137.499 -58c49.333 0 89.5 13.667 120.5 41s47.833 62.333 50.5 105h-148v135v0z" />
    <glyph glyph-name="H" unicode="H" horiz-adv-x="778" 
d="M254 319v-319h-175v742h175v-279h270v279h175v-742h-175v319h-270v0z" />
    <glyph glyph-name="I" unicode="I" horiz-adv-x="333" 
d="M79 742h175v-742h-175v742v0z" />
    <glyph glyph-name="J" unicode="J" horiz-adv-x="620" 
d="M28 273l175.001 -0.00292969v-29c0 -30.667 5.5 -58.334 16.5 -83.001s35.833 -37 74.5 -37c33.333 0 55.166 10.333 65.499 31s15.5 50.334 15.5 89.001v498h175v-474c0 -96.667 -16.833 -164.667 -50.5 -204s-70.834 -63.666 -111.501 -72.999
c-16 -4.66699 -32 -7.5 -48 -8.5s-31 -1.5 -45 -1.5c-90.667 0 -155.667 21.333 -195 64s-62.333 90 -69 142c-1.33301 6.66699 -2.16602 13.334 -2.49902 20.001s-0.5 13.334 -0.5 20.001v46v0z" />
    <glyph glyph-name="K" unicode="K" horiz-adv-x="769" 
d="M254 440l285 302h218l-298 -307l320 -435h-218l-223 320l-84 -85v-235h-175v742h175v-302v0z" />
    <glyph glyph-name="L" unicode="L" horiz-adv-x="614" 
d="M600 144v-144h-521v742h175v-598h346v0z" />
    <glyph glyph-name="M" unicode="M" horiz-adv-x="1004" 
d="M443 0l-186 530h-3v-530h-175v742h246l177 -510l177 510h246v-742h-175v530h-3l-186 -530h-118v0z" />
    <glyph glyph-name="N" unicode="N" horiz-adv-x="806" 
d="M257 464h-3v-464h-175v742h178l292 -461h3v461h175v-742h-178l-292 464v0z" />
    <glyph glyph-name="O" unicode="O" horiz-adv-x="840" 
d="M420 -21c-136 0.666992 -232.5 41.001 -289.5 121.001s-85.5 170.333 -85.5 271c0 6.66699 0.166992 13.5 0.5 20.5s0.833008 13.833 1.5 20.5c6 88 37 168.5 93 241.5s149.333 109.5 280 109.5c132.667 0 226.667 -37 282 -111s86 -155.333 92 -244
c0 -6 0.166992 -12.167 0.5 -18.5s0.5 -12.5 0.5 -18.5s-0.166992 -12.167 -0.5 -18.5s-0.5 -12.5 -0.5 -18.5c-6 -88.667 -36.667 -169.834 -92 -243.501s-149.333 -110.5 -282 -110.5v-1zM420 123.001c55.333 0 95.835 14.833 121.502 44.5s43.167 62.167 52.5 97.5
c5.33301 19.333 8.66602 38.5 9.99902 57.5s2 35.167 2 48.5c0 14 -0.666992 30 -2 48s-4.33301 36.667 -9 56c-8.66699 36 -26 69 -52 99s-67 45 -123 45c-67.333 0 -113.833 -21.5 -139.5 -64.5s-40.5 -90.167 -44.5 -141.5c-0.666992 -7.33301 -1.16699 -14.5 -1.5 -21.5
s-0.5 -13.833 -0.5 -20.5c0 -8.66699 0.166992 -17.167 0.5 -25.5s1.16602 -16.833 2.49902 -25.5c4.66699 -49.333 20 -94.5 46 -135.5s71.667 -61.5 137 -61.5v0z" />
    <glyph glyph-name="P" unicode="P" horiz-adv-x="726" 
d="M79 742l346.001 -0.000976562c105.333 0 177.166 -24.167 215.499 -72.5s57.5 -104.166 57.5 -167.499c0 -74.667 -16.5 -129.167 -49.5 -163.5s-69.167 -57.166 -108.5 -68.499c-22 -6.66699 -43.5 -10.834 -64.5 -12.501s-39.167 -2.5 -54.5 -2.5h-167v-255h-175v742v0
zM254.001 596.999v-198.001h137c36.667 0 66.667 6.83301 90 20.5s35 40.834 35 81.501c0 38 -11 63.5 -33 76.5s-52.667 19.5 -92 19.5h-137v0z" />
    <glyph glyph-name="Q" unicode="Q" horiz-adv-x="840" 
d="M696 84l85.0029 -84.0029l-79 -79l-95 96c-20.667 -11.333 -45.334 -20.333 -74.001 -27s-66.334 -10 -113.001 -10c-101.333 0 -177.833 21 -229.5 63s-88.167 88 -109.5 138c-16.667 40 -26.834 77.833 -30.501 113.5s-5.5 61.167 -5.5 76.5
c0 6 0.166992 12.167 0.5 18.5s0.5 12.5 0.5 18.5c6 88.667 36.667 170 92 244s149.333 111 282 111c130.667 0 224 -36.5 280 -109.5s87 -153.5 93 -241.5c0.666992 -6.66699 1.16699 -13.5 1.5 -20.5s0.5 -13.833 0.5 -20.5c0 -49.333 -5.33301 -92.166 -16 -128.499
s-22.334 -66.166 -35.001 -89.499c-10 -20 -19.667 -35.667 -29 -47s-15.666 -18.666 -18.999 -21.999v0zM484.003 299.997l89 -91.999c2 2.66699 3.83301 5.83398 5.5 9.50098l5.5 12.5c5.33301 13.333 10.333 31.166 15 53.499s7 51.5 7 87.5
c0 6.66699 -0.166992 13.5 -0.5 20.5s-0.833008 14.167 -1.5 21.5c-4 51.333 -18.833 98.5 -44.5 141.5s-72.167 64.5 -139.5 64.5c-56 0 -97 -15 -123 -45s-43.333 -63 -52 -99c-4.66699 -19.333 -7.66699 -38 -9 -56s-2 -34 -2 -48s0.666992 -30 2 -48
s4.33301 -36.333 9 -55c8.66699 -36.667 25.834 -70 51.501 -100s66.834 -45 123.501 -45c17.333 0 32.166 1.16699 44.499 3.5s24.166 6.16602 35.499 11.499c1.33301 0.666992 2.83301 1.5 4.5 2.5s3.16699 1.83301 4.5 2.5l-94 90l69 67v0z" />
    <glyph glyph-name="R" unicode="R" horiz-adv-x="759" 
d="M79 0l0.00390625 741.997h380c82 0 143.333 -19.167 184 -57.5s61 -89.5 61 -153.5c0 -54 -12.5 -95.833 -37.5 -125.5s-53.167 -49.5 -84.5 -59.5v-3c38.667 -10.667 65 -28.834 79 -54.501s22.333 -52.834 25 -81.501c0.666992 -7.33301 1.16699 -14.666 1.5 -21.999
s0.5 -14.666 0.5 -21.999v-5.5v-5.5c0.666992 -39.333 2.16699 -68.666 4.5 -87.999s8.16602 -36.666 17.499 -51.999c0.666992 -2 1.66699 -4 3 -6l4 -6h-178c-10.667 15.333 -17.834 33.333 -21.501 54s-6.16699 55.334 -7.5 104.001
c-0.666992 29.333 -6.83398 56 -18.501 80s-45.834 36 -102.501 36h-135v-274h-175v0zM254.004 597.997v-188.999h160c4 0 8 0.166992 12 0.5s8 0.5 12 0.5c22 2.66699 42.333 10.5 61 23.5s28 35.833 28 68.5c0 41.333 -11.833 67.666 -35.5 78.999s-51.5 17 -83.5 17h-154
v0z" />
    <glyph glyph-name="S" unicode="S" horiz-adv-x="711" 
d="M37 241l177.005 0.000976562v-2v-3c0 -6.66699 0.666992 -14.5 2 -23.5s4 -17.833 8 -26.5c7.33301 -18 21.333 -34.333 42 -49s52.667 -22 96 -22c6.66699 0 13.667 0.166992 21 0.5s15 1.16602 23 2.49902c22 2.66699 42.333 9.83398 61 21.501s28 31.5 28 59.5
c0 38 -17.333 63.833 -52 77.5s-73 24.834 -115 33.501c-0.666992 0 -1.33398 0.166992 -2.00098 0.5s-1.33398 0.5 -2.00098 0.5c-2.66699 0.666992 -5.5 1.33398 -8.5 2.00098s-6.16699 1.33398 -9.5 2.00098c-4 0.666992 -8 1.5 -12 2.5s-7.66699 1.83301 -11 2.5
c-55.333 12.667 -105.833 33.167 -151.5 61.5s-68.5 82.5 -68.5 162.5c0 70 26.167 124 78.5 162s127.166 57 224.499 57c74 0 130.333 -12 169 -36s66.334 -50.667 83.001 -80c13.333 -22.667 21.666 -44.334 24.999 -65.001s5 -35.334 5 -44.001h-166
c-2 25.333 -10.167 44.166 -24.5 56.499s-29.833 20.833 -46.5 25.5c-10.667 3.33301 -21 5.33301 -31 6s-18.333 1 -25 1c-36.667 0 -65.5 -7 -86.5 -21s-31.5 -33.333 -31.5 -58c0 -25.333 10 -43.833 30 -55.5s42 -20.167 66 -25.5c9.33301 -2 18.333 -3.83301 27 -5.5
l24 -4.5c85.333 -16.667 155 -39.5 209 -68.5s81 -83.167 81 -162.5c0 -11.333 -0.666992 -23.333 -2 -36s-4 -25.334 -8 -38.001c-12 -43.333 -40.167 -82.833 -84.5 -118.5s-117.5 -53.5 -219.5 -53.5c-96.667 0 -167.834 16.833 -213.501 50.5
s-76.167 70.834 -91.5 111.501c-6.66699 17.333 -11.334 34.666 -14.001 51.999s-4 33 -4 47v0z" />
    <glyph glyph-name="T" unicode="T" horiz-adv-x="651" 
d="M238 598h-224v144h623v-144h-224v-598h-175v598v0z" />
    <glyph glyph-name="U" unicode="U" horiz-adv-x="782" 
d="M70 742l175 -0.00292969v-433c0 -53.333 9.16699 -97.166 27.5 -131.499s57.833 -51.5 118.5 -51.5c59.333 0 98.5 16.833 117.5 50.5s28.5 77.834 28.5 132.501v433h175v-461c0 -16.667 -1.16699 -36.167 -3.5 -58.5s-7.5 -45.166 -15.5 -68.499
c-15.333 -43.333 -45.333 -82.833 -90 -118.5s-115.334 -53.5 -212.001 -53.5c-99.333 0 -171.166 18.333 -215.499 55s-73.833 77 -88.5 121c-7.33301 22.667 -12 44.667 -14 66s-3 40.333 -3 57v461v0z" />
    <glyph glyph-name="V" unicode="V" horiz-adv-x="669" 
d="M341 212l144 530h194l-252 -742h-185l-252 742h201l150 -530v0z" />
    <glyph glyph-name="W" unicode="W" horiz-adv-x="1008" 
d="M504 548l-128 -548h-189l-197 742h185l120 -542l129 542h160l128 -542l121 542h185l-198 -742h-189l-127 548v0z" />
    <glyph glyph-name="X" unicode="X" horiz-adv-x="747" 
d="M373 255l-153 -255h-220l261 386l-238 356h208l142 -244l143 244h208l-239 -356l262 -386h-220l-154 255v0z" />
    <glyph glyph-name="Y" unicode="Y" horiz-adv-x="688" 
d="M348 421l157 321h193l-266 -462v-280h-175v280l-267 462h200l158 -321v0z" />
    <glyph glyph-name="Z" unicode="Z" horiz-adv-x="676" 
d="M403 594h-356v148h576v-135l-382 -459h407v-148h-620v155l375 439v0z" />
    <glyph glyph-name="bracketleft" unicode="[" horiz-adv-x="448" 
d="M112 742h280v-98h-140v-742h140v-98h-280v938v0z" />
    <glyph glyph-name="backslash" unicode="\" horiz-adv-x="699" 
d="M70 770l100 51l459 -858l-99 -52l-460 859v0z" />
    <glyph glyph-name="bracketright" unicode="]" horiz-adv-x="448" 
d="M336 -196h-280v98h140v742h-140v98h280v-938v0z" />
    <glyph glyph-name="asciicircum" unicode="^" horiz-adv-x="527" 
d="M137 742h252l107 -151h-106l-127 100l-126 -100h-106l106 151v0z" />
    <glyph glyph-name="underscore" unicode="_" horiz-adv-x="527" 
d="M0 -196v126h527v-126h-527v0z" />
    <glyph glyph-name="grave" unicode="`" horiz-adv-x="302" 
d="M158 742l73 -140h-130l-113 140h170v0z" />
    <glyph glyph-name="a" unicode="a" horiz-adv-x="641" 
d="M229 365h-154.003c0 10 1 20.833 3 32.5s5.33301 23.167 10 34.5c11.333 30.667 34.833 58.5 70.5 83.5s92.5 37.5 170.5 37.5c78.667 0 134.834 -12.333 168.501 -37s55.834 -51.667 66.501 -81c4.66699 -14 7.5 -27.833 8.5 -41.5s1.5 -25.834 1.5 -36.501l-2 -246
c-0.666992 -32.667 1.16602 -57 5.49902 -73s13.166 -27.333 26.499 -34v-4h-169l-14 53h-3c-10.667 -12.667 -22.667 -23.167 -36 -31.5s-26.666 -15.166 -39.999 -20.499c-22.667 -7.33301 -43.834 -12 -63.501 -14s-33.5 -3 -41.5 -3
c-55.333 0 -96.166 9.33301 -122.499 28s-44.166 39.667 -53.499 63c-4 10.667 -6.83301 21.334 -8.5 32.001s-2.5 20.334 -2.5 29.001c0 62.667 21.333 104.667 64 126s89.334 35.333 140.001 42l15.5 2l14.5 2c11.333 1.33301 21.5 2.66602 30.5 3.99902
s17.5 2.33301 25.5 3c29.333 4.66699 48.833 10.167 58.5 16.5s14.834 17.5 15.501 33.5v3.5v3.5v3.5v3.5c0 4 -0.333008 8.5 -1 13.5s-2 10.167 -4 15.5c-4.66699 10.667 -12.834 20.5 -24.501 29.5s-30.5 13.5 -56.5 13.5c-29.333 0 -50.833 -5.33301 -64.5 -16
s-23.167 -22.334 -28.5 -35.001c-2 -6.66699 -3.5 -13 -4.5 -19s-1.5 -11.333 -1.5 -16v0zM414.997 223l0.998047 34.001c-7.33301 -4 -14 -7.16699 -20 -9.5s-12 -4.5 -18 -6.5c-5.33301 -1.33301 -10.666 -2.5 -15.999 -3.5l-18 -3.5
c-2.66699 -0.666992 -5.5 -1.16699 -8.5 -1.5s-6.16699 -0.833008 -9.5 -1.5c-5.33301 -0.666992 -11 -1.5 -17 -2.5s-12 -2.16699 -18 -3.5c-19.333 -4.66699 -36.833 -12.167 -52.5 -22.5s-23.5 -27.833 -23.5 -52.5c0 -2 0.166992 -4.16699 0.5 -6.5s0.5 -4.5 0.5 -6.5
c3.33301 -14 11.333 -26.667 24 -38s32 -17 58 -17c6.66699 0 13.834 0.666992 21.501 2s15.5 3.66602 23.5 6.99902c17.333 7.33301 33.333 21 48 41s22.667 50.333 24 91v0z" />
    <glyph glyph-name="b" unicode="b" horiz-adv-x="675" 
d="M214 65l2.00098 -64.999h-151v742h161v-258c16.667 20.667 36.334 36.667 59.001 48s46 18.666 70 21.999c6 0.666992 11.667 1.16699 17 1.5s10.666 0.5 15.999 0.5c79.333 0 140.5 -26.833 183.5 -80.5s64.5 -121.834 64.5 -204.501
c0 -102.667 -25 -176.167 -75 -220.5s-105 -67.166 -165 -68.499h-3.5h-2.5c-38.667 0 -72.334 7.66699 -101.001 23s-52.667 35.333 -72 60h-3v0zM217.001 269.001c0 -55.333 11.3311 -97.999 33.998 -127.999s53.334 -45 92.001 -45c40.667 0 72 16 94 48
s33 73.667 33 125v4v4c-1.33301 41.333 -11.5 79.166 -30.5 113.499s-51.167 51.5 -96.5 51.5c-5.33301 0 -13.666 -0.833008 -24.999 -2.5s-23.333 -6.16699 -36 -13.5c-16 -10 -30.833 -26.833 -44.5 -50.5s-20.5 -59.167 -20.5 -106.5v0z" />
    <glyph glyph-name="c" unicode="c" horiz-adv-x="628" 
d="M433 203l159.001 0.00195312c-1.33301 -12 -3.83301 -25.333 -7.5 -40s-8.83398 -29.334 -15.501 -44.001c-15.333 -34.667 -41.5 -66.167 -78.5 -94.5s-92.167 -42.5 -165.5 -42.5c-104.667 0 -178.5 29 -221.5 87s-64.5 124.333 -64.5 199c0 16 1.33301 34.5 4 55.5
s7.66699 42.5 15 64.5c15.333 42.667 43.666 81.834 84.999 117.501s105.333 53.5 192 53.5c68 0 119.5 -13.167 154.5 -39.5s59.833 -55.5 74.5 -87.5c6.66699 -15.333 11.667 -30.333 15 -45s5.66602 -28 6.99902 -40h-155c-4.66699 41.333 -17 69 -37 83
s-41.667 21 -65 21c-6.66699 0 -14.167 -0.5 -22.5 -1.5s-16.5 -3.16699 -24.5 -6.5c-19.333 -7.33301 -36.833 -22.833 -52.5 -46.5s-23.5 -62.5 -23.5 -116.5c0 -70.667 11.333 -119.334 34 -146.001s47.334 -41.334 74.001 -44.001c2 -0.666992 4.16699 -1 6.5 -1h6.5
c28 0 49.333 7.16699 64 21.5s25 29.833 31 46.5c3.33301 8.66699 5.83301 17 7.5 25s2.83398 15 3.50098 21v0z" />
    <glyph glyph-name="d" unicode="d" horiz-adv-x="676" 
d="M611 0l-151 -0.00195312l1 65h-3c-9.33301 -11.333 -19 -21.166 -29 -29.499s-20 -15.5 -30 -21.5c-20 -12 -39.667 -20.167 -59 -24.5s-38 -6.5 -56 -6.5c-77.333 0 -137.5 26.833 -180.5 80.5s-64.5 122.834 -64.5 207.501c0 74 13 130.333 39 169s54.333 66.667 85 84
c29.333 16 56.333 25.333 81 28s39 4 43 4v0v0c7.33301 0 14.833 -0.333008 22.5 -1s15.167 -1.66699 22.5 -3c22 -4.66699 43.5 -12.5 64.5 -23.5s38.833 -25.833 53.5 -44.5v258h161v-742v0zM458 268.998c0 47.333 -9.66699 88 -29 122s-51.666 51 -96.999 51
c-44.667 0 -76.834 -17 -96.501 -51s-29.5 -74.667 -29.5 -122c0 -62.667 12.5 -106.834 37.5 -132.501s52.5 -39.167 82.5 -40.5h3.5h2.5h2.5h3.5c30 1.33301 57.5 14.833 82.5 40.5s37.5 69.834 37.5 132.501v0z" />
    <glyph glyph-name="e" unicode="e" horiz-adv-x="656" 
d="M443 156h163c-2.66699 -9.33301 -6.16699 -19.666 -10.5 -30.999s-10.166 -23 -17.499 -35c-17.333 -26.667 -45.333 -51.167 -84 -73.5s-94.334 -33.5 -167.001 -33.5c-96.667 0 -168.834 26.167 -216.501 78.5s-71.5 121.833 -71.5 208.5
c0 95.333 28.833 166.833 86.5 214.5s128.834 71.5 213.501 71.5c102 0 173.833 -30 215.5 -90s62.5 -128.667 62.5 -206v-24h-412v-8c0 -2.66699 0.333008 -5.33398 1 -8.00098c2 -34 13 -65.167 33 -93.5s51.667 -42.5 95 -42.5h3.5h3.5
c22.667 1.33301 44 7.83301 64 19.5s32.667 29.167 38 52.5v0zM205 320l246.002 0.000976562c-0.666992 38.667 -7.83398 67.5 -21.501 86.5s-28.5 31.833 -44.5 38.5c-8.66699 3.33301 -17.334 5.66602 -26.001 6.99902s-16 2 -22 2c-34 0 -60 -8 -78 -24
s-31.333 -33.667 -40 -53c-4.66699 -10.667 -8 -21 -10 -31s-3.33301 -18.667 -4 -26v0z" />
    <glyph glyph-name="f" unicode="f" horiz-adv-x="409" 
d="M394 539l-0.000976562 -104.999h-121v-434h-161v434h-98v105h98v67c0 60 20 98.833 60 116.5s86.667 26.5 140 26.5h11c4 0 7.66699 -0.333008 11 -1c6 0 11.833 -0.333008 17.5 -1s10.834 -1.33398 15.501 -2.00098c5.33301 -0.666992 10.333 -1.16699 15 -1.5
s8.66699 -0.833008 12 -1.5l1 -108c-2 0.666992 -4.33301 1.16699 -7 1.5s-6 0.5 -10 0.5c-3.33301 0.666992 -7.16602 1.16699 -11.499 1.5s-8.83301 0.833008 -13.5 1.5c-4 0 -8 0.166992 -12 0.5s-7.66699 0.5 -11 0.5c-18.667 0 -32.834 -5.83301 -42.501 -17.5
s-14.5 -26.167 -14.5 -43.5v-40h121v0z" />
    <glyph glyph-name="g" unicode="g" horiz-adv-x="676" 
d="M79 -42l157 0.000976562c6.66699 -22 19.167 -37.5 37.5 -46.5s40.833 -13.5 67.5 -13.5c4.66699 0 9.33398 0.166992 14.001 0.5s9.66699 1.16602 15 2.49902c20 3.33301 38.333 13.833 55 31.5s25 48.167 25 91.5v54h-3c-23.333 -22.667 -47.666 -39.167 -72.999 -49.5
s-54.666 -15.5 -87.999 -15.5c-64.667 0 -121.5 20.833 -170.5 62.5s-73.5 107.834 -73.5 198.501c0 85.333 21.667 153.5 65 204.5s103.666 76.5 180.999 76.5c10 0 20.167 -0.5 30.5 -1.5s20.5 -2.5 30.5 -4.5c19.333 -4.66699 38.166 -12.334 56.499 -23.001
s34.833 -26.334 49.5 -47.001h3v60h153v-489c0 -84 -18.333 -143.833 -55 -179.5s-77 -58.5 -121 -68.5c-16.667 -3.33301 -33.167 -5.66602 -49.5 -6.99902s-31.5 -2 -45.5 -2h-13.5h-13.5c-52 2 -100.833 13.667 -146.5 35s-74.834 65 -87.501 131v-1zM332 122.001
c6 0 12.667 0.333984 20 1.00098s14.333 2 21 4c20.667 5.33301 39.667 19 57 41s26 59.667 26 113c0 51.333 -11.5 91 -34.5 119s-53.167 42 -90.5 42c-6.66699 0 -14.5 -0.666992 -23.5 -2s-18.167 -4.33301 -27.5 -9c-18 -8 -34.5 -23.167 -49.5 -45.5
s-22.5 -56.5 -22.5 -102.5c0 -8.66699 0.5 -18.834 1.5 -30.501s2.83301 -23.5 5.5 -35.5c6 -24 17.5 -45.833 34.5 -65.5s44.5 -29.5 82.5 -29.5v0z" />
    <glyph glyph-name="h" unicode="h" horiz-adv-x="648" 
d="M226 742l-0.00195312 -262.001c9.33301 10 18.833 18.833 28.5 26.5s19.5 14.167 29.5 19.5c26 13.333 50.5 21.333 73.5 24s39.833 4 50.5 4c9.33301 0 19.5 -0.5 30.5 -1.5s22.167 -3.16699 33.5 -6.5c28.667 -8.66699 54.834 -28 78.501 -58s35.5 -80 35.5 -150v-338
h-161v312c0 6.66699 -0.166992 13.834 -0.5 21.501s-1.16602 15.5 -2.49902 23.5c-3.33301 18.667 -11.166 35.667 -23.499 51s-33.833 23 -64.5 23c-34.667 0 -61.334 -11.167 -80.001 -33.5s-28 -53.833 -28 -94.5v-303h-161v742h161v0z" />
    <glyph glyph-name="i" unicode="i" horiz-adv-x="290" 
d="M65 539h161v-539h-161v539v0zM62 616v126h166v-126h-166v0z" />
    <glyph glyph-name="j" unicode="j" horiz-adv-x="290" 
d="M64 539l161.001 0.000976562l1 -565c0 -72.667 -15.5 -120.334 -46.5 -143.001s-67.5 -34 -109.5 -34c-6 0 -12.333 0.166992 -19 0.5s-13.334 0.5 -20.001 0.5c-10.667 1.33301 -21.167 2.5 -31.5 3.5s-20.166 2.16699 -29.499 3.5l-1 107
c6.66699 -0.666992 12.5 -1.16699 17.5 -1.5s9.5 -0.5 13.5 -0.5c21.333 0 36.333 4.66699 45 14s14 19.666 16 30.999c1.33301 6 2.16602 11.833 2.49902 17.5s0.5 10.834 0.5 15.501v0.5v1.5v549v0zM62.001 616.001v126h166v-126h-166v0z" />
    <glyph glyph-name="k" unicode="k" horiz-adv-x="613" 
d="M226 334l184 205h194l-213 -213l232 -326h-192l-150 224l-55 -56v-168h-161v742h161v-408v0z" />
    <glyph glyph-name="l" unicode="l" horiz-adv-x="291" 
d="M65 742h161v-742h-161v742v0z" />
    <glyph glyph-name="m" unicode="m" horiz-adv-x="968" 
d="M65 539l150 -0.00390625v-79c3.33301 4.66699 8.33301 11 15 19s14.667 16.333 24 25c14.667 12.667 32.5 24.334 53.5 35.001s45.5 16 73.5 16c40.667 0 72.5 -8.33301 95.5 -25s40.167 -35 51.5 -55l6 -12c2 -4 3.66699 -8 5 -12c32.667 45.333 64.834 74 96.501 86
s60.834 18 87.501 18c54 0 93.667 -13 119 -39s42.666 -54.667 51.999 -86c5.33301 -19.333 8.66602 -38.166 9.99902 -56.499s2 -33.5 2 -45.5v-328h-161v317c0 6.66699 -0.166992 14.334 -0.5 23.001s-1.5 17.334 -3.5 26.001c-3.33301 16.667 -10.5 32 -21.5 46
s-29.167 21 -54.5 21c-2.66699 0 -5.33398 -0.166992 -8.00098 -0.5s-5.33398 -0.5 -8.00098 -0.5c-20.667 -3.33301 -39.667 -14.333 -57 -33s-26 -48.667 -26 -90v-309h-161v317c0 32 -5 59.333 -15 82s-32.333 34 -67 34c-3.33301 0 -6.66602 -0.166992 -9.99902 -0.5
s-6.66602 -0.833008 -9.99902 -1.5c-19.333 -4.66699 -37 -16.5 -53 -35.5s-24 -47.833 -24 -86.5v-309h-161v539v0z" />
    <glyph glyph-name="n" unicode="n" horiz-adv-x="648" 
d="M219 539l-0.00195312 -65.002c4 4.66699 8.83301 9.83398 14.5 15.501s12.5 11.5 20.5 17.5c16 12 36.333 22.833 61 32.5s55 14.5 91 14.5c9.33301 0 19.333 -0.5 30 -1.5s21.334 -2.83301 32.001 -5.5c29.333 -8 56.333 -26.833 81 -56.5s37 -80.5 37 -152.5v-338h-161
v312c0 6.66699 -0.166992 13.834 -0.5 21.501s-1.16602 15.5 -2.49902 23.5c-3.33301 18.667 -11.166 35.667 -23.499 51s-33.833 23 -64.5 23c-34.667 0 -61.334 -11.167 -80.001 -33.5s-28 -53.833 -28 -94.5v-303h-161v539h154v0z" />
    <glyph glyph-name="o" unicode="o" horiz-adv-x="665" 
d="M332 -20c-74.667 0.666992 -142.168 22.498 -202.501 65.498s-90.5 117.833 -90.5 224.5c0 90.667 21.5 157 64.5 199s90.5 68.667 142.5 80c14.667 4 29.334 6.66699 44.001 8s28.667 2 42 2s27 -0.666992 41 -2s28 -3.66602 42 -6.99902
c52.667 -11.333 101 -37.833 145 -79.5s66 -108.5 66 -200.5s-21.667 -158.833 -65 -200.5s-91.333 -68.167 -144 -79.5c-14 -3.33301 -28.333 -5.66602 -43 -6.99902s-28.667 -2 -42 -2v-1zM331.999 87.998c6.66699 0 14.334 0.498047 23.001 1.49805
s17.334 3.16699 26.001 6.5c19.333 8 37.166 24.5 53.499 49.5s24.5 66.5 24.5 124.5c0 57.333 -8.16699 98.5 -24.5 123.5s-34.166 41.5 -53.499 49.5c-8.66699 3.33301 -17.334 5.5 -26.001 6.5s-16.334 1.5 -23.001 1.5s-14.334 -0.5 -23.001 -1.5
s-17.334 -3.5 -26.001 -7.5c-19.333 -8 -37 -24.5 -53 -49.5s-24 -65.833 -24 -122.5c0 -57.333 8 -98.666 24 -123.999s33.667 -41.666 53 -48.999c8.66699 -4 17.334 -6.5 26.001 -7.5s16.334 -1.5 23.001 -1.5v0z" />
    <glyph glyph-name="p" unicode="p" horiz-adv-x="676" 
d="M65 539l151 -0.000976562l-1 -65h3c10 11.333 19.833 21.166 29.5 29.499s19.5 15.5 29.5 21.5c20 12.667 39.667 21.167 59 25.5s38 6.5 56 6.5c77.333 0 137.5 -26.833 180.5 -80.5s64.5 -123.167 64.5 -208.5c0 -74 -13 -130.333 -39 -169s-54.333 -66.667 -85 -84
c-29.333 -15.333 -56.333 -24.333 -81 -27s-39 -4 -43 -4v0v0c-7.33301 0 -14.833 0.333008 -22.5 1s-15.167 1.66699 -22.5 3c-22 4.66699 -43.5 12.334 -64.5 23.001s-38.833 25.334 -53.5 44.001v-251h-161v735v0zM218 269.999c0 -43.333 9.16895 -83 27.502 -119
s51.166 -54 98.499 -54c45.333 0 77.666 17.167 96.999 51.5s29 74.833 29 121.5c0 62.667 -12.5 106.834 -37.5 132.501s-52.5 39.167 -82.5 40.5h-3.5h-2.5h-2.5h-3.5c-30 -1.33301 -57.5 -14.833 -82.5 -40.5s-37.5 -69.834 -37.5 -132.501v0z" />
    <glyph glyph-name="q" unicode="q" horiz-adv-x="675" 
d="M461 474l-1.99805 65h151v-735h-161v251c-16.667 -20.667 -36.334 -36.5 -59.001 -47.5s-46 -18.167 -70 -21.5c-6 -0.666992 -11.667 -1.16699 -17 -1.5s-10.666 -0.5 -15.999 -0.5c-78.667 0 -139.667 26.667 -183 80s-65 121.333 -65 204
c0 102.667 25 176.334 75 221.001s105 67.667 165 69h3.5h2.5c39.333 0 73.166 -7.83301 101.499 -23.5s52.166 -35.834 71.499 -60.501h3v0zM458.002 270c0 62.667 -12.498 106.836 -37.498 132.503s-52.5 39.167 -82.5 40.5h-3.5h-2.5c-38 0 -66.167 -12.167 -84.5 -36.5
s-30.5 -50.833 -36.5 -79.5c-2 -10 -3.5 -19.833 -4.5 -29.5s-1.5 -18.834 -1.5 -27.501c0 -6.66699 0.666992 -17.834 2 -33.501s4.66602 -32.167 9.99902 -49.5c7.33301 -22.667 19.833 -43.334 37.5 -62.001s43.5 -28 77.5 -28c45.333 0 77.666 17.167 96.999 51.5
s29 74.833 29 121.5v0z" />
    <glyph glyph-name="r" unicode="r" horiz-adv-x="449" 
d="M435 548l0.00292969 -128c-9.33301 2 -18.333 3.33301 -27 4s-17 1 -25 1c-44.667 0 -77.834 -11.5 -99.501 -34.5s-36.834 -48.167 -45.501 -75.5c-5.33301 -18.667 -8.66602 -36.667 -9.99902 -54s-2 -31 -2 -41v-220h-161v539h154v-88
c23.333 39.333 52.166 65.333 86.499 78s71.166 19 110.499 19h19v0z" />
    <glyph glyph-name="s" unicode="s" horiz-adv-x="587" 
d="M32 170l165.002 -0.00195312c1.33301 -21.333 9.16602 -41 23.499 -59s42.5 -27 84.5 -27c24.667 0 45.334 5.16699 62.001 15.5s25 25.5 25 45.5c0 26.667 -10 44.5 -30 53.5s-47.667 16.5 -83 22.5c-6 0.666992 -12.333 1.5 -19 2.5s-13.667 2.16699 -21 3.5
c-6 1.33301 -12.333 2.5 -19 3.5s-13.334 2.16699 -20.001 3.5c-37.333 8 -71.5 22.833 -102.5 44.5s-46.5 59.834 -46.5 114.501c0 57.333 22.5 99 67.5 125s103.167 39 174.5 39c69.333 0 120.666 -10 153.999 -30s56.333 -42.333 69 -67
c6.66699 -12.667 11.167 -25.167 13.5 -37.5s3.83301 -23.166 4.5 -32.499h-146c-1.33301 22 -7.5 37.833 -18.5 47.5s-23.167 15.834 -36.5 18.501c-5.33301 1.33301 -10.5 2.16602 -15.5 2.49902s-9.83301 0.5 -14.5 0.5c-5.33301 0 -11 -0.166992 -17 -0.5
s-12 -1.16602 -18 -2.49902c-15.333 -2.66699 -29.166 -7.83398 -41.499 -15.501s-18.5 -19.834 -18.5 -36.501c0 -28 11.5 -46.167 34.5 -54.5s49.167 -14.5 78.5 -18.5c2.66699 -0.666992 5.33398 -1.16699 8.00098 -1.5s5 -0.5 7 -0.5c1.33301 0 2.5 -0.166992 3.5 -0.5
s1.83301 -0.5 2.5 -0.5c11.333 -2 23.833 -4 37.5 -6s27.167 -4.66699 40.5 -8c34 -8 65 -22.833 93 -44.5s42 -57.167 42 -106.5c0 -7.33301 -0.333008 -15 -1 -23s-2 -16.333 -4 -25c-8.66699 -33.333 -30.834 -63.666 -66.501 -90.999s-96.834 -41 -183.501 -41
c-85.333 0 -151 17.5 -197 52.5s-69.667 79.833 -71 134.5v0z" />
    <glyph glyph-name="t" unicode="t" horiz-adv-x="408" 
d="M14 431l0.00195312 107.999h97v161h161v-161h115v-108h-115v-259v-2.5v-3.5v-7v-7c0.666992 -13.333 4.66699 -25.5 12 -36.5s24.666 -16.5 51.999 -16.5c7.33301 0 15.333 0.833008 24 2.5s17.667 3.83398 27 6.50098v-108l-28 -4.5
c-10 -1.66699 -19.667 -3.16699 -29 -4.5c-13.333 -1.33301 -26.333 -2.5 -39 -3.5s-24.667 -1.5 -36 -1.5c-46.667 0 -82.334 10.5 -107.001 31.5s-37 62.5 -37 124.5v289h-97v0z" />
    <glyph glyph-name="u" unicode="u" horiz-adv-x="648" 
d="M429 0v65.002c-10.667 -12 -21.667 -22.167 -33 -30.5s-22.666 -15.5 -33.999 -21.5c-22 -10.667 -43.5 -17.834 -64.5 -21.501s-39.5 -5.5 -55.5 -5.5c-56.667 0 -97.334 13.167 -122.001 39.5s-41 55.5 -49 87.5c-4 16 -6.5 31.667 -7.5 47s-1.5 29 -1.5 41v338h161
v-312c0 -6.66699 0.166992 -13.667 0.5 -21s0.833008 -15 1.5 -23c3.33301 -18.667 11 -35.834 23 -51.501s33.667 -23.5 65 -23.5c34 0 60.667 11.333 80 34s29 54 29 94v303h161v-539h-154v0z" />
    <glyph glyph-name="v" unicode="v" horiz-adv-x="551" 
d="M275 161l111 378h175l-197 -539h-177l-197 539h175l110 -378v0z" />
    <glyph glyph-name="w" unicode="w" horiz-adv-x="846" 
d="M423 348l-90 -348h-168l-175 539h177l91 -351l88 351h154l88 -351l91 351h177l-176 -539h-168l-89 348v0z" />
    <glyph glyph-name="x" unicode="x" horiz-adv-x="589" 
d="M295 371l99 168h186l-191 -260l200 -279h-185l-109 176l-109 -176h-186l201 279l-191 260h186l99 -168v0z" />
    <glyph glyph-name="y" unicode="y" horiz-adv-x="591" 
d="M101 -196l0.000976562 107.999c2 0 4 -0.333008 6 -1s4.33301 -1.33398 7 -2.00098c6 -1.33301 12.167 -2.16602 18.5 -2.49902s13.166 -0.5 20.499 -0.5c21.333 0 37.666 5.83301 48.999 17.5s21 30.834 29 57.501l8 25l-235 533h194l125 -351l97 351h171l-187 -568
c-16.667 -48.667 -37.167 -90.167 -61.5 -124.5s-67.166 -51.5 -128.499 -51.5h-14.5c-5 0 -9.83301 0.333008 -14.5 1c-12 0.666992 -23.5 1.5 -34.5 2.5s-20.833 2.16699 -29.5 3.5c-4 0.666992 -7.66699 1.16699 -11 1.5s-6.33301 0.833008 -9 1.5v-1z" />
    <glyph glyph-name="z" unicode="z" horiz-adv-x="543" 
d="M51 428v111h450v-116l-280 -312h294v-111h-487v113l286 315h-263v0z" />
    <glyph glyph-name="braceleft" unicode="{" horiz-adv-x="527" 
d="M140 264l0.000976562 97.9941c4.66699 0.666992 9.83398 1.5 15.501 2.5s11.5 2.83301 17.5 5.5c15.333 7.33301 29.333 20.666 42 39.999s19 49.333 19 90v14c0 4.66699 -0.333008 9.33398 -1 14.001c0 4.66699 -0.166992 9.33398 -0.5 14.001s-0.5 9.33398 -0.5 14.001
c-0.666992 9.33301 -1.16699 18.5 -1.5 27.5s-0.5 17.833 -0.5 26.5c0 53.333 11.667 92.166 35 116.499s49 40.5 77 48.5c12 3.33301 23.667 5.5 35 6.5s22 1.5 32 1.5h7.5h6.5v-77c-18.667 -4.66699 -33 -11.5 -43 -20.5s-17.333 -18.833 -22 -29.5
c-4 -9.33301 -6.5 -18.333 -7.5 -27s-1.5 -15.334 -1.5 -20.001c0 -27.333 0.333008 -43.666 1 -48.999s1 -8.33301 1 -9v0v0c0.666992 -1.33301 1.33398 -5.16602 2.00098 -11.499s1 -24.5 1 -54.5c0 -10.667 -0.833008 -22.5 -2.5 -35.5s-5.5 -26.167 -11.5 -39.5
c-7.33301 -17.333 -19.333 -34.166 -36 -50.499s-40.334 -30.5 -71.001 -42.5v-8c49.333 -20.667 81.833 -44.834 97.5 -72.501s23.5 -59.5 23.5 -95.5c0 -12.667 -0.333008 -24.667 -1 -36s-1 -22 -1 -32c-0.666992 -10.667 -1.33398 -20.667 -2.00098 -30
s-1 -18.333 -1 -27c0 -4.66699 0.5 -11.167 1.5 -19.5s3.83301 -17.5 8.5 -27.5c4.66699 -9.33301 12 -18.5 22 -27.5s24 -15.833 42 -20.5v-78c-2.66699 0.666992 -5.33398 1 -8.00098 1h-9c-8 0 -16 0.333008 -24 1s-16 1.66699 -24 3c-32 6 -61.333 21.333 -88 46
s-40 65.334 -40 122.001c0 9.33301 0.166992 18.5 0.5 27.5s0.833008 17.833 1.5 26.5c0 4.66699 0.166992 9.33398 0.5 14.001s0.5 9.33398 0.5 14.001c0.666992 4.66699 1 9.33398 1 14.001v14c0 42 -6.5 72.667 -19.5 92s-27.167 32.333 -42.5 39
c-6 2 -11.667 3.5 -17 4.5s-10.333 1.83301 -15 2.5v0z" />
    <glyph glyph-name="bar" unicode="|" horiz-adv-x="526" 
d="M200 -196v1053h126v-1053h-126v0z" />
    <glyph glyph-name="braceright" unicode="}" horiz-adv-x="527" 
d="M387 362v-98c-26.667 -2.66699 -46.5 -11.5 -59.5 -26.5s-21.833 -31.5 -26.5 -49.5c-3.33301 -12 -5.5 -23.5 -6.5 -34.5s-1.5 -20.167 -1.5 -27.5c0 -16.667 0.166992 -30.167 0.5 -40.5s0.833008 -18.833 1.5 -25.5c0 -2.66699 0.166992 -5 0.5 -7s0.5 -4 0.5 -6
c0 -4 0.166992 -8.5 0.5 -13.5s0.5 -10.833 0.5 -17.5c0 -50 -10.667 -87.167 -32 -111.5s-44.666 -40.833 -69.999 -49.5c-14 -4.66699 -27.833 -7.66699 -41.5 -9s-25.5 -2 -35.5 -2h-7.5h-6.5v76c18 5.33301 32 12.5 42 21.5s17.333 18.167 22 27.5
c4.66699 10 7.5 19.167 8.5 27.5s1.5 14.833 1.5 19.5c0 8.66699 -0.333008 17.667 -1 27s-1 19.333 -1 30c-0.666992 10 -1.33398 20.667 -2.00098 32s-1 23.333 -1 36c0 36 7.83301 67.833 23.5 95.5s48.167 51.834 97.5 72.501v8c-30.667 12 -54.334 26.167 -71.001 42.5
s-28.667 33.166 -36 50.499c-6 13.333 -9.83301 26.5 -11.5 39.5s-2.5 24.833 -2.5 35.5c0 30 0.333008 48.167 1 54.5s1.33398 10.166 2.00098 11.499v0v0c0 0.666992 0.333008 3.66699 1 9s1 21.666 1 48.999c0 4.66699 -0.5 11.334 -1.5 20.001s-3.5 17.667 -7.5 27
c-4.66699 10.667 -12 20.5 -22 29.5s-24.333 15.833 -43 20.5v77h8h8c8.66699 0 17.667 -0.5 27 -1.5s18.666 -2.5 27.999 -4.5c30.667 -7.33301 58.667 -23.333 84 -48s38 -64.334 38 -119.001c0 -10.667 -0.166992 -18.667 -0.5 -24s-0.5 -10 -0.5 -14
c-0.666992 -1.33301 -1 -2.33301 -1 -3v-3c-0.666992 -5.33301 -1.16699 -12.666 -1.5 -21.999s-0.5 -24 -0.5 -44c0 -41.333 6.33301 -71.666 19 -90.999s26.667 -32.333 42 -39c6 -2.66699 11.833 -4.5 17.5 -5.5s10.834 -1.83301 15.501 -2.5v0z" />
    <glyph glyph-name="asciitilde" unicode="~" horiz-adv-x="525" 
d="M365 742l105.003 -0.000976562v-2.5c0 -1 -0.333008 -2.16699 -1 -3.5c-3.33301 -34 -15.5 -65.167 -36.5 -93.5s-50.833 -42.5 -89.5 -42.5c-16.667 0 -31 1.66699 -43 5s-23 6.66602 -33 9.99902c-3.33301 1.33301 -6.5 2.5 -9.5 3.5s-6.16699 2.16699 -9.5 3.5
c-4 1.33301 -8 2.5 -12 3.5s-8 2.16699 -12 3.5c-4.66699 0.666992 -9 1.33398 -13 2.00098s-8 1 -12 1c-10.667 0 -19.167 -2.16699 -25.5 -6.5s-11.5 -11.833 -15.5 -22.5h-103c6 40.667 16.333 70.834 31 90.501s30 33.167 46 40.5c8.66699 4 17.167 6.66699 25.5 8
s16.166 2 23.499 2c8 0 15.167 -0.333008 21.5 -1s12.5 -1.66699 18.5 -3c8 -2 16.333 -4.5 25 -7.5l30 -10.5c9.33301 -3.33301 18.166 -6.16602 26.499 -8.49902s16.833 -3.5 25.5 -3.5c2 0 4.66699 0.333008 8 1s7 2 11 4c3.33301 2 6.66602 5.16699 9.99902 9.5
s6 10.166 8 17.499v0z" />
    <glyph glyph-name="exclamdown" unicode="&#xa1;" horiz-adv-x="683" 
d="M375 379l128.001 363h190l-241 -590c-30.667 -74.667 -65.834 -120.834 -105.501 -138.501s-81.167 -26.5 -124.5 -26.5c-18.667 0 -35.667 0.833008 -51 2.5s-30.333 4.16699 -45 7.5l-8 2c-2.66699 0.666992 -5.33398 1 -8.00098 1v144c10 -2.66699 21.333 -5 34 -7
s26.667 -3 42 -3c22.667 0 40.334 4.33301 53.001 13s22 18.334 28 29.001c3.33301 5.33301 6 10.5 8 15.5s3.33301 9.5 4 13.5l-275 537h209l162 -363v0zM152.001 924h116.998c0 -20.667 5.83301 -36 17.5 -46s24.5 -17 38.5 -21c6.66699 -1.33301 13 -2.33301 19 -3
s11.667 -1 17 -1c28.667 0 49.5 4.83301 62.5 14.5s21.5 20.167 25.5 31.5c1.33301 4 2.33301 8.16699 3 12.5s1 8.5 1 12.5h118c0 -2 -0.166992 -3.83301 -0.5 -5.5s-0.5 -3.5 -0.5 -5.5c-4 -34 -21.833 -65 -53.5 -93s-83.5 -42 -155.5 -42
c-73.333 0 -125.666 14.667 -156.999 44s-48.666 61.333 -51.999 96v3.5v2.5v0z" />
    <glyph glyph-name="cent" unicode="&#xa2;" horiz-adv-x="591" 
d="M101 -196l0.000976562 107.999c2 0 4 -0.333008 6 -1s4.33301 -1.33398 7 -2.00098c6 -1.33301 12.167 -2.16602 18.5 -2.49902s13.166 -0.5 20.499 -0.5c21.333 0 37.666 5.83301 48.999 17.5s21 30.834 29 57.501l8 25l-235 533h194l125 -351l97 351h171l-187 -568
c-16.667 -48.667 -37.167 -90.167 -61.5 -124.5s-67.166 -51.5 -128.499 -51.5h-14.5c-5 0 -9.83301 0.333008 -14.5 1c-12 0.666992 -23.5 1.5 -34.5 2.5s-20.833 2.16699 -29.5 3.5c-4 0.666992 -7.66699 1.16699 -11 1.5s-6.33301 0.833008 -9 1.5v-1zM105.001 741.999
h118.001c0.666992 -20.667 6.66699 -36 18 -46s24 -17 38 -21c6.66699 -1.33301 13 -2.33301 19 -3s11.667 -1 17 -1c28.667 0 49.5 4.83301 62.5 14.5s21.5 20.167 25.5 31.5c1.33301 4 2.33301 8.16699 3 12.5s1 8.5 1 12.5h118c0 -2 -0.166992 -3.83301 -0.5 -5.5
s-0.5 -3.5 -0.5 -5.5c-4.66699 -34 -23 -65 -55 -93s-83.333 -42 -154 -42c-59.333 0 -103.5 9.16699 -132.5 27.5s-49.167 38.833 -60.5 61.5c-5.33301 10 -9.33301 20 -12 30s-4.33398 19 -5.00098 27v0z" />
    <glyph glyph-name="sterling" unicode="&#xa3;" horiz-adv-x="588" 
d="M84 0l-0.00195312 168h175v-168c0 -56.667 -11.333 -98.167 -34 -124.5s-48 -43.833 -76 -52.5c-11.333 -4 -22.666 -6.66699 -33.999 -8s-21.666 -2 -30.999 -2v83c0.666992 0.666992 1.16699 1 1.5 1h1.5c22 1.33301 42.167 9.5 60.5 24.5s27.5 39.5 27.5 73.5v5h-91v0
zM328.998 0l-0.00195312 168h175v-168c0 -56.667 -11.333 -98.167 -34 -124.5s-48 -43.833 -76 -52.5c-11.333 -4 -22.666 -6.66699 -33.999 -8s-21.666 -2 -30.999 -2v83c0.666992 0.666992 1.16699 1 1.5 1h1.5c22 1.33301 42.167 9.5 60.5 24.5s27.5 39.5 27.5 73.5v5
h-91v0z" />
    <glyph glyph-name="currency" unicode="&#xa4;" horiz-adv-x="875" 
d="M70 56l118 118.002l-11 17c-4.66699 7.33301 -9.33398 16 -14.001 26c-8 16 -15.167 35.167 -21.5 57.5s-9.5 47.5 -9.5 75.5s3.16699 53.167 9.5 75.5s13.5 41.5 21.5 57.5c4.66699 10 9.33398 18.667 14.001 26l11 17l-118 118l70 70l117 -118
c7.33301 6 14.833 11.333 22.5 16s15.167 9 22.5 13c24.667 12.667 48.834 21 72.501 25s44.5 6 62.5 6s38.833 -2 62.5 -6s47.834 -12.333 72.501 -25c7.33301 -4 14.833 -8.33301 22.5 -13s15.167 -10 22.5 -16l118 118l70 -70l-118 -118
c3.33301 -4 7.16602 -9.5 11.499 -16.5s8.83301 -15.167 13.5 -24.5c7.33301 -16 14.333 -35.333 21 -58s10 -48.334 10 -77.001s-3.33301 -54.334 -10 -77.001s-13.667 -42 -21 -58c-4.66699 -9.33301 -9.16699 -17.5 -13.5 -24.5s-8.16602 -12.5 -11.499 -16.5l118 -118
l-70 -70l-118 118c-7.33301 -6 -14.833 -11.333 -22.5 -16s-15.167 -9 -22.5 -13c-24.667 -12.667 -48.834 -21 -72.501 -25s-44.5 -6 -62.5 -6s-38.833 2 -62.5 6s-47.834 12.333 -72.501 25c-7.33301 4 -14.833 8.33301 -22.5 13s-15.167 10 -22.5 16l-117 -118l-70 70v0z
M211 350.002c0 -62.667 22.3311 -116.166 66.998 -160.499s97.667 -66.5 159 -66.5c63.333 0 117 22.667 161 68s66 98.333 66 159c0 62.667 -22.667 116.167 -68 160.5s-98.333 66.5 -159 66.5c-8.66699 0 -17.667 -0.666992 -27 -2s-18.666 -3 -27.999 -5
c-11.333 -3.33301 -22.833 -7.5 -34.5 -12.5s-22.834 -10.833 -33.501 -17.5c-15.333 -10.667 -28.666 -21.834 -39.999 -33.501s-20.666 -23.5 -27.999 -35.5c-15.333 -23.333 -25 -46 -29 -68s-6 -39.667 -6 -53v0z" />
    <glyph glyph-name="yen" unicode="&#xa5;" horiz-adv-x="590" 
d="M254 598v-598h-175v742h334v168h154l9 -312h-322v0z" />
    <glyph glyph-name="brokenbar" unicode="&#xa6;" horiz-adv-x="526" 
d="M200 -196v1053h126v-1053h-126v0z" />
    <glyph glyph-name="section" unicode="&#xa7;" horiz-adv-x="654" 
d="M535 562l-130.002 0.00488281c-2.66699 33.333 -11.334 55 -26.001 65s-32 15 -52 15s-37.167 -5 -51.5 -15s-21.5 -25.667 -21.5 -47c0 -20 7.66699 -34.833 23 -44.5s35.333 -18.167 60 -25.5c5.33301 -1.33301 10.5 -2.83301 15.5 -4.5s10.167 -3.16699 15.5 -4.5
c4 -1.33301 8.16699 -2.5 12.5 -3.5s8.83301 -2.16699 13.5 -3.5c50.667 -14.667 97.334 -35.334 140.001 -62.001s64 -74.334 64 -143.001c0 -32 -5.66699 -59.167 -17 -81.5s-24 -40.5 -38 -54.5c-11.333 -10.667 -21.833 -19 -31.5 -25s-16.5 -10 -20.5 -12
c0.666992 -0.666992 1.5 -1.33398 2.5 -2.00098s1.83301 -1.33398 2.5 -2.00098c16 -14.667 28.333 -30.167 37 -46.5s13 -36.833 13 -61.5c0 -3.33301 -0.166992 -6.83301 -0.5 -10.5s-0.5 -7.5 -0.5 -11.5c-4.66699 -40.667 -23.834 -78.167 -57.501 -112.5
s-87.5 -51.5 -161.5 -51.5c-10.667 0 -25.667 0.833008 -45 2.5s-39.666 6.16699 -60.999 13.5c-30 11.333 -57.333 31.5 -82 60.5s-37 73.5 -37 133.5h133c0 -5.33301 0.333008 -11 1 -17s2 -12 4 -18c4 -14 12.5 -26.833 25.5 -38.5s33.5 -17.5 61.5 -17.5
c26 0 44.5 4.5 55.5 13.5s18.167 19.167 21.5 30.5c0.666992 3.33301 1.16699 6.83301 1.5 10.5s0.5 6.83398 0.5 9.50098c0 16.667 -4 29.5 -12 38.5s-22 17.167 -42 24.5c-9.33301 3.33301 -20 6.83301 -32 10.5l-41 12.5c-55.333 16.667 -106.166 38.334 -152.499 65.001
s-69.5 77.334 -69.5 152.001c0 43.333 11.167 78.666 33.5 105.999s47.5 45.666 75.5 54.999l-4 4l-4 4c-14.667 15.333 -25.5 31.333 -32.5 48s-10.5 37 -10.5 61c0 7.33301 0.5 14.833 1.5 22.5s2.5 15.5 4.5 23.5c8.66699 31.333 28.834 60.166 60.501 86.499
s80.167 39.5 145.5 39.5c82 0 137.333 -18.833 166 -56.5s43 -79.834 43 -126.501v-4.5v-4.5v0zM281.998 228.005l126.002 -37c1.33301 0.666992 2.83301 1.16699 4.5 1.5s3.5 0.833008 5.5 1.5c13.333 4.66699 25.666 13 36.999 25s17 28.667 17 50
c0 16.667 -6.5 32.667 -19.5 48s-39.167 29 -78.5 41l-125 38c-18.667 -6.66699 -33.834 -15.834 -45.501 -27.501s-17.5 -28.167 -17.5 -49.5c0 -20 5.83301 -36 17.5 -48s24.5 -21.333 38.5 -28c7.33301 -4 14.5 -7.16699 21.5 -9.5s13.167 -4.16602 18.5 -5.49902v0z" />
    <glyph glyph-name="dieresis" unicode="&#xa8;" horiz-adv-x="699" 
d="M254 447h363v-136h-363v-167h421v-144h-596v742h587v-144h-412v-151v0zM181 812v112h140v-112h-140v0zM433 812v112h140v-112h-140v0z" />
    <glyph glyph-name="copyright" unicode="&#xa9;" horiz-adv-x="854" 
d="M56 371c0 104 36.5 191.833 109.5 263.5s160.167 107.5 261.5 107.5c100 0 186.833 -35.833 260.5 -107.5s110.5 -159.5 110.5 -263.5c0 -100.667 -36 -187.667 -108 -261s-159.667 -110 -263 -110c-102 0 -189.333 36 -262 108s-109 159.667 -109 263v0zM145 371
c0 -80.667 27.333 -150 82 -208s121.334 -87 200.001 -87s145.167 29 199.5 87s81.5 127.333 81.5 208s-27.167 150 -81.5 208s-120.833 87 -199.5 87s-145.334 -29 -200.001 -87s-82 -127.333 -82 -208v0zM584 315c-6 -38.667 -17.668 -67.1689 -35.001 -85.502
s-35.666 -31.166 -54.999 -38.499c-11.333 -4 -22.5 -6.5 -33.5 -7.5s-20.833 -1.5 -29.5 -1.5c-48.667 0 -85.167 11 -109.5 33s-41.5 46.333 -51.5 73c-6 16 -10 31.5 -12 46.5s-3 27.5 -3 37.5c0 8 0.333008 16.167 1 24.5s1.66699 16.5 3 24.5
c6 37.333 21.5 71.666 46.5 102.999s65.5 47 121.5 47c41.333 0 72.166 -7.5 92.499 -22.5s34.833 -31.5 43.5 -49.5c4 -8.66699 6.83301 -17.5 8.5 -26.5s2.83398 -16.833 3.50098 -23.5h-83l-1 8c-0.666992 5.33301 -3 11.333 -7 18s-10.333 12.667 -19 18
s-21.334 8 -38.001 8c-28 0 -47.5 -11.167 -58.5 -33.5s-17.167 -47.166 -18.5 -74.499c-0.666992 -3.33301 -1 -6.83301 -1 -10.5v-10.5c0 -40.667 7.33301 -70 22 -88s31 -28.333 49 -31c2 -0.666992 4 -1 6 -1h6c19.333 0 34.833 6.33301 46.5 19
s17.834 27.334 18.501 44.001h87v0z" />
    <glyph glyph-name="ordfeminine" unicode="&#xaa;" horiz-adv-x="813" 
d="M558 441v-136h-324c2 -55.333 14.167 -95.666 36.5 -120.999s46.5 -42.333 72.5 -51c14 -4 27.5 -6.66699 40.5 -8s24.5 -2 34.5 -2c2.66699 0 12.667 0.666992 30 2s36 6 56 14c17.333 7.33301 33.666 17.833 48.999 31.5s26.333 32.5 33 56.5h185
c-15.333 -66 -40.666 -116.167 -75.999 -150.5s-72.666 -58.833 -111.999 -73.5c-31.333 -10.667 -61.833 -17.334 -91.5 -20.001s-54.167 -4 -73.5 -4c-20.667 0 -44.834 1.5 -72.501 4.5s-56.167 9.16699 -85.5 18.5c-54 19.333 -103.333 56.833 -148 112.5
s-67 144.5 -67 266.5c0 116 32 208.333 96 277s160.333 103 289 103c107.333 0 188.333 -25.167 243 -75.5s85.334 -105.833 92.001 -166.5v-1.5v-1.5h-182c-6 25.333 -17 44.833 -33 58.5s-33 23.5 -51 29.5c-16.667 6 -32.5 9.5 -47.5 10.5s-26.167 1.5 -33.5 1.5
s-19.333 -0.833008 -36 -2.5s-34.334 -6.5 -53.001 -14.5c-22.667 -10 -43.667 -27 -63 -51s-30 -59.667 -32 -107h324v0z" />
    <glyph glyph-name="guillemotleft" unicode="&#xab;" horiz-adv-x="494" 
d="M261 358l159 143v-145l-87 -72l87 -75v-146l-159 145v150v0zM60 358l159 145v-146l-87 -73l87 -74v-146l-159 144v150v0z" />
    <glyph glyph-name="logicalnot" unicode="&#xac;" horiz-adv-x="712" 
d="M56 413h600v-184h-90v100h-510v84v0z" />
    <glyph glyph-name="sfthyphen" unicode="&#xad;" horiz-adv-x="500" 
 />
    <glyph glyph-name="registered" unicode="&#xae;" horiz-adv-x="854" 
d="M56 371c0 104 36.833 191.833 110.5 263.5s160.5 107.5 260.5 107.5c101.333 0 188.5 -35.833 261.5 -107.5s109.5 -159.5 109.5 -263.5c0 -103.333 -36.333 -191 -109 -263s-160 -108 -262 -108c-103.333 0 -191 36.667 -263 110s-108 160.333 -108 261v0zM146 371
c0 -83.333 27.667 -153.333 83 -210s121.333 -85 198 -85c79.333 0 146.166 29 200.499 87s81.5 127.333 81.5 208s-27.167 150 -81.5 208s-121.166 87 -200.499 87c-76.667 0 -142.667 -28.333 -198 -85s-83 -126.667 -83 -210v0zM292 189l0.000976562 371.003h164
c32.667 0 61.167 -6.33301 85.5 -19s36.5 -39.667 36.5 -81c0 -22 -4.16699 -39.5 -12.5 -52.5s-17.833 -22.5 -28.5 -28.5c-4 -2.66699 -7.83301 -4.83398 -11.5 -6.50098s-7.16699 -3.16699 -10.5 -4.5v-1c23.333 -6.66699 38 -16.834 44 -30.501s9 -29.167 9 -46.5v-11.5
v-10.5c-0.666992 -4 -1 -7.83301 -1 -11.5v-11.5c0 -10.667 1.16699 -20.834 3.5 -30.501s6.83301 -18.167 13.5 -25.5h-91l-1.5 1.5c-0.333008 0.333008 -0.5 0.833008 -0.5 1.5c-4.66699 6 -7.66699 13.333 -9 22s-2.33301 22.667 -3 42
c0 25.333 -3.83301 44.833 -11.5 58.5s-30.834 20.5 -69.501 20.5h-18v-146h-88v0zM380.001 495.003l0.00292969 -95.0029h46c17.333 0 30.166 2.83301 38.499 8.5s14.166 11.834 17.499 18.501c2 4 3.33301 8 4 12s1 7.33301 1 10c0 16.667 -6.83301 28.334 -20.5 35.001
s-28.834 10.334 -45.501 11.001h-1.5h-1.5h-38v0z" />
    <glyph glyph-name="overstore" unicode="&#xaf;" 
 />
    <glyph glyph-name="degree" unicode="&#xb0;" horiz-adv-x="316" 
d="M39 641v6.5c0 2.33301 0.333008 4.5 1 6.5c2.66699 26.667 14.5 51 35.5 73s48.5 33 82.5 33c32 0 59.833 -11.5 83.5 -34.5s35.5 -51.167 35.5 -84.5c0 -34 -11.5 -62.333 -34.5 -85s-51.167 -34 -84.5 -34c-32.667 0 -58.5 9.33301 -77.5 28s-31.5 39 -37.5 61
c-1.33301 5.33301 -2.33301 10.5 -3 15.5s-1 9.83301 -1 14.5v0zM102 641c0 -16 5.33301 -29.333 16 -40s24 -16 40 -16c14.667 0 26.5 4.33301 35.5 13s15.167 18 18.5 28c0.666992 2.66699 1.16699 5.16699 1.5 7.5s0.5 4.83301 0.5 7.5c0 14.667 -5.5 27.667 -16.5 39
s-24.167 17 -39.5 17c-2.66699 0 -5.16699 -0.166992 -7.5 -0.5s-4.83301 -0.833008 -7.5 -1.5c-10 -3.33301 -19.333 -9.5 -28 -18.5s-13 -20.833 -13 -35.5v0z" />
    <glyph glyph-name="plusminus" unicode="&#xb1;" horiz-adv-x="672" 
d="M70 42v84h532v-84h-532v0zM381 175h-84v136h-227v84h227v168h84v-168h221v-84h-221v-136v0z" />
    <glyph glyph-name="twosuperior" unicode="&#xb2;" horiz-adv-x="332" 
d="M78 742h175v-742h-175v742v0zM68 809v115h196v-115h-196v0z" />
    <glyph glyph-name="threesuperior" unicode="&#xb3;" horiz-adv-x="290" 
d="M65 539h161v-539h-161v539v0zM62 616v126h166v-126h-166v0z" />
    <glyph glyph-name="acute" unicode="&#xb4;" horiz-adv-x="302" 
d="M145 742h169l-112 -140h-130l73 140v0z" />
    <glyph glyph-name="mu" unicode="&#xb5;" horiz-adv-x="492" 
d="M229 427v-427h-164v539h287v140h118l8 -252h-249v0z" />
    <glyph glyph-name="paragraph" unicode="&#xb6;" horiz-adv-x="582" 
d="M203 -196l-0.00292969 588c-51.333 1.33301 -91.666 17.5 -120.999 48.5s-46.666 64.833 -51.999 101.5c-0.666992 4 -1.16699 8.16699 -1.5 12.5s-0.5 8.5 -0.5 12.5v7c0 2.66699 0.333008 5 1 7c2.66699 39.333 18.834 75.5 48.501 108.5s71.5 50.5 125.5 52.5h126
v-938h-126v0zM412.997 -196v938h126v-938h-126v0z" />
    <glyph glyph-name="middot" unicode="&#xb7;" 
 />
    <glyph glyph-name="cedilla" unicode="&#xb8;" horiz-adv-x="656" 
d="M443 156h163c-2.66699 -9.33301 -6.16699 -19.666 -10.5 -30.999s-10.166 -23 -17.499 -35c-17.333 -26.667 -45.333 -51.167 -84 -73.5s-94.334 -33.5 -167.001 -33.5c-96.667 0 -168.834 26.167 -216.501 78.5s-71.5 121.833 -71.5 208.5
c0 95.333 28.833 166.833 86.5 214.5s128.834 71.5 213.501 71.5c102 0 173.833 -30 215.5 -90s62.5 -128.667 62.5 -206v-24h-412v-8c0 -2.66699 0.333008 -5.33398 1 -8.00098c2 -34 13 -65.167 33 -93.5s51.667 -42.5 95 -42.5h3.5h3.5
c22.667 1.33301 44 7.83301 64 19.5s32.667 29.167 38 52.5v0zM205 320l246.002 0.000976562c-0.666992 38.667 -7.83398 67.5 -21.501 86.5s-28.5 31.833 -44.5 38.5c-8.66699 3.33301 -17.334 5.66602 -26.001 6.99902s-16 2 -22 2c-34 0 -60 -8 -78 -24
s-31.333 -33.667 -40 -53c-4.66699 -10.667 -8 -21 -10 -31s-3.33301 -18.667 -4 -26v0zM98.002 616.001v126h167v-126h-167v0zM391.002 616.001v126h167v-126h-167v0z" />
    <glyph glyph-name="onesuperior" unicode="&#xb9;" horiz-adv-x="1229" 
d="M257 464h-3v-464h-175v742h178l292 -461h3v461h175v-742h-177l-293 464v0zM806 0v126h372v-126h-372v0zM797 396c0 9.33301 0.5 19.168 1.5 29.501s2.83301 20.833 5.5 31.5c8.66699 38 27.5 72.667 56.5 104s72.833 47 131.5 47c52.667 0 92.667 -12.167 120 -36.5
s46.666 -50.833 57.999 -79.5c6.66699 -18.667 11.167 -36.5 13.5 -53.5s3.5 -31.167 3.5 -42.5c0 -66.667 -15.5 -115.834 -46.5 -147.501s-65.167 -51.5 -102.5 -59.5c-7.33301 -2 -15 -3.33301 -23 -4s-15.667 -1 -23 -1c-8.66699 0 -17.5 0.5 -26.5 1.5
s-18.167 2.83301 -27.5 5.5c-35.333 9.33301 -67.666 29.833 -96.999 61.5s-44 79.5 -44 143.5v0zM923 396.002c0 -28.667 5.33105 -54.834 15.998 -78.501s28.334 -35.5 53.001 -35.5s42.334 11.833 53.001 35.5s16 49.834 16 78.501c0 32 -4.5 56.167 -13.5 72.5
s-18.833 27.833 -29.5 34.5c-4.66699 2.66699 -9.16699 4.5 -13.5 5.5s-8.5 1.5 -12.5 1.5s-8.16699 -0.5 -12.5 -1.5s-8.83301 -2.83301 -13.5 -5.5c-10.667 -6.66699 -20.5 -18.167 -29.5 -34.5s-13.5 -40.5 -13.5 -72.5v0z" />
    <glyph glyph-name="ordmasculine" unicode="&#xba;" horiz-adv-x="637" 
d="M416 321l0.00292969 -98.0029h-215c1.33301 -39.333 8.83301 -68.666 22.5 -87.999s28.834 -32.666 45.501 -39.999c11.333 -5.33301 22.333 -8.66602 33 -9.99902s19 -2 25 -2c6.66699 0 14.667 0.5 24 1.5s18.666 2.83301 27.999 5.5
c14.667 5.33301 28.334 14 41.001 26s21.667 30.333 27 55h154c-11.333 -52.667 -31.5 -92 -60.5 -118s-59.5 -44 -91.5 -54c-22.667 -7.33301 -44.834 -12 -66.501 -14s-40.167 -3 -55.5 -3c-86.667 0 -156.334 23.167 -209.001 69.5s-79 116.833 -79 211.5
c0 86.667 17 150.334 51 191.001s71.333 68.334 112 83.001c24 8.66699 47.167 14.167 69.5 16.5s41.5 3.5 57.5 3.5c76 0 132.833 -12.667 170.5 -38s63.834 -53.333 78.501 -84c5.33301 -10.667 9.66602 -21.5 12.999 -32.5s5.66602 -21.167 6.99902 -30.5h-150
c-4 27.333 -16.833 47.666 -38.5 60.999s-45.5 20.666 -71.5 21.999h-4.5h-4.5c-36.667 0 -64 -8.66699 -82 -26s-30.333 -36.333 -37 -57c-2.66699 -8.66699 -4.83398 -17.5 -6.50098 -26.5s-2.5 -17.167 -2.5 -24.5h215v0z" />
    <glyph glyph-name="guillemotright" unicode="&#xbb;" horiz-adv-x="493" 
d="M232 356v-149l-158 -144v144l86 73l-86 74v146l158 -144v0zM433 358v-150l-159 -144v144l87 74l-87 74v147l159 -145v0z" />
    <glyph glyph-name="onequarter" unicode="&#xbc;" horiz-adv-x="672" 
d="M273 170c0 17.333 5.00098 31.1699 15.001 41.5029s21.333 16.833 34 19.5c2 0.666992 4.33301 1.16699 7 1.5s5 0.5 7 0.5c17.333 0 32 -6.33301 44 -19s18 -27.334 18 -44.001c0 -2.66699 -0.166992 -5.33398 -0.5 -8.00098s-0.833008 -5.33398 -1.5 -8.00098
c-3.33301 -11.333 -10 -21.833 -20 -31.5s-23.333 -14.5 -40 -14.5c-18.667 0 -33.834 6.16699 -45.501 18.5s-17.5 26.833 -17.5 43.5v0zM70.001 312.004v84h532v-84h-532v0zM273.001 535.004c0 16.667 4.83301 30 14.5 40s20.167 16.667 31.5 20
c2.66699 1.33301 5.5 2.16602 8.5 2.49902s5.83301 0.5 8.5 0.5c16 0 30.333 -6.16699 43 -18.5s19 -27.166 19 -44.499c0 -16 -6 -30.333 -18 -43s-26.667 -19 -44 -19c-2 0 -4.33301 0.166992 -7 0.5s-5 0.833008 -7 1.5c-12.667 2.66699 -24 9 -34 19s-15 23.667 -15 41
v0z" />
    <glyph glyph-name="onehalf" unicode="&#xbd;" horiz-adv-x="742" 
d="M119 178l193 193l-193 193l59 59l193 -193l193 193l59 -59l-193 -193l193 -193l-59 -59l-193 193l-193 -193l-59 59v0z" />
    <glyph glyph-name="threequarters" unicode="&#xbe;" horiz-adv-x="1197" 
d="M112 0v168h175v-168h-175v0zM511 0v168h175v-168h-175v0zM910 0v168h175v-168h-175v0z" />
    <glyph glyph-name="questiondown" unicode="&#xbf;" horiz-adv-x="386" 
d="M113 539h161v-539h-161v539v0zM30 616v126h130v-126h-130v0zM226 616v126h130v-126h-130v0z" />
    <glyph glyph-name="Agrave" unicode="&#xc0;" horiz-adv-x="714" 
d="M268 742h177l279 -742h-185l-48 139h-269l-47 -139h-185l278 742v0zM260 265h193l-96 283l-97 -283v0z" />
    <glyph glyph-name="Agrave" unicode="&#x410;" horiz-adv-x="714" 
d="M268 742h177l279 -742h-185l-48 139h-269l-47 -139h-185l278 742v0zM260 265h193l-96 283l-97 -283v0z" />
    <glyph glyph-name="Aacute" unicode="&#xc1;" horiz-adv-x="751" 
d="M254 598l0.000976562 -135.998h180c88.667 0 152.167 -16.333 190.5 -49s63.166 -68.667 74.499 -108c4 -14 6.66699 -28 8 -42s2 -27 2 -39c0 -12.667 -1.16699 -26.834 -3.5 -42.501s-6.83301 -31.834 -13.5 -48.501c-13.333 -33.333 -39.333 -63.833 -78 -91.5
s-98.667 -41.5 -180 -41.5h-355v742h577v-144h-402v0zM254.001 326.002v-190.001h142c36.667 0 67.667 6.16699 93 18.5s38 36.833 38 73.5c0 30 -7.5 51.667 -22.5 65s-31.167 22.333 -48.5 27c-10.667 2.66699 -21 4.33398 -31 5.00098s-18.333 1 -25 1h-146v0z" />
    <glyph glyph-name="Aacute" unicode="&#x411;" horiz-adv-x="751" 
d="M254 598l0.000976562 -135.998h180c88.667 0 152.167 -16.333 190.5 -49s63.166 -68.667 74.499 -108c4 -14 6.66699 -28 8 -42s2 -27 2 -39c0 -12.667 -1.16699 -26.834 -3.5 -42.501s-6.83301 -31.834 -13.5 -48.501c-13.333 -33.333 -39.333 -63.833 -78 -91.5
s-98.667 -41.5 -180 -41.5h-355v742h577v-144h-402v0zM254.001 326.002v-190.001h142c36.667 0 67.667 6.16699 93 18.5s38 36.833 38 73.5c0 30 -7.5 51.667 -22.5 65s-31.167 22.333 -48.5 27c-10.667 2.66699 -21 4.33398 -31 5.00098s-18.333 1 -25 1h-146v0z" />
    <glyph glyph-name="Acircumflex" unicode="&#xc2;" horiz-adv-x="768" 
d="M79 742h372.999c66 0 114.833 -10.667 146.5 -32s53.5 -44.666 65.5 -69.999c8 -17.333 12.833 -33.833 14.5 -49.5s2.5 -28.167 2.5 -37.5c0 -34 -7.16699 -61.333 -21.5 -82s-30.166 -36.667 -47.499 -48c-10 -6.66699 -19.667 -11.834 -29 -15.501
s-17.333 -6.5 -24 -8.5v-2c2.66699 -0.666992 5.33398 -1.16699 8.00098 -1.5s5.33398 -0.833008 8.00098 -1.5c35.333 -9.33301 67.833 -28.666 97.5 -57.999s44.5 -72 44.5 -128c0 -64.667 -16.833 -111.334 -50.5 -140.001s-70.834 -47.667 -111.501 -57
c-22.667 -5.33301 -44.834 -8.5 -66.501 -9.5s-40.167 -1.5 -55.5 -1.5h-354v742v0zM253.999 313v-177h182c5.33301 0 11.5 0.5 18.5 1.5s14.5 3.16699 22.5 6.5c13.333 5.33301 25.833 14.5 37.5 27.5s17.5 31.833 17.5 56.5c0 36.667 -12.167 60 -36.5 70
s-50.833 15 -79.5 15h-1.5h-1.5h-159v0zM253.999 606l0.000976562 -157h162c3.33301 0 6.66602 0.166992 9.99902 0.5s6.66602 0.833008 9.99902 1.5c16.667 2.66699 31.834 10 45.501 22s20.5 29.667 20.5 53c0 28 -8.33301 47.833 -25 59.5s-35 18.167 -55 19.5
c-2 0.666992 -4.16699 1 -6.5 1h-7.5h-154v0z" />
    <glyph glyph-name="Acircumflex" unicode="&#x412;" horiz-adv-x="768" 
d="M79 742h372.999c66 0 114.833 -10.667 146.5 -32s53.5 -44.666 65.5 -69.999c8 -17.333 12.833 -33.833 14.5 -49.5s2.5 -28.167 2.5 -37.5c0 -34 -7.16699 -61.333 -21.5 -82s-30.166 -36.667 -47.499 -48c-10 -6.66699 -19.667 -11.834 -29 -15.501
s-17.333 -6.5 -24 -8.5v-2c2.66699 -0.666992 5.33398 -1.16699 8.00098 -1.5s5.33398 -0.833008 8.00098 -1.5c35.333 -9.33301 67.833 -28.666 97.5 -57.999s44.5 -72 44.5 -128c0 -64.667 -16.833 -111.334 -50.5 -140.001s-70.834 -47.667 -111.501 -57
c-22.667 -5.33301 -44.834 -8.5 -66.501 -9.5s-40.167 -1.5 -55.5 -1.5h-354v742v0zM253.999 313v-177h182c5.33301 0 11.5 0.5 18.5 1.5s14.5 3.16699 22.5 6.5c13.333 5.33301 25.833 14.5 37.5 27.5s17.5 31.833 17.5 56.5c0 36.667 -12.167 60 -36.5 70
s-50.833 15 -79.5 15h-1.5h-1.5h-159v0zM253.999 606l0.000976562 -157h162c3.33301 0 6.66602 0.166992 9.99902 0.5s6.66602 0.833008 9.99902 1.5c16.667 2.66699 31.834 10 45.501 22s20.5 29.667 20.5 53c0 28 -8.33301 47.833 -25 59.5s-35 18.167 -55 19.5
c-2 0.666992 -4.16699 1 -6.5 1h-7.5h-154v0z" />
    <glyph glyph-name="Atilde" unicode="&#xc3;" horiz-adv-x="590" 
d="M254 598v-598h-175v742h497v-144h-322v0z" />
    <glyph glyph-name="Atilde" unicode="&#x413;" horiz-adv-x="590" 
d="M254 598v-598h-175v742h497v-144h-322v0z" />
    <glyph glyph-name="Adieresis" unicode="&#xc4;" horiz-adv-x="842" 
d="M723 144h105l-9 -312h-154v168h-502v-168h-154l-9 312h73c40 57.333 68.167 120 84.5 188s24.833 147.333 25.5 238l2 172h538v-598v0zM548 598l-198 -0.000976562l-1 -88c-0.666992 -74 -6.66699 -140.167 -18 -198.5s-34 -114.166 -68 -167.499h285v454v0z" />
    <glyph glyph-name="Adieresis" unicode="&#x414;" horiz-adv-x="842" 
d="M723 144h105l-9 -312h-154v168h-502v-168h-154l-9 312h73c40 57.333 68.167 120 84.5 188s24.833 147.333 25.5 238l2 172h538v-598v0zM548 598l-198 -0.000976562l-1 -88c-0.666992 -74 -6.66699 -140.167 -18 -198.5s-34 -114.166 -68 -167.499h285v454v0z" />
    <glyph glyph-name="Aring" unicode="&#xc5;" horiz-adv-x="700" 
d="M254 447h363v-136h-363v-167h422v-144h-597v742h587v-144h-412v-151v0z" />
    <glyph glyph-name="Aring" unicode="&#x415;" horiz-adv-x="700" 
d="M254 447h363v-136h-363v-167h422v-144h-597v742h587v-144h-412v-151v0z" />
    <glyph glyph-name="AE" unicode="&#xc6;" horiz-adv-x="1045" 
d="M435 0v336h-3l-231 -336h-211l298 397l-289 345h206l227 -302h3v302h175v-302h3l227 302h206l-289 -345l298 -397h-212l-230 336h-3v-336h-175v0z" />
    <glyph glyph-name="AE" unicode="&#x416;" horiz-adv-x="1045" 
d="M435 0v336h-3l-231 -336h-211l298 397l-289 345h206l227 -302h3v302h175v-302h3l227 302h206l-289 -345l298 -397h-212l-230 336h-3v-336h-175v0z" />
    <glyph glyph-name="Ccedilla" unicode="&#xc7;" horiz-adv-x="770" 
d="M37 255l170.003 0.000976562c1.33301 -44 13.166 -75.667 35.499 -95s46.5 -32 72.5 -38c12 -2.66699 23.833 -4.33398 35.5 -5.00098s22.167 -1 31.5 -1c48 0 82.667 7.5 104 22.5s35 31.833 41 50.5c2 5.33301 3.33301 10.666 4 15.999s1 10.666 1 15.999
c0 28 -7.83301 48.333 -23.5 61s-32.834 20.667 -51.501 24c-9.33301 2 -18.5 3.33301 -27.5 4s-17.167 1 -24.5 1h-105v136h87c6.66699 0 14.667 0.333008 24 1s19 2 29 4c17.333 4 33.166 11.667 47.499 23s21.5 29.666 21.5 54.999c0 32 -12.5 54.833 -37.5 68.5
s-52.833 21.834 -83.5 24.501c-4 0.666992 -7.83301 1 -11.5 1h-11.5c-7.33301 0 -15.833 -0.333008 -25.5 -1s-19.5 -2.33398 -29.5 -5.00098c-19.333 -6 -37.333 -17.5 -54 -34.5s-25.667 -44.5 -27 -82.5h-171c4.66699 89.333 33.334 154.833 86.001 196.5
s132.667 62.5 240 62.5c101.333 0 173.833 -14.667 217.5 -44s71.834 -61.333 84.501 -96c3.33301 -11.333 5.83301 -22.666 7.5 -33.999s2.5 -22 2.5 -32c0 -9.33301 -0.833008 -20.666 -2.5 -33.999s-5.83398 -27.333 -12.501 -42c-8.66699 -18 -22.5 -35 -41.5 -51
s-46.5 -28 -82.5 -36v-2c59.333 -10.667 101.166 -32.5 125.499 -65.5s36.5 -73.833 36.5 -122.5c0 -67.333 -20.5 -116.166 -61.5 -146.499s-86.167 -50.166 -135.5 -59.499c-26.667 -6 -53 -9.66699 -79 -11s-48.333 -2 -67 -2s-39.5 0.666992 -62.5 2
s-46.5 4.66602 -70.5 9.99902c-50 11.333 -96 35.833 -138 73.5s-64.667 100.167 -68 187.5v0z" />
    <glyph glyph-name="Ccedilla" unicode="&#x417;" horiz-adv-x="770" 
d="M37 255l170.003 0.000976562c1.33301 -44 13.166 -75.667 35.499 -95s46.5 -32 72.5 -38c12 -2.66699 23.833 -4.33398 35.5 -5.00098s22.167 -1 31.5 -1c48 0 82.667 7.5 104 22.5s35 31.833 41 50.5c2 5.33301 3.33301 10.666 4 15.999s1 10.666 1 15.999
c0 28 -7.83301 48.333 -23.5 61s-32.834 20.667 -51.501 24c-9.33301 2 -18.5 3.33301 -27.5 4s-17.167 1 -24.5 1h-105v136h87c6.66699 0 14.667 0.333008 24 1s19 2 29 4c17.333 4 33.166 11.667 47.499 23s21.5 29.666 21.5 54.999c0 32 -12.5 54.833 -37.5 68.5
s-52.833 21.834 -83.5 24.501c-4 0.666992 -7.83301 1 -11.5 1h-11.5c-7.33301 0 -15.833 -0.333008 -25.5 -1s-19.5 -2.33398 -29.5 -5.00098c-19.333 -6 -37.333 -17.5 -54 -34.5s-25.667 -44.5 -27 -82.5h-171c4.66699 89.333 33.334 154.833 86.001 196.5
s132.667 62.5 240 62.5c101.333 0 173.833 -14.667 217.5 -44s71.834 -61.333 84.501 -96c3.33301 -11.333 5.83301 -22.666 7.5 -33.999s2.5 -22 2.5 -32c0 -9.33301 -0.833008 -20.666 -2.5 -33.999s-5.83398 -27.333 -12.501 -42c-8.66699 -18 -22.5 -35 -41.5 -51
s-46.5 -28 -82.5 -36v-2c59.333 -10.667 101.166 -32.5 125.499 -65.5s36.5 -73.833 36.5 -122.5c0 -67.333 -20.5 -116.166 -61.5 -146.499s-86.167 -50.166 -135.5 -59.499c-26.667 -6 -53 -9.66699 -79 -11s-48.333 -2 -67 -2s-39.5 0.666992 -62.5 2
s-46.5 4.66602 -70.5 9.99902c-50 11.333 -96 35.833 -138 73.5s-64.667 100.167 -68 187.5v0z" />
    <glyph glyph-name="Egrave" unicode="&#xc8;" horiz-adv-x="804" 
d="M254 263l296 479h175v-742h-175v484l-296 -484h-175v742h175v-479v0z" />
    <glyph glyph-name="Egrave" unicode="&#x418;" horiz-adv-x="804" 
d="M254 263l296 479h175v-742h-175v484l-296 -484h-175v742h175v-479v0z" />
    <glyph glyph-name="Eacute" unicode="&#xc9;" horiz-adv-x="804" 
d="M254 263l296 479h175v-742h-175v484l-296 -484h-175v742h175v-479v0zM192 924h118.004c0 -20.667 5.66699 -36 17 -46s24 -16.667 38 -20c6.66699 -2 13.167 -3.33301 19.5 -4s12.166 -1 17.499 -1s11.166 0.333008 17.499 1s12.833 2 19.5 4
c13.333 3.33301 25.666 10 36.999 20s17.333 25.333 18 46h118c-0.666992 -8 -2.33398 -17 -5.00098 -27s-6.66699 -20 -12 -30c-12 -22.667 -32.5 -43.167 -61.5 -61.5s-72.833 -27.5 -131.5 -27.5c-71.333 0 -123 14 -155 42s-50 59 -54 93
c0 2 -0.166992 3.83301 -0.5 5.5s-0.5 3.5 -0.5 5.5v0z" />
    <glyph glyph-name="Eacute" unicode="&#x419;" horiz-adv-x="804" 
d="M254 263l296 479h175v-742h-175v484l-296 -484h-175v742h175v-479v0zM192 924h118.004c0 -20.667 5.66699 -36 17 -46s24 -16.667 38 -20c6.66699 -2 13.167 -3.33301 19.5 -4s12.166 -1 17.499 -1s11.166 0.333008 17.499 1s12.833 2 19.5 4
c13.333 3.33301 25.666 10 36.999 20s17.333 25.333 18 46h118c-0.666992 -8 -2.33398 -17 -5.00098 -27s-6.66699 -20 -12 -30c-12 -22.667 -32.5 -43.167 -61.5 -61.5s-72.833 -27.5 -131.5 -27.5c-71.333 0 -123 14 -155 42s-50 59 -54 93
c0 2 -0.166992 3.83301 -0.5 5.5s-0.5 3.5 -0.5 5.5v0z" />
    <glyph glyph-name="Ecircumflex" unicode="&#xca;" horiz-adv-x="724" 
d="M257 430l254 312h206l-298 -339l315 -403h-215l-262 363h-3v-363h-175v742h175v-312h3v0z" />
    <glyph glyph-name="Ecircumflex" unicode="&#x41a;" horiz-adv-x="724" 
d="M257 430l254 312h206l-298 -339l315 -403h-215l-262 363h-3v-363h-175v742h175v-312h3v0z" />
    <glyph glyph-name="Edieresis" unicode="&#xcb;" horiz-adv-x="820" 
d="M14 0l-0.00292969 144.001c6 -0.666992 11.833 -1.16699 17.5 -1.5s10.834 -0.5 15.501 -0.5c60 0 98.167 22.833 114.5 68.5s24.833 104.834 25.5 177.501l5 354h549v-742h-175v598h-209l-5 -259c-0.666992 -18.667 -1.66699 -41.334 -3 -68.001
s-5.66602 -54.334 -12.999 -83.001c-12.667 -48 -37.667 -92 -75 -132s-97.666 -60 -180.999 -60c-10 0 -20.5 0.5 -31.5 1.5s-22.5 1.83301 -34.5 2.5v0z" />
    <glyph glyph-name="Edieresis" unicode="&#x41b;" horiz-adv-x="820" 
d="M14 0l-0.00292969 144.001c6 -0.666992 11.833 -1.16699 17.5 -1.5s10.834 -0.5 15.501 -0.5c60 0 98.167 22.833 114.5 68.5s24.833 104.834 25.5 177.501l5 354h549v-742h-175v598h-209l-5 -259c-0.666992 -18.667 -1.66699 -41.334 -3 -68.001
s-5.66602 -54.334 -12.999 -83.001c-12.667 -48 -37.667 -92 -75 -132s-97.666 -60 -180.999 -60c-10 0 -20.5 0.5 -31.5 1.5s-22.5 1.83301 -34.5 2.5v0z" />
    <glyph glyph-name="Igrave" unicode="&#xcc;" horiz-adv-x="1004" 
d="M443 0l-186 530h-3v-530h-175v742h246l177 -510l177 510h246v-742h-175v530h-3l-186 -530h-118v0z" />
    <glyph glyph-name="Igrave" unicode="&#x41c;" horiz-adv-x="1004" 
d="M443 0l-186 530h-3v-530h-175v742h246l177 -510l177 510h246v-742h-175v530h-3l-186 -530h-118v0z" />
    <glyph glyph-name="Iacute" unicode="&#xcd;" horiz-adv-x="778" 
d="M254 319v-319h-175v742h175v-279h270v279h175v-742h-175v319h-270v0z" />
    <glyph glyph-name="Iacute" unicode="&#x41d;" horiz-adv-x="778" 
d="M254 319v-319h-175v742h175v-279h270v279h175v-742h-175v319h-270v0z" />
    <glyph glyph-name="Icircumflex" unicode="&#xce;" horiz-adv-x="840" 
d="M420 -21c-136 0.666992 -232.5 41.001 -289.5 121.001s-85.5 170.333 -85.5 271c0 6.66699 0.166992 13.5 0.5 20.5s0.833008 13.833 1.5 20.5c6 88 37 168.5 93 241.5s149.333 109.5 280 109.5c132.667 0 226.667 -37 282 -111s86 -155.333 92 -244
c0 -6 0.166992 -12.167 0.5 -18.5s0.5 -12.5 0.5 -18.5s-0.166992 -12.167 -0.5 -18.5s-0.5 -12.5 -0.5 -18.5c-6 -88.667 -36.667 -169.834 -92 -243.501s-149.333 -110.5 -282 -110.5v-1zM420 123.001c55.333 0 95.835 14.833 121.502 44.5s43.167 62.167 52.5 97.5
c5.33301 19.333 8.66602 38.5 9.99902 57.5s2 35.167 2 48.5c0 14 -0.666992 30 -2 48s-4.33301 36.667 -9 56c-8.66699 36 -26 69 -52 99s-67 45 -123 45c-67.333 0 -113.833 -21.5 -139.5 -64.5s-40.5 -90.167 -44.5 -141.5c-0.666992 -7.33301 -1.16699 -14.5 -1.5 -21.5
s-0.5 -13.833 -0.5 -20.5c0 -8.66699 0.166992 -17.167 0.5 -25.5s1.16602 -16.833 2.49902 -25.5c4.66699 -49.333 20 -94.5 46 -135.5s71.667 -61.5 137 -61.5v0z" />
    <glyph glyph-name="Icircumflex" unicode="&#x41e;" horiz-adv-x="840" 
d="M420 -21c-136 0.666992 -232.5 41.001 -289.5 121.001s-85.5 170.333 -85.5 271c0 6.66699 0.166992 13.5 0.5 20.5s0.833008 13.833 1.5 20.5c6 88 37 168.5 93 241.5s149.333 109.5 280 109.5c132.667 0 226.667 -37 282 -111s86 -155.333 92 -244
c0 -6 0.166992 -12.167 0.5 -18.5s0.5 -12.5 0.5 -18.5s-0.166992 -12.167 -0.5 -18.5s-0.5 -12.5 -0.5 -18.5c-6 -88.667 -36.667 -169.834 -92 -243.501s-149.333 -110.5 -282 -110.5v-1zM420 123.001c55.333 0 95.835 14.833 121.502 44.5s43.167 62.167 52.5 97.5
c5.33301 19.333 8.66602 38.5 9.99902 57.5s2 35.167 2 48.5c0 14 -0.666992 30 -2 48s-4.33301 36.667 -9 56c-8.66699 36 -26 69 -52 99s-67 45 -123 45c-67.333 0 -113.833 -21.5 -139.5 -64.5s-40.5 -90.167 -44.5 -141.5c-0.666992 -7.33301 -1.16699 -14.5 -1.5 -21.5
s-0.5 -13.833 -0.5 -20.5c0 -8.66699 0.166992 -17.167 0.5 -25.5s1.16602 -16.833 2.49902 -25.5c4.66699 -49.333 20 -94.5 46 -135.5s71.667 -61.5 137 -61.5v0z" />
    <glyph glyph-name="Idieresis" unicode="&#xcf;" horiz-adv-x="788" 
d="M254 598v-598h-175v742h630v-742h-175v598h-280v0z" />
    <glyph glyph-name="Idieresis" unicode="&#x41f;" horiz-adv-x="788" 
d="M254 598v-598h-175v742h630v-742h-175v598h-280v0z" />
    <glyph glyph-name="Eth" unicode="&#xd0;" horiz-adv-x="726" 
d="M79 742l346.001 -0.000976562c105.333 0 177.166 -24.167 215.499 -72.5s57.5 -104.166 57.5 -167.499c0 -74.667 -16.5 -129.167 -49.5 -163.5s-69.167 -57.166 -108.5 -68.499c-22 -6.66699 -43.5 -10.834 -64.5 -12.501s-39.167 -2.5 -54.5 -2.5h-167v-255h-175v742v0
zM254.001 596.999v-198.001h137c36.667 0 66.667 6.83301 90 20.5s35 40.834 35 81.501c0 38 -11 63.5 -33 76.5s-52.667 19.5 -92 19.5h-137v0z" />
    <glyph glyph-name="Eth" unicode="&#x420;" horiz-adv-x="726" 
d="M79 742l346.001 -0.000976562c105.333 0 177.166 -24.167 215.499 -72.5s57.5 -104.166 57.5 -167.499c0 -74.667 -16.5 -129.167 -49.5 -163.5s-69.167 -57.166 -108.5 -68.499c-22 -6.66699 -43.5 -10.834 -64.5 -12.501s-39.167 -2.5 -54.5 -2.5h-167v-255h-175v742v0
zM254.001 596.999v-198.001h137c36.667 0 66.667 6.83301 90 20.5s35 40.834 35 81.501c0 38 -11 63.5 -33 76.5s-52.667 19.5 -92 19.5h-137v0z" />
    <glyph glyph-name="Ntilde" unicode="&#xd1;" horiz-adv-x="773" 
d="M571 262l173.999 -0.00292969c-1.33301 -15.333 -4 -31.833 -8 -49.5s-9.66699 -35.5 -17 -53.5c-18 -45.333 -50.667 -87 -98 -125s-118.666 -57 -213.999 -57c-106.667 0 -185.167 22.333 -235.5 67s-84.5 94 -102.5 148c-10.667 30.667 -17.5 60.667 -20.5 90
s-4.5 54.333 -4.5 75c0 110.667 19.167 193.834 57.5 249.501s80.5 94.834 126.5 117.501c36.667 18 71.334 28.833 104.001 32.5s55.667 5.5 69 5.5c96.667 0 168.667 -18.167 216 -54.5s80 -76.5 98 -120.5c6.66699 -16.667 11.667 -33.334 15 -50.001
s5.33301 -32.334 6 -47.001h-172c-0.666992 7.33301 -2.16699 15.5 -4.5 24.5s-5.83301 18.167 -10.5 27.5c-8.66699 18.667 -23.834 36 -45.501 52s-53.167 24 -94.5 24c-50 0 -87 -14 -111 -42s-41 -58.667 -51 -92c-6.66699 -24 -10.667 -47.167 -12 -69.5
s-2 -39.166 -2 -50.499c0 -65.333 9.66699 -114.666 29 -147.999s40.666 -57 63.999 -71c19.333 -11.333 37.5 -18.166 54.5 -20.499s28.5 -3.5 34.5 -3.5c38.667 0 68.334 7.83301 89.001 23.5s36 33.167 46 52.5c6.66699 12.667 11.5 25 14.5 37s4.83301 21.333 5.5 28v0z
" />
    <glyph glyph-name="Ntilde" unicode="&#x421;" horiz-adv-x="773" 
d="M571 262l173.999 -0.00292969c-1.33301 -15.333 -4 -31.833 -8 -49.5s-9.66699 -35.5 -17 -53.5c-18 -45.333 -50.667 -87 -98 -125s-118.666 -57 -213.999 -57c-106.667 0 -185.167 22.333 -235.5 67s-84.5 94 -102.5 148c-10.667 30.667 -17.5 60.667 -20.5 90
s-4.5 54.333 -4.5 75c0 110.667 19.167 193.834 57.5 249.501s80.5 94.834 126.5 117.501c36.667 18 71.334 28.833 104.001 32.5s55.667 5.5 69 5.5c96.667 0 168.667 -18.167 216 -54.5s80 -76.5 98 -120.5c6.66699 -16.667 11.667 -33.334 15 -50.001
s5.33301 -32.334 6 -47.001h-172c-0.666992 7.33301 -2.16699 15.5 -4.5 24.5s-5.83301 18.167 -10.5 27.5c-8.66699 18.667 -23.834 36 -45.501 52s-53.167 24 -94.5 24c-50 0 -87 -14 -111 -42s-41 -58.667 -51 -92c-6.66699 -24 -10.667 -47.167 -12 -69.5
s-2 -39.166 -2 -50.499c0 -65.333 9.66699 -114.666 29 -147.999s40.666 -57 63.999 -71c19.333 -11.333 37.5 -18.166 54.5 -20.499s28.5 -3.5 34.5 -3.5c38.667 0 68.334 7.83301 89.001 23.5s36 33.167 46 52.5c6.66699 12.667 11.5 25 14.5 37s4.83301 21.333 5.5 28v0z
" />
    <glyph glyph-name="Ograve" unicode="&#xd2;" horiz-adv-x="651" 
d="M238 598h-224v144h623v-144h-224v-598h-175v598v0z" />
    <glyph glyph-name="Ograve" unicode="&#x422;" horiz-adv-x="651" 
d="M238 598h-224v144h623v-144h-224v-598h-175v598v0z" />
    <glyph glyph-name="Oacute" unicode="&#xd3;" horiz-adv-x="683" 
d="M375 379l128.001 363h190l-241 -590c-30.667 -74.667 -65.834 -120.834 -105.501 -138.501s-81.167 -26.5 -124.5 -26.5c-18.667 0 -35.667 0.833008 -51 2.5s-30.333 4.16699 -45 7.5l-8 2c-2.66699 0.666992 -5.33398 1 -8.00098 1v144c10 -2.66699 21.333 -5 34 -7
s26.667 -3 42 -3c22.667 0 40.334 4.33301 53.001 13s22 18.334 28 29.001c3.33301 5.33301 6 10.5 8 15.5s3.33301 9.5 4 13.5l-275 537h209l162 -363v0z" />
    <glyph glyph-name="Oacute" unicode="&#x423;" horiz-adv-x="683" 
d="M375 379l128.001 363h190l-241 -590c-30.667 -74.667 -65.834 -120.834 -105.501 -138.501s-81.167 -26.5 -124.5 -26.5c-18.667 0 -35.667 0.833008 -51 2.5s-30.333 4.16699 -45 7.5l-8 2c-2.66699 0.666992 -5.33398 1 -8.00098 1v144c10 -2.66699 21.333 -5 34 -7
s26.667 -3 42 -3c22.667 0 40.334 4.33301 53.001 13s22 18.334 28 29.001c3.33301 5.33301 6 10.5 8 15.5s3.33301 9.5 4 13.5l-275 537h209l162 -363v0z" />
    <glyph glyph-name="Ocircumflex" unicode="&#xd4;" horiz-adv-x="993" 
d="M409 -28v105h-28c-119.333 0 -207.333 29.333 -264 88s-85 129.667 -85 213s28.333 154.333 85 213s144.667 88 264 88h28v105h175v-105h28c119.333 0 207.333 -29.333 264 -88s85 -129.667 85 -213s-28.333 -154.333 -85 -213s-144.667 -88 -264 -88h-28v-105h-175v0z
M425 217v322h-14c-69.333 0 -119.5 -14.167 -150.5 -42.5s-46.5 -67.833 -46.5 -118.5c0 -58.667 18.167 -100.167 54.5 -124.5s83.833 -36.5 142.5 -36.5h14v0zM568 217h14c59.333 0 107 12.167 143 36.5s54 65.833 54 124.5c0 50.667 -15.5 90.167 -46.5 118.5
s-81.167 42.5 -150.5 42.5h-14v-322v0z" />
    <glyph glyph-name="Ocircumflex" unicode="&#x424;" horiz-adv-x="993" 
d="M409 -28v105h-28c-119.333 0 -207.333 29.333 -264 88s-85 129.667 -85 213s28.333 154.333 85 213s144.667 88 264 88h28v105h175v-105h28c119.333 0 207.333 -29.333 264 -88s85 -129.667 85 -213s-28.333 -154.333 -85 -213s-144.667 -88 -264 -88h-28v-105h-175v0z
M425 217v322h-14c-69.333 0 -119.5 -14.167 -150.5 -42.5s-46.5 -67.833 -46.5 -118.5c0 -58.667 18.167 -100.167 54.5 -124.5s83.833 -36.5 142.5 -36.5h14v0zM568 217h14c59.333 0 107 12.167 143 36.5s54 65.833 54 124.5c0 50.667 -15.5 90.167 -46.5 118.5
s-81.167 42.5 -150.5 42.5h-14v-322v0z" />
    <glyph glyph-name="Otilde" unicode="&#xd5;" horiz-adv-x="747" 
d="M373 255l-153 -255h-220l261 386l-238 356h208l142 -244l143 244h208l-239 -356l262 -386h-220l-154 255v0z" />
    <glyph glyph-name="Otilde" unicode="&#x425;" horiz-adv-x="747" 
d="M373 255l-153 -255h-220l261 386l-238 356h208l142 -244l143 244h208l-239 -356l262 -386h-220l-154 255v0z" />
    <glyph glyph-name="Odieresis" unicode="&#xd6;" horiz-adv-x="836" 
d="M254 144h288v598h175v-598h105l-8 -312h-154v168h-581v742h175v-598v0z" />
    <glyph glyph-name="Odieresis" unicode="&#x426;" horiz-adv-x="836" 
d="M254 144h288v598h175v-598h105l-8 -312h-154v168h-581v742h175v-598v0z" />
    <glyph glyph-name="multiply" unicode="&#xd7;" horiz-adv-x="732" 
d="M51 742h175.001v-179c0 -36 7.16699 -65.833 21.5 -89.5s50.5 -35.5 108.5 -35.5c8 0 16.667 0.166992 26 0.5s18.666 0.833008 27.999 1.5c12.667 0.666992 24.834 1.5 36.501 2.5s22.167 2.16699 31.5 3.5v296h175v-742h-175v302
c-12.667 -1.33301 -26.334 -2.33301 -41.001 -3s-29.667 -1.66699 -45 -3c-14 -0.666992 -28 -1.16699 -42 -1.5s-27 -0.5 -39 -0.5c-108.667 0 -179.167 20.167 -211.5 60.5s-48.5 93.833 -48.5 160.5v227v0z" />
    <glyph glyph-name="multiply" unicode="&#x427;" horiz-adv-x="732" 
d="M51 742h175.001v-179c0 -36 7.16699 -65.833 21.5 -89.5s50.5 -35.5 108.5 -35.5c8 0 16.667 0.166992 26 0.5s18.666 0.833008 27.999 1.5c12.667 0.666992 24.834 1.5 36.501 2.5s22.167 2.16699 31.5 3.5v296h175v-742h-175v302
c-12.667 -1.33301 -26.334 -2.33301 -41.001 -3s-29.667 -1.66699 -45 -3c-14 -0.666992 -28 -1.16699 -42 -1.5s-27 -0.5 -39 -0.5c-108.667 0 -179.167 20.167 -211.5 60.5s-48.5 93.833 -48.5 160.5v227v0z" />
    <glyph glyph-name="Oslash" unicode="&#xd8;" horiz-adv-x="1147" 
d="M254 144h232v598h175v-598h232v598h175v-742h-989v742h175v-598v0z" />
    <glyph glyph-name="Oslash" unicode="&#x428;" horiz-adv-x="1147" 
d="M254 144h232v598h175v-598h232v598h175v-742h-989v742h175v-598v0z" />
    <glyph glyph-name="Ugrave" unicode="&#xd9;" horiz-adv-x="1187" 
d="M254 144h232v598h175v-598h232v598h175v-598h105l-8 -305h-154v161h-932v742h175v-598v0z" />
    <glyph glyph-name="Ugrave" unicode="&#x429;" horiz-adv-x="1187" 
d="M254 144h232v598h175v-598h232v598h175v-598h105l-8 -305h-154v161h-932v742h175v-598v0z" />
    <glyph glyph-name="Uacute" unicode="&#xda;" horiz-adv-x="816" 
d="M329 742l0.000976562 -269h185c98.667 0 166.667 -23.333 204 -70s57.666 -98 60.999 -154v-9.5v-9.5c0 -78 -22.333 -135.833 -67 -173.5s-111 -56.5 -199 -56.5h-359v598h-140v144h315v0zM329.001 329l-0.000976562 -185.001h149c31.333 0 58.333 6.16699 81 18.5
s34 36.833 34 73.5s-11.667 61.334 -35 74.001s-51.666 19 -84.999 19h-144v0z" />
    <glyph glyph-name="Uacute" unicode="&#x42a;" horiz-adv-x="816" 
d="M329 742l0.000976562 -269h185c98.667 0 166.667 -23.333 204 -70s57.666 -98 60.999 -154v-9.5v-9.5c0 -78 -22.333 -135.833 -67 -173.5s-111 -56.5 -199 -56.5h-359v598h-140v144h315v0zM329.001 329l-0.000976562 -185.001h149c31.333 0 58.333 6.16699 81 18.5
s34 36.833 34 73.5s-11.667 61.334 -35 74.001s-51.666 19 -84.999 19h-144v0z" />
    <glyph glyph-name="Ucircumflex" unicode="&#xdb;" horiz-adv-x="1015" 
d="M254 742l-0.000976562 -268.999h185c80 0 138.667 -15.333 176 -46s62.333 -64.334 75 -101.001c6 -17.333 10 -34.333 12 -51s3 -31.667 3 -45c0 -78 -22.667 -135.833 -68 -173.5s-111.666 -56.5 -198.999 -56.5h-359v742h175v0zM253.999 329.001l0.000976562 -185.001
h149c38 0 66.667 7.33301 86 22s29 38 29 70c0 36.667 -11.333 61.334 -34 74.001s-51.334 19 -86.001 19h-144v0zM761 742h175v-742h-175v742v0z" />
    <glyph glyph-name="Ucircumflex" unicode="&#x42b;" horiz-adv-x="1015" 
d="M254 742l-0.000976562 -268.999h185c80 0 138.667 -15.333 176 -46s62.333 -64.334 75 -101.001c6 -17.333 10 -34.333 12 -51s3 -31.667 3 -45c0 -78 -22.667 -135.833 -68 -173.5s-111.666 -56.5 -198.999 -56.5h-359v742h175v0zM253.999 329.001l0.000976562 -185.001
h149c38 0 66.667 7.33301 86 22s29 38 29 70c0 36.667 -11.333 61.334 -34 74.001s-51.334 19 -86.001 19h-144v0zM761 742h175v-742h-175v742v0z" />
    <glyph glyph-name="Udieresis" unicode="&#xdc;" horiz-adv-x="741" 
d="M254 742l0.000976562 -269h185c98.667 0 166.667 -23.333 204 -70s57.666 -98 60.999 -154v-9.5v-9.5c0 -78 -22.333 -135.833 -67 -173.5s-111 -56.5 -199 -56.5h-359v742h175v0zM254.001 329l-0.000976562 -185.001h149c31.333 0 58.333 6.16699 81 18.5
s34 36.833 34 73.5s-11.667 61.334 -35 74.001s-51.666 19 -84.999 19h-144v0z" />
    <glyph glyph-name="Udieresis" unicode="&#x42c;" horiz-adv-x="741" 
d="M254 742l0.000976562 -269h185c98.667 0 166.667 -23.333 204 -70s57.666 -98 60.999 -154v-9.5v-9.5c0 -78 -22.333 -135.833 -67 -173.5s-111 -56.5 -199 -56.5h-359v742h175v0zM254.001 329l-0.000976562 -185.001h149c31.333 0 58.333 6.16699 81 18.5
s34 36.833 34 73.5s-11.667 61.334 -35 74.001s-51.666 19 -84.999 19h-144v0z" />
    <glyph glyph-name="Yacute" unicode="&#xdd;" horiz-adv-x="819" 
d="M229 495l-178.002 -0.000976562l2 17.5l2 17.5c11.333 57.333 43 110.166 95 158.499s131.667 72.5 239 72.5c114 0 198.167 -24.167 252.5 -72.5s90.833 -101.166 109.5 -158.499c9.33301 -26.667 15.5 -52.834 18.5 -78.501s4.5 -49.167 4.5 -70.5
c0 -120.667 -22.667 -209 -68 -265s-95 -94 -149 -114c-28.667 -9.33301 -56.667 -15.5 -84 -18.5s-51.333 -4.5 -72 -4.5c-104 0 -182 20.833 -234 62.5s-87.333 87.5 -106 137.5c-5.33301 15.333 -9.5 30.333 -12.5 45s-5.16699 29 -6.5 43h178l2 -12.5l2 -12.5
c8 -30 25.333 -57.5 52 -82.5s67.667 -37.5 123 -37.5c60.667 0 104.334 14.333 131.001 43s43.334 60.334 50.001 95.001c1.33301 7.33301 2.5 14.833 3.5 22.5s1.5 15.167 1.5 22.5h-283v136h282c0 10 -1 20.833 -3 32.5s-5.33301 23.834 -10 36.501
c-9.33301 26.667 -27 51 -53 73s-65.333 33 -118 33c-48 0 -84.167 -8.5 -108.5 -25.5s-41.5 -35.5 -51.5 -55.5c-2.66699 -6.66699 -5 -13.5 -7 -20.5s-3.33301 -13.5 -4 -19.5v0z" />
    <glyph glyph-name="Yacute" unicode="&#x42d;" horiz-adv-x="819" 
d="M229 495l-178.002 -0.000976562l2 17.5l2 17.5c11.333 57.333 43 110.166 95 158.499s131.667 72.5 239 72.5c114 0 198.167 -24.167 252.5 -72.5s90.833 -101.166 109.5 -158.499c9.33301 -26.667 15.5 -52.834 18.5 -78.501s4.5 -49.167 4.5 -70.5
c0 -120.667 -22.667 -209 -68 -265s-95 -94 -149 -114c-28.667 -9.33301 -56.667 -15.5 -84 -18.5s-51.333 -4.5 -72 -4.5c-104 0 -182 20.833 -234 62.5s-87.333 87.5 -106 137.5c-5.33301 15.333 -9.5 30.333 -12.5 45s-5.16699 29 -6.5 43h178l2 -12.5l2 -12.5
c8 -30 25.333 -57.5 52 -82.5s67.667 -37.5 123 -37.5c60.667 0 104.334 14.333 131.001 43s43.334 60.334 50.001 95.001c1.33301 7.33301 2.5 14.833 3.5 22.5s1.5 15.167 1.5 22.5h-283v136h282c0 10 -1 20.833 -3 32.5s-5.33301 23.834 -10 36.501
c-9.33301 26.667 -27 51 -53 73s-65.333 33 -118 33c-48 0 -84.167 -8.5 -108.5 -25.5s-41.5 -35.5 -51.5 -55.5c-2.66699 -6.66699 -5 -13.5 -7 -20.5s-3.33301 -13.5 -4 -19.5v0z" />
    <glyph glyph-name="Thorn" unicode="&#xde;" horiz-adv-x="1144" 
d="M254 461l105.003 0.000976562c2 16 5.5 33.5 10.5 52.5s11.833 38.167 20.5 57.5c21.333 48 57.666 92 108.999 132s126.333 60 225 60c132.667 0 226.667 -37 282 -111s86 -155.333 92 -244c0 -6 0.166992 -12.167 0.5 -18.5s0.5 -12.5 0.5 -18.5
c0 -6.66699 -0.166992 -13.5 -0.5 -20.5s-0.5 -13.833 -0.5 -20.5c-6.66699 -88 -37.834 -168.333 -93.501 -241s-149.5 -109 -281.5 -109c-104 0 -182.333 22.5 -235 67.5s-89 94.5 -109 148.5c-8 21.333 -13.833 42.166 -17.5 62.499s-5.83398 39.5 -6.50098 57.5l-101 1
v-317h-175v742h175v-281v0zM724.003 123.001c53.333 0 92.835 13.668 118.502 41.001s43.167 57.666 52.5 90.999c7.33301 23.333 11.666 45.5 12.999 66.5s2 37.5 2 49.5c0 14 -0.666992 30 -2 48s-4.33301 36.667 -9 56c-8.66699 36 -26 69 -52 99s-67 45 -123 45
c-67.333 0 -113.833 -21.5 -139.5 -64.5s-40.5 -90.167 -44.5 -141.5c-0.666992 -7.33301 -1.16699 -14.5 -1.5 -21.5s-0.5 -13.833 -0.5 -20.5c0 -8.66699 0.166992 -17.167 0.5 -25.5s1.16602 -16.833 2.49902 -25.5c4.66699 -49.333 20 -94.5 46 -135.5
s71.667 -61.5 137 -61.5v0z" />
    <glyph glyph-name="Thorn" unicode="&#x42e;" horiz-adv-x="1144" 
d="M254 461l105.003 0.000976562c2 16 5.5 33.5 10.5 52.5s11.833 38.167 20.5 57.5c21.333 48 57.666 92 108.999 132s126.333 60 225 60c132.667 0 226.667 -37 282 -111s86 -155.333 92 -244c0 -6 0.166992 -12.167 0.5 -18.5s0.5 -12.5 0.5 -18.5
c0 -6.66699 -0.166992 -13.5 -0.5 -20.5s-0.5 -13.833 -0.5 -20.5c-6.66699 -88 -37.834 -168.333 -93.501 -241s-149.5 -109 -281.5 -109c-104 0 -182.333 22.5 -235 67.5s-89 94.5 -109 148.5c-8 21.333 -13.833 42.166 -17.5 62.499s-5.83398 39.5 -6.50098 57.5l-101 1
v-317h-175v742h175v-281v0zM724.003 123.001c53.333 0 92.835 13.668 118.502 41.001s43.167 57.666 52.5 90.999c7.33301 23.333 11.666 45.5 12.999 66.5s2 37.5 2 49.5c0 14 -0.666992 30 -2 48s-4.33301 36.667 -9 56c-8.66699 36 -26 69 -52 99s-67 45 -123 45
c-67.333 0 -113.833 -21.5 -139.5 -64.5s-40.5 -90.167 -44.5 -141.5c-0.666992 -7.33301 -1.16699 -14.5 -1.5 -21.5s-0.5 -13.833 -0.5 -20.5c0 -8.66699 0.166992 -17.167 0.5 -25.5s1.16602 -16.833 2.49902 -25.5c4.66699 -49.333 20 -94.5 46 -135.5
s71.667 -61.5 137 -61.5v0z" />
    <glyph glyph-name="germandbls" unicode="&#xdf;" horiz-adv-x="753" 
d="M499 256l-92.999 -0.00195312l-145 -256h-208l175 270c-7.33301 0.666992 -14.5 1.83398 -21.5 3.50098s-14.167 3.83398 -21.5 6.50098c-37.333 12 -71.333 35.333 -102 70s-46 85.667 -46 153c0 85.333 25.167 146.5 75.5 183.5s112.166 55.5 185.499 55.5h376v-742
h-175v256v0zM499.001 597.998l-162.999 0.000976562c-6 0 -13.333 -0.5 -22 -1.5s-17.667 -2.83301 -27 -5.5c-16 -4.66699 -30.833 -13.834 -44.5 -27.501s-20.5 -34.5 -20.5 -62.5s8.66699 -51.833 26 -71.5s48.666 -29.5 93.999 -29.5h157v198v0z" />
    <glyph glyph-name="germandbls" unicode="&#x42f;" horiz-adv-x="753" 
d="M499 256l-92.999 -0.00195312l-145 -256h-208l175 270c-7.33301 0.666992 -14.5 1.83398 -21.5 3.50098s-14.167 3.83398 -21.5 6.50098c-37.333 12 -71.333 35.333 -102 70s-46 85.667 -46 153c0 85.333 25.167 146.5 75.5 183.5s112.166 55.5 185.499 55.5h376v-742
h-175v256v0zM499.001 597.998l-162.999 0.000976562c-6 0 -13.333 -0.5 -22 -1.5s-17.667 -2.83301 -27 -5.5c-16 -4.66699 -30.833 -13.834 -44.5 -27.501s-20.5 -34.5 -20.5 -62.5s8.66699 -51.833 26 -71.5s48.666 -29.5 93.999 -29.5h157v198v0z" />
    <glyph glyph-name="agrave" unicode="&#xe0;" horiz-adv-x="641" 
d="M229 365h-154.003c0 10 1 20.833 3 32.5s5.33301 23.167 10 34.5c11.333 30.667 34.833 58.5 70.5 83.5s92.5 37.5 170.5 37.5c78.667 0 134.834 -12.333 168.501 -37s55.834 -51.667 66.501 -81c4.66699 -14 7.5 -27.833 8.5 -41.5s1.5 -25.834 1.5 -36.501l-2 -246
c-0.666992 -32.667 1.16602 -57 5.49902 -73s13.166 -27.333 26.499 -34v-4h-169l-14 53h-3c-10.667 -12.667 -22.667 -23.167 -36 -31.5s-26.666 -15.166 -39.999 -20.499c-22.667 -7.33301 -43.834 -12 -63.501 -14s-33.5 -3 -41.5 -3
c-55.333 0 -96.166 9.33301 -122.499 28s-44.166 39.667 -53.499 63c-4 10.667 -6.83301 21.334 -8.5 32.001s-2.5 20.334 -2.5 29.001c0 62.667 21.333 104.667 64 126s89.334 35.333 140.001 42l15.5 2l14.5 2c11.333 1.33301 21.5 2.66602 30.5 3.99902
s17.5 2.33301 25.5 3c29.333 4.66699 48.833 10.167 58.5 16.5s14.834 17.5 15.501 33.5v3.5v3.5v3.5v3.5c0 4 -0.333008 8.5 -1 13.5s-2 10.167 -4 15.5c-4.66699 10.667 -12.834 20.5 -24.501 29.5s-30.5 13.5 -56.5 13.5c-29.333 0 -50.833 -5.33301 -64.5 -16
s-23.167 -22.334 -28.5 -35.001c-2 -6.66699 -3.5 -13 -4.5 -19s-1.5 -11.333 -1.5 -16v0zM414.997 223l0.998047 34.001c-7.33301 -4 -14 -7.16699 -20 -9.5s-12 -4.5 -18 -6.5c-5.33301 -1.33301 -10.666 -2.5 -15.999 -3.5l-18 -3.5
c-2.66699 -0.666992 -5.5 -1.16699 -8.5 -1.5s-6.16699 -0.833008 -9.5 -1.5c-5.33301 -0.666992 -11 -1.5 -17 -2.5s-12 -2.16699 -18 -3.5c-19.333 -4.66699 -36.833 -12.167 -52.5 -22.5s-23.5 -27.833 -23.5 -52.5c0 -2 0.166992 -4.16699 0.5 -6.5s0.5 -4.5 0.5 -6.5
c3.33301 -14 11.333 -26.667 24 -38s32 -17 58 -17c6.66699 0 13.834 0.666992 21.501 2s15.5 3.66602 23.5 6.99902c17.333 7.33301 33.333 21 48 41s22.667 50.333 24 91v0z" />
    <glyph glyph-name="agrave" unicode="&#x430;" horiz-adv-x="641" 
d="M229 365h-154.003c0 10 1 20.833 3 32.5s5.33301 23.167 10 34.5c11.333 30.667 34.833 58.5 70.5 83.5s92.5 37.5 170.5 37.5c78.667 0 134.834 -12.333 168.501 -37s55.834 -51.667 66.501 -81c4.66699 -14 7.5 -27.833 8.5 -41.5s1.5 -25.834 1.5 -36.501l-2 -246
c-0.666992 -32.667 1.16602 -57 5.49902 -73s13.166 -27.333 26.499 -34v-4h-169l-14 53h-3c-10.667 -12.667 -22.667 -23.167 -36 -31.5s-26.666 -15.166 -39.999 -20.499c-22.667 -7.33301 -43.834 -12 -63.501 -14s-33.5 -3 -41.5 -3
c-55.333 0 -96.166 9.33301 -122.499 28s-44.166 39.667 -53.499 63c-4 10.667 -6.83301 21.334 -8.5 32.001s-2.5 20.334 -2.5 29.001c0 62.667 21.333 104.667 64 126s89.334 35.333 140.001 42l15.5 2l14.5 2c11.333 1.33301 21.5 2.66602 30.5 3.99902
s17.5 2.33301 25.5 3c29.333 4.66699 48.833 10.167 58.5 16.5s14.834 17.5 15.501 33.5v3.5v3.5v3.5v3.5c0 4 -0.333008 8.5 -1 13.5s-2 10.167 -4 15.5c-4.66699 10.667 -12.834 20.5 -24.501 29.5s-30.5 13.5 -56.5 13.5c-29.333 0 -50.833 -5.33301 -64.5 -16
s-23.167 -22.334 -28.5 -35.001c-2 -6.66699 -3.5 -13 -4.5 -19s-1.5 -11.333 -1.5 -16v0zM414.997 223l0.998047 34.001c-7.33301 -4 -14 -7.16699 -20 -9.5s-12 -4.5 -18 -6.5c-5.33301 -1.33301 -10.666 -2.5 -15.999 -3.5l-18 -3.5
c-2.66699 -0.666992 -5.5 -1.16699 -8.5 -1.5s-6.16699 -0.833008 -9.5 -1.5c-5.33301 -0.666992 -11 -1.5 -17 -2.5s-12 -2.16699 -18 -3.5c-19.333 -4.66699 -36.833 -12.167 -52.5 -22.5s-23.5 -27.833 -23.5 -52.5c0 -2 0.166992 -4.16699 0.5 -6.5s0.5 -4.5 0.5 -6.5
c3.33301 -14 11.333 -26.667 24 -38s32 -17 58 -17c6.66699 0 13.834 0.666992 21.501 2s15.5 3.66602 23.5 6.99902c17.333 7.33301 33.333 21 48 41s22.667 50.333 24 91v0z" />
    <glyph glyph-name="aacute" unicode="&#xe1;" horiz-adv-x="679" 
d="M475 792l130.999 -0.000976562c-2.66699 -62 -25 -102 -67 -120s-87.667 -30 -137 -36h-1.5h-1.5c-1.33301 0 -2.5 -0.166992 -3.5 -0.5s-2.16699 -0.5 -3.5 -0.5l-16 -2l-16 -2c-52 -7.33301 -100.333 -24.666 -145 -51.999s-69.334 -88.666 -74.001 -183.999h3
c1.33301 4.66699 5.16602 13.5 11.499 26.5s16.5 27.167 30.5 42.5c16.667 17.333 40.334 33.5 71.001 48.5s71 22.5 121 22.5c75.333 0 137.833 -23 187.5 -69s74.5 -111.667 74.5 -197c0 -88 -25.333 -157.5 -76 -208.5s-119.667 -76.5 -207 -76.5
c-16.667 0 -35.834 1.33301 -57.501 4s-43.5 8 -65.5 16c-45.333 17.333 -86.833 52.666 -124.5 105.999s-56.5 139.333 -56.5 258c0 152.667 28.833 253.167 86.5 301.5s135.5 76.833 233.5 85.5c5.33301 0.666992 10.333 1.16699 15 1.5s9.33398 0.833008 14.001 1.5
c22.667 2 39.334 5 50.001 9s18.334 12.333 23.001 25v0zM223.999 258.999c0 -60.667 11.168 -102.832 33.501 -126.499s47.166 -37.167 74.499 -40.5c2.66699 -0.666992 5.5 -1 8.5 -1h8.5c4 0 7.83301 0.166992 11.5 0.5s7.5 0.833008 11.5 1.5
c25.333 4 48.5 18.167 69.5 42.5s31.5 65.5 31.5 123.5c0 57.333 -10.5 98.166 -31.5 122.499s-44.167 38.833 -69.5 43.5c-4 0.666992 -7.83301 1.16699 -11.5 1.5s-7.5 0.5 -11.5 0.5c-3.33301 0 -6.83301 -0.166992 -10.5 -0.5s-7.16699 -0.833008 -10.5 -1.5
c-26 -4 -49.833 -18.167 -71.5 -42.5s-32.5 -65.5 -32.5 -123.5v0z" />
    <glyph glyph-name="aacute" unicode="&#x431;" horiz-adv-x="679" 
d="M475 792l130.999 -0.000976562c-2.66699 -62 -25 -102 -67 -120s-87.667 -30 -137 -36h-1.5h-1.5c-1.33301 0 -2.5 -0.166992 -3.5 -0.5s-2.16699 -0.5 -3.5 -0.5l-16 -2l-16 -2c-52 -7.33301 -100.333 -24.666 -145 -51.999s-69.334 -88.666 -74.001 -183.999h3
c1.33301 4.66699 5.16602 13.5 11.499 26.5s16.5 27.167 30.5 42.5c16.667 17.333 40.334 33.5 71.001 48.5s71 22.5 121 22.5c75.333 0 137.833 -23 187.5 -69s74.5 -111.667 74.5 -197c0 -88 -25.333 -157.5 -76 -208.5s-119.667 -76.5 -207 -76.5
c-16.667 0 -35.834 1.33301 -57.501 4s-43.5 8 -65.5 16c-45.333 17.333 -86.833 52.666 -124.5 105.999s-56.5 139.333 -56.5 258c0 152.667 28.833 253.167 86.5 301.5s135.5 76.833 233.5 85.5c5.33301 0.666992 10.333 1.16699 15 1.5s9.33398 0.833008 14.001 1.5
c22.667 2 39.334 5 50.001 9s18.334 12.333 23.001 25v0zM223.999 258.999c0 -60.667 11.168 -102.832 33.501 -126.499s47.166 -37.167 74.499 -40.5c2.66699 -0.666992 5.5 -1 8.5 -1h8.5c4 0 7.83301 0.166992 11.5 0.5s7.5 0.833008 11.5 1.5
c25.333 4 48.5 18.167 69.5 42.5s31.5 65.5 31.5 123.5c0 57.333 -10.5 98.166 -31.5 122.499s-44.167 38.833 -69.5 43.5c-4 0.666992 -7.83301 1.16699 -11.5 1.5s-7.5 0.5 -11.5 0.5c-3.33301 0 -6.83301 -0.166992 -10.5 -0.5s-7.16699 -0.833008 -10.5 -1.5
c-26 -4 -49.833 -18.167 -71.5 -42.5s-32.5 -65.5 -32.5 -123.5v0z" />
    <glyph glyph-name="acircumflex" unicode="&#xe2;" horiz-adv-x="619" 
d="M65 539l321 0.000976562c60 0 103.833 -11 131.5 -33s41.5 -54.667 41.5 -98c0 -37.333 -10.833 -66.5 -32.5 -87.5s-45.834 -33.833 -72.501 -38.5v-3c52 -10 86.5 -27.5 103.5 -52.5s25.5 -54.5 25.5 -88.5c0 -56.667 -18.667 -93.834 -56 -111.501
s-84.666 -26.5 -141.999 -26.5h-320v539v0zM226 227.001l0.000976562 -125h101c26 0 47.5 4.33301 64.5 13s25.5 24.667 25.5 48c0 24.667 -8.33301 41.5 -25 50.5s-39.334 13.5 -68.001 13.5h-98v0zM226.001 437.001v-112h84c35.333 0 58.666 5 69.999 15s17 23 17 39
c0 18 -5.66699 32.167 -17 42.5s-33.666 15.5 -66.999 15.5h-87v0z" />
    <glyph glyph-name="acircumflex" unicode="&#x432;" horiz-adv-x="619" 
d="M65 539l321 0.000976562c60 0 103.833 -11 131.5 -33s41.5 -54.667 41.5 -98c0 -37.333 -10.833 -66.5 -32.5 -87.5s-45.834 -33.833 -72.501 -38.5v-3c52 -10 86.5 -27.5 103.5 -52.5s25.5 -54.5 25.5 -88.5c0 -56.667 -18.667 -93.834 -56 -111.501
s-84.666 -26.5 -141.999 -26.5h-320v539v0zM226 227.001l0.000976562 -125h101c26 0 47.5 4.33301 64.5 13s25.5 24.667 25.5 48c0 24.667 -8.33301 41.5 -25 50.5s-39.334 13.5 -68.001 13.5h-98v0zM226.001 437.001v-112h84c35.333 0 58.666 5 69.999 15s17 23 17 39
c0 18 -5.66699 32.167 -17 42.5s-33.666 15.5 -66.999 15.5h-87v0z" />
    <glyph glyph-name="atilde" unicode="&#xe3;" horiz-adv-x="492" 
d="M229 427v-427h-164v539h413v-112h-249v0z" />
    <glyph glyph-name="atilde" unicode="&#x433;" horiz-adv-x="492" 
d="M229 427v-427h-164v539h413v-112h-249v0z" />
    <glyph glyph-name="adieresis" unicode="&#xe4;" horiz-adv-x="715" 
d="M0 108h70.999c28.667 44 49.834 92.667 63.501 146s20.5 115 20.5 185v100h461v-431h89l-9 -248h-137v140h-413v-140h-137l-9 248v0zM454.999 431h-152l-1 -57c-0.666992 -20 -2.66699 -48.333 -6 -85s-12.333 -75 -27 -115c-4 -11.333 -8.5 -22.5 -13.5 -33.5
s-10.833 -21.833 -17.5 -32.5h217v323v0z" />
    <glyph glyph-name="adieresis" unicode="&#x434;" horiz-adv-x="715" 
d="M0 108h70.999c28.667 44 49.834 92.667 63.501 146s20.5 115 20.5 185v100h461v-431h89l-9 -248h-137v140h-413v-140h-137l-9 248v0zM454.999 431h-152l-1 -57c-0.666992 -20 -2.66699 -48.333 -6 -85s-12.333 -75 -27 -115c-4 -11.333 -8.5 -22.5 -13.5 -33.5
s-10.833 -21.833 -17.5 -32.5h217v323v0z" />
    <glyph glyph-name="aring" unicode="&#xe5;" horiz-adv-x="656" 
d="M443 156h163c-2.66699 -9.33301 -6.16699 -19.666 -10.5 -30.999s-10.166 -23 -17.499 -35c-17.333 -26.667 -45.333 -51.167 -84 -73.5s-94.334 -33.5 -167.001 -33.5c-96.667 0 -168.834 26.167 -216.501 78.5s-71.5 121.833 -71.5 208.5
c0 95.333 28.833 166.833 86.5 214.5s128.834 71.5 213.501 71.5c102 0 173.833 -30 215.5 -90s62.5 -128.667 62.5 -206v-24h-412v-8c0 -2.66699 0.333008 -5.33398 1 -8.00098c2 -34 13 -65.167 33 -93.5s51.667 -42.5 95 -42.5h3.5h3.5
c22.667 1.33301 44 7.83301 64 19.5s32.667 29.167 38 52.5v0zM205 320l246.002 0.000976562c-0.666992 38.667 -7.83398 67.5 -21.501 86.5s-28.5 31.833 -44.5 38.5c-8.66699 3.33301 -17.334 5.66602 -26.001 6.99902s-16 2 -22 2c-34 0 -60 -8 -78 -24
s-31.333 -33.667 -40 -53c-4.66699 -10.667 -8 -21 -10 -31s-3.33301 -18.667 -4 -26v0z" />
    <glyph glyph-name="aring" unicode="&#x435;" horiz-adv-x="656" 
d="M443 156h163c-2.66699 -9.33301 -6.16699 -19.666 -10.5 -30.999s-10.166 -23 -17.499 -35c-17.333 -26.667 -45.333 -51.167 -84 -73.5s-94.334 -33.5 -167.001 -33.5c-96.667 0 -168.834 26.167 -216.501 78.5s-71.5 121.833 -71.5 208.5
c0 95.333 28.833 166.833 86.5 214.5s128.834 71.5 213.501 71.5c102 0 173.833 -30 215.5 -90s62.5 -128.667 62.5 -206v-24h-412v-8c0 -2.66699 0.333008 -5.33398 1 -8.00098c2 -34 13 -65.167 33 -93.5s51.667 -42.5 95 -42.5h3.5h3.5
c22.667 1.33301 44 7.83301 64 19.5s32.667 29.167 38 52.5v0zM205 320l246.002 0.000976562c-0.666992 38.667 -7.83398 67.5 -21.501 86.5s-28.5 31.833 -44.5 38.5c-8.66699 3.33301 -17.334 5.66602 -26.001 6.99902s-16 2 -22 2c-34 0 -60 -8 -78 -24
s-31.333 -33.667 -40 -53c-4.66699 -10.667 -8 -21 -10 -31s-3.33301 -18.667 -4 -26v0z" />
    <glyph glyph-name="ae" unicode="&#xe6;" horiz-adv-x="823" 
d="M334 0v236h-3l-154 -236h-187l218 283l-204 256h177l150 -220h3v220h154v-220h3l150 220h177l-204 -256l219 -283h-187l-155 236h-3v-236h-154v0z" />
    <glyph glyph-name="ae" unicode="&#x436;" horiz-adv-x="823" 
d="M334 0v236h-3l-154 -236h-187l218 283l-204 256h177l150 -220h3v220h154v-220h3l150 220h177l-204 -256l219 -283h-187l-155 236h-3v-236h-154v0z" />
    <glyph glyph-name="ccedilla" unicode="&#xe7;" horiz-adv-x="602" 
d="M23 180l153.002 0.00390625c0 -4 0.333008 -8.33301 1 -13s1.66699 -9.33398 3 -14.001c5.33301 -17.333 16 -33.333 32 -48s41.333 -22 76 -22c28.667 0 54.667 5.66699 78 17s35 30.666 35 57.999c0 21.333 -7.33301 38.333 -22 51s-40 19 -76 19h-62v98h66
c4 0 9.16699 0.333008 15.5 1s12.833 1.66699 19.5 3c11.333 3.33301 21.5 9 30.5 17s13.5 20.667 13.5 38c0 25.333 -10.333 43.166 -31 53.499s-44 15.5 -70 15.5c-28 0 -48.833 -5.66699 -62.5 -17s-22.834 -23.666 -27.501 -36.999
c-2.66699 -6 -4.33398 -12 -5.00098 -18s-1 -11.333 -1 -16h-149c1.33301 64.667 20.166 110 56.499 136s76.166 42 119.499 48c14 2.66699 28 4.33398 42 5.00098s27.333 1 40 1c13.333 0 27.333 -0.333008 42 -1s29.334 -2 44.001 -4c41.333 -6 79.333 -19.5 114 -40.5
s52 -56.833 52 -107.5c0 -30 -7 -53.333 -21 -70s-29.333 -29 -46 -37c-6 -2.66699 -11.667 -4.83398 -17 -6.50098s-10.666 -3.16699 -15.999 -4.5v-3c6 -0.666992 13.667 -2.33398 23 -5.00098s19 -6.66699 29 -12c16 -8.66699 30.667 -22 44 -40s20 -43.333 20 -76
c0 -64.667 -25.833 -108.667 -77.5 -132s-116.167 -35 -193.5 -35c-12 0 -24.5 0.333008 -37.5 1s-25.833 2 -38.5 4c-47.333 6.66699 -91 23.667 -131 51s-61.667 74.666 -65 141.999v0z" />
    <glyph glyph-name="ccedilla" unicode="&#x437;" horiz-adv-x="602" 
d="M23 180l153.002 0.00390625c0 -4 0.333008 -8.33301 1 -13s1.66699 -9.33398 3 -14.001c5.33301 -17.333 16 -33.333 32 -48s41.333 -22 76 -22c28.667 0 54.667 5.66699 78 17s35 30.666 35 57.999c0 21.333 -7.33301 38.333 -22 51s-40 19 -76 19h-62v98h66
c4 0 9.16699 0.333008 15.5 1s12.833 1.66699 19.5 3c11.333 3.33301 21.5 9 30.5 17s13.5 20.667 13.5 38c0 25.333 -10.333 43.166 -31 53.499s-44 15.5 -70 15.5c-28 0 -48.833 -5.66699 -62.5 -17s-22.834 -23.666 -27.501 -36.999
c-2.66699 -6 -4.33398 -12 -5.00098 -18s-1 -11.333 -1 -16h-149c1.33301 64.667 20.166 110 56.499 136s76.166 42 119.499 48c14 2.66699 28 4.33398 42 5.00098s27.333 1 40 1c13.333 0 27.333 -0.333008 42 -1s29.334 -2 44.001 -4c41.333 -6 79.333 -19.5 114 -40.5
s52 -56.833 52 -107.5c0 -30 -7 -53.333 -21 -70s-29.333 -29 -46 -37c-6 -2.66699 -11.667 -4.83398 -17 -6.50098s-10.666 -3.16699 -15.999 -4.5v-3c6 -0.666992 13.667 -2.33398 23 -5.00098s19 -6.66699 29 -12c16 -8.66699 30.667 -22 44 -40s20 -43.333 20 -76
c0 -64.667 -25.833 -108.667 -77.5 -132s-116.167 -35 -193.5 -35c-12 0 -24.5 0.333008 -37.5 1s-25.833 2 -38.5 4c-47.333 6.66699 -91 23.667 -131 51s-61.667 74.666 -65 141.999v0z" />
    <glyph glyph-name="egrave" unicode="&#xe8;" horiz-adv-x="682" 
d="M226 189l220 350h171v-539h-161v350l-220 -350h-171v539h161v-350v0z" />
    <glyph glyph-name="egrave" unicode="&#x438;" horiz-adv-x="682" 
d="M226 189l220 350h171v-539h-161v350l-220 -350h-171v539h161v-350v0z" />
    <glyph glyph-name="eacute" unicode="&#xe9;" horiz-adv-x="682" 
d="M226 189l220 350h171v-539h-161v350l-220 -350h-171v539h161v-350v0zM131 742h118.004c0 -18.667 5 -33 15 -43s20.667 -17 32 -21c10 -3.33301 19.167 -5.33301 27.5 -6s14.166 -1 17.499 -1s9.16602 0.333008 17.499 1s17.5 2.66699 27.5 6c11.333 4 22 11 32 21
s15 24.333 15 43h118c-0.666992 -8 -2.33398 -17 -5.00098 -27s-6.66699 -20 -12 -30c-12 -22.667 -32.5 -43.167 -61.5 -61.5s-72.833 -27.5 -131.5 -27.5s-102.5 9.16699 -131.5 27.5s-49.167 38.5 -60.5 60.5c-6 10.667 -10.333 21 -13 31s-4.33398 19 -5.00098 27v0z
" />
    <glyph glyph-name="eacute" unicode="&#x439;" horiz-adv-x="682" 
d="M226 189l220 350h171v-539h-161v350l-220 -350h-171v539h161v-350v0zM131 742h118.004c0 -18.667 5 -33 15 -43s20.667 -17 32 -21c10 -3.33301 19.167 -5.33301 27.5 -6s14.166 -1 17.499 -1s9.16602 0.333008 17.499 1s17.5 2.66699 27.5 6c11.333 4 22 11 32 21
s15 24.333 15 43h118c-0.666992 -8 -2.33398 -17 -5.00098 -27s-6.66699 -20 -12 -30c-12 -22.667 -32.5 -43.167 -61.5 -61.5s-72.833 -27.5 -131.5 -27.5s-102.5 9.16699 -131.5 27.5s-49.167 38.5 -60.5 60.5c-6 10.667 -10.333 21 -13 31s-4.33398 19 -5.00098 27v0z
" />
    <glyph glyph-name="ecircumflex" unicode="&#xea;" horiz-adv-x="582" 
d="M229 322l173 217h179l-222 -253l233 -286h-189l-174 235h-3v-235h-161v539h161v-217h3v0z" />
    <glyph glyph-name="ecircumflex" unicode="&#x43a;" horiz-adv-x="582" 
d="M229 322l173 217h179l-222 -253l233 -286h-189l-174 235h-3v-235h-161v539h161v-217h3v0z" />
    <glyph glyph-name="edieresis" unicode="&#xeb;" horiz-adv-x="666" 
d="M14 -2l0.00195312 111.002c5.33301 -0.666992 10.166 -1.16699 14.499 -1.5s8.5 -0.5 12.5 -0.5c45.333 0 72.333 20.167 81 60.5s13.667 87.166 15 140.499l5 231h459v-539h-161v431h-144l-2 -121v-9.5v-9.5c-2.66699 -75.333 -15.334 -144.333 -38.001 -207
s-77 -94 -163 -94c-12 0 -24.5 0.666992 -37.5 2s-26.833 3.66602 -41.5 6.99902v-1z" />
    <glyph glyph-name="edieresis" unicode="&#x43b;" horiz-adv-x="666" 
d="M14 -2l0.00195312 111.002c5.33301 -0.666992 10.166 -1.16699 14.499 -1.5s8.5 -0.5 12.5 -0.5c45.333 0 72.333 20.167 81 60.5s13.667 87.166 15 140.499l5 231h459v-539h-161v431h-144l-2 -121v-9.5v-9.5c-2.66699 -75.333 -15.334 -144.333 -38.001 -207
s-77 -94 -163 -94c-12 0 -24.5 0.666992 -37.5 2s-26.833 3.66602 -41.5 6.99902v-1z" />
    <glyph glyph-name="igrave" unicode="&#xec;" horiz-adv-x="830" 
d="M362 0l-147 371h-3l3 -28v-343h-150v539h203l146 -379h2l146 379h203v-539h-150v343l3 28h-3l-147 -371h-106v0z" />
    <glyph glyph-name="igrave" unicode="&#x43c;" horiz-adv-x="830" 
d="M362 0l-147 371h-3l3 -28v-343h-150v539h203l146 -379h2l146 379h203v-539h-150v343l3 28h-3l-147 -371h-106v0z" />
    <glyph glyph-name="iacute" unicode="&#xed;" horiz-adv-x="646" 
d="M226 228v-228h-161v539h161v-203h194v203h161v-539h-161v228h-194v0z" />
    <glyph glyph-name="iacute" unicode="&#x43d;" horiz-adv-x="646" 
d="M226 228v-228h-161v539h161v-203h194v203h161v-539h-161v228h-194v0z" />
    <glyph glyph-name="icircumflex" unicode="&#xee;" horiz-adv-x="665" 
d="M332 -20c-74.667 0.666992 -142.168 22.498 -202.501 65.498s-90.5 117.833 -90.5 224.5c0 90.667 21.5 157 64.5 199s90.5 68.667 142.5 80c14.667 4 29.334 6.66699 44.001 8s28.667 2 42 2s27 -0.666992 41 -2s28 -3.66602 42 -6.99902
c52.667 -11.333 101 -37.833 145 -79.5s66 -108.5 66 -200.5s-21.667 -158.833 -65 -200.5s-91.333 -68.167 -144 -79.5c-14 -3.33301 -28.333 -5.66602 -43 -6.99902s-28.667 -2 -42 -2v-1zM331.999 87.998c6.66699 0 14.334 0.498047 23.001 1.49805
s17.334 3.16699 26.001 6.5c19.333 8 37.166 24.5 53.499 49.5s24.5 66.5 24.5 124.5c0 57.333 -8.16699 98.5 -24.5 123.5s-34.166 41.5 -53.499 49.5c-8.66699 3.33301 -17.334 5.5 -26.001 6.5s-16.334 1.5 -23.001 1.5s-14.334 -0.5 -23.001 -1.5
s-17.334 -3.5 -26.001 -7.5c-19.333 -8 -37 -24.5 -53 -49.5s-24 -65.833 -24 -122.5c0 -57.333 8 -98.666 24 -123.999s33.667 -41.666 53 -48.999c8.66699 -4 17.334 -6.5 26.001 -7.5s16.334 -1.5 23.001 -1.5v0z" />
    <glyph glyph-name="icircumflex" unicode="&#x43e;" horiz-adv-x="665" 
d="M332 -20c-74.667 0.666992 -142.168 22.498 -202.501 65.498s-90.5 117.833 -90.5 224.5c0 90.667 21.5 157 64.5 199s90.5 68.667 142.5 80c14.667 4 29.334 6.66699 44.001 8s28.667 2 42 2s27 -0.666992 41 -2s28 -3.66602 42 -6.99902
c52.667 -11.333 101 -37.833 145 -79.5s66 -108.5 66 -200.5s-21.667 -158.833 -65 -200.5s-91.333 -68.167 -144 -79.5c-14 -3.33301 -28.333 -5.66602 -43 -6.99902s-28.667 -2 -42 -2v-1zM331.999 87.998c6.66699 0 14.334 0.498047 23.001 1.49805
s17.334 3.16699 26.001 6.5c19.333 8 37.166 24.5 53.499 49.5s24.5 66.5 24.5 124.5c0 57.333 -8.16699 98.5 -24.5 123.5s-34.166 41.5 -53.499 49.5c-8.66699 3.33301 -17.334 5.5 -26.001 6.5s-16.334 1.5 -23.001 1.5s-14.334 -0.5 -23.001 -1.5
s-17.334 -3.5 -26.001 -7.5c-19.333 -8 -37 -24.5 -53 -49.5s-24 -65.833 -24 -122.5c0 -57.333 8 -98.666 24 -123.999s33.667 -41.666 53 -48.999c8.66699 -4 17.334 -6.5 26.001 -7.5s16.334 -1.5 23.001 -1.5v0z" />
    <glyph glyph-name="idieresis" unicode="&#xef;" horiz-adv-x="659" 
d="M226 431v-431h-161v539h529v-539h-161v431h-207v0z" />
    <glyph glyph-name="idieresis" unicode="&#x43f;" horiz-adv-x="659" 
d="M226 431v-431h-161v539h529v-539h-161v431h-207v0z" />
    <glyph glyph-name="eth" unicode="&#xf0;" horiz-adv-x="676" 
d="M65 539l151 -0.000976562l-1 -65h3c10 11.333 19.833 21.166 29.5 29.499s19.5 15.5 29.5 21.5c20 12.667 39.667 21.167 59 25.5s38 6.5 56 6.5c77.333 0 137.5 -26.833 180.5 -80.5s64.5 -123.167 64.5 -208.5c0 -74 -13 -130.333 -39 -169s-54.333 -66.667 -85 -84
c-29.333 -15.333 -56.333 -24.333 -81 -27s-39 -4 -43 -4v0v0c-7.33301 0 -14.833 0.333008 -22.5 1s-15.167 1.66699 -22.5 3c-22 4.66699 -43.5 12.334 -64.5 23.001s-38.833 25.334 -53.5 44.001v-251h-161v735v0zM218 269.999c0 -43.333 9.16895 -83 27.502 -119
s51.166 -54 98.499 -54c45.333 0 77.666 17.167 96.999 51.5s29 74.833 29 121.5c0 62.667 -12.5 106.834 -37.5 132.501s-52.5 39.167 -82.5 40.5h-3.5h-2.5h-2.5h-3.5c-30 -1.33301 -57.5 -14.833 -82.5 -40.5s-37.5 -69.834 -37.5 -132.501v0z" />
    <glyph glyph-name="eth" unicode="&#x440;" horiz-adv-x="676" 
d="M65 539l151 -0.000976562l-1 -65h3c10 11.333 19.833 21.166 29.5 29.499s19.5 15.5 29.5 21.5c20 12.667 39.667 21.167 59 25.5s38 6.5 56 6.5c77.333 0 137.5 -26.833 180.5 -80.5s64.5 -123.167 64.5 -208.5c0 -74 -13 -130.333 -39 -169s-54.333 -66.667 -85 -84
c-29.333 -15.333 -56.333 -24.333 -81 -27s-39 -4 -43 -4v0v0c-7.33301 0 -14.833 0.333008 -22.5 1s-15.167 1.66699 -22.5 3c-22 4.66699 -43.5 12.334 -64.5 23.001s-38.833 25.334 -53.5 44.001v-251h-161v735v0zM218 269.999c0 -43.333 9.16895 -83 27.502 -119
s51.166 -54 98.499 -54c45.333 0 77.666 17.167 96.999 51.5s29 74.833 29 121.5c0 62.667 -12.5 106.834 -37.5 132.501s-52.5 39.167 -82.5 40.5h-3.5h-2.5h-2.5h-3.5c-30 -1.33301 -57.5 -14.833 -82.5 -40.5s-37.5 -69.834 -37.5 -132.501v0z" />
    <glyph glyph-name="ntilde" unicode="&#xf1;" horiz-adv-x="628" 
d="M433 203l159.001 0.00195312c-1.33301 -12 -3.83301 -25.333 -7.5 -40s-8.83398 -29.334 -15.501 -44.001c-15.333 -34.667 -41.5 -66.167 -78.5 -94.5s-92.167 -42.5 -165.5 -42.5c-104.667 0 -178.5 29 -221.5 87s-64.5 124.333 -64.5 199c0 16 1.33301 34.5 4 55.5
s7.66699 42.5 15 64.5c15.333 42.667 43.666 81.834 84.999 117.501s105.333 53.5 192 53.5c68 0 119.5 -13.167 154.5 -39.5s59.833 -55.5 74.5 -87.5c6.66699 -15.333 11.667 -30.333 15 -45s5.66602 -28 6.99902 -40h-155c-4.66699 41.333 -17 69 -37 83
s-41.667 21 -65 21c-6.66699 0 -14.167 -0.5 -22.5 -1.5s-16.5 -3.16699 -24.5 -6.5c-19.333 -7.33301 -36.833 -22.833 -52.5 -46.5s-23.5 -62.5 -23.5 -116.5c0 -70.667 11.333 -119.334 34 -146.001s47.334 -41.334 74.001 -44.001c2 -0.666992 4.16699 -1 6.5 -1h6.5
c28 0 49.333 7.16699 64 21.5s25 29.833 31 46.5c3.33301 8.66699 5.83301 17 7.5 25s2.83398 15 3.50098 21v0z" />
    <glyph glyph-name="ntilde" unicode="&#x441;" horiz-adv-x="628" 
d="M433 203l159.001 0.00195312c-1.33301 -12 -3.83301 -25.333 -7.5 -40s-8.83398 -29.334 -15.501 -44.001c-15.333 -34.667 -41.5 -66.167 -78.5 -94.5s-92.167 -42.5 -165.5 -42.5c-104.667 0 -178.5 29 -221.5 87s-64.5 124.333 -64.5 199c0 16 1.33301 34.5 4 55.5
s7.66699 42.5 15 64.5c15.333 42.667 43.666 81.834 84.999 117.501s105.333 53.5 192 53.5c68 0 119.5 -13.167 154.5 -39.5s59.833 -55.5 74.5 -87.5c6.66699 -15.333 11.667 -30.333 15 -45s5.66602 -28 6.99902 -40h-155c-4.66699 41.333 -17 69 -37 83
s-41.667 21 -65 21c-6.66699 0 -14.167 -0.5 -22.5 -1.5s-16.5 -3.16699 -24.5 -6.5c-19.333 -7.33301 -36.833 -22.833 -52.5 -46.5s-23.5 -62.5 -23.5 -116.5c0 -70.667 11.333 -119.334 34 -146.001s47.334 -41.334 74.001 -44.001c2 -0.666992 4.16699 -1 6.5 -1h6.5
c28 0 49.333 7.16699 64 21.5s25 29.833 31 46.5c3.33301 8.66699 5.83301 17 7.5 25s2.83398 15 3.50098 21v0z" />
    <glyph glyph-name="ograve" unicode="&#xf2;" horiz-adv-x="545" 
d="M192 431h-178v108h517v-108h-178v-431h-161v431v0z" />
    <glyph glyph-name="ograve" unicode="&#x442;" horiz-adv-x="545" 
d="M192 431h-178v108h517v-108h-178v-431h-161v431v0z" />
    <glyph glyph-name="oacute" unicode="&#xf3;" horiz-adv-x="591" 
d="M101 -196l0.000976562 107.999c2 0 4 -0.333008 6 -1s4.33301 -1.33398 7 -2.00098c6 -1.33301 12.167 -2.16602 18.5 -2.49902s13.166 -0.5 20.499 -0.5c21.333 0 37.666 5.83301 48.999 17.5s21 30.834 29 57.501l8 25l-235 533h194l125 -351l97 351h171l-187 -568
c-16.667 -48.667 -37.167 -90.167 -61.5 -124.5s-67.166 -51.5 -128.499 -51.5h-14.5c-5 0 -9.83301 0.333008 -14.5 1c-12 0.666992 -23.5 1.5 -34.5 2.5s-20.833 2.16699 -29.5 3.5c-4 0.666992 -7.66699 1.16699 -11 1.5s-6.33301 0.833008 -9 1.5v-1z" />
    <glyph glyph-name="oacute" unicode="&#x443;" horiz-adv-x="591" 
d="M101 -196l0.000976562 107.999c2 0 4 -0.333008 6 -1s4.33301 -1.33398 7 -2.00098c6 -1.33301 12.167 -2.16602 18.5 -2.49902s13.166 -0.5 20.499 -0.5c21.333 0 37.666 5.83301 48.999 17.5s21 30.834 29 57.501l8 25l-235 533h194l125 -351l97 351h171l-187 -568
c-16.667 -48.667 -37.167 -90.167 -61.5 -124.5s-67.166 -51.5 -128.499 -51.5h-14.5c-5 0 -9.83301 0.333008 -14.5 1c-12 0.666992 -23.5 1.5 -34.5 2.5s-20.833 2.16699 -29.5 3.5c-4 0.666992 -7.66699 1.16699 -11 1.5s-6.33301 0.833008 -9 1.5v-1z" />
    <glyph glyph-name="ocircumflex" unicode="&#xf4;" horiz-adv-x="901" 
d="M370 -196l0.00195312 181c-84 2 -160.167 22.833 -228.5 62.5s-102.5 114.834 -102.5 225.501c0 82 19.667 142.333 59 181s82.333 65 129 79c24.667 7.33301 48.5 12.166 71.5 14.499s43.5 3.5 61.5 3.5h5.5h4.5v191h161v-191c18 0 39.5 -1 64.5 -3s50.5 -7 76.5 -15
c48 -14 91.667 -40.333 131 -79s59 -99.334 59 -182.001c0 -11.333 -0.5 -22.833 -1.5 -34.5s-2.5 -23.5 -4.5 -35.5c-10.667 -53.333 -39.334 -102.166 -86.001 -146.499s-126.334 -67.5 -239.001 -69.5v-182h-161v0zM382.002 93l-0.000976562 349.999h-28
c-4.66699 0 -9.16699 -0.166992 -13.5 -0.5s-8.83301 -0.833008 -13.5 -1.5c-32 -5.33301 -61.167 -20.5 -87.5 -45.5s-39.5 -64.167 -39.5 -117.5c0 -54.667 11.333 -95.167 34 -121.5s47.334 -44.166 74.001 -53.499c12 -4 23.833 -6.66699 35.5 -8s22.167 -2 31.5 -2h4h3
v0zM519.001 442.999v-350h4.5h4.5h9c3.33301 0 6.33301 0.333008 9 1c38.667 3.33301 74.167 18.833 106.5 46.5s48.5 73.167 48.5 136.5c0 65.333 -18 109.333 -54 132s-76.667 34 -122 34h-2.5h-3.5v0z" />
    <glyph glyph-name="ocircumflex" unicode="&#x444;" horiz-adv-x="901" 
d="M370 -196l0.00195312 181c-84 2 -160.167 22.833 -228.5 62.5s-102.5 114.834 -102.5 225.501c0 82 19.667 142.333 59 181s82.333 65 129 79c24.667 7.33301 48.5 12.166 71.5 14.499s43.5 3.5 61.5 3.5h5.5h4.5v191h161v-191c18 0 39.5 -1 64.5 -3s50.5 -7 76.5 -15
c48 -14 91.667 -40.333 131 -79s59 -99.334 59 -182.001c0 -11.333 -0.5 -22.833 -1.5 -34.5s-2.5 -23.5 -4.5 -35.5c-10.667 -53.333 -39.334 -102.166 -86.001 -146.499s-126.334 -67.5 -239.001 -69.5v-182h-161v0zM382.002 93l-0.000976562 349.999h-28
c-4.66699 0 -9.16699 -0.166992 -13.5 -0.5s-8.83301 -0.833008 -13.5 -1.5c-32 -5.33301 -61.167 -20.5 -87.5 -45.5s-39.5 -64.167 -39.5 -117.5c0 -54.667 11.333 -95.167 34 -121.5s47.334 -44.166 74.001 -53.499c12 -4 23.833 -6.66699 35.5 -8s22.167 -2 31.5 -2h4h3
v0zM519.001 442.999v-350h4.5h4.5h9c3.33301 0 6.33301 0.333008 9 1c38.667 3.33301 74.167 18.833 106.5 46.5s48.5 73.167 48.5 136.5c0 65.333 -18 109.333 -54 132s-76.667 34 -122 34h-2.5h-3.5v0z" />
    <glyph glyph-name="otilde" unicode="&#xf5;" horiz-adv-x="589" 
d="M295 371l99 168h186l-191 -260l200 -279h-185l-109 176l-109 -176h-186l201 279l-191 260h186l99 -168v0z" />
    <glyph glyph-name="otilde" unicode="&#x445;" horiz-adv-x="589" 
d="M295 371l99 168h186l-191 -260l200 -279h-185l-109 176l-109 -176h-186l201 279l-191 260h186l99 -168v0z" />
    <glyph glyph-name="odieresis" unicode="&#xf6;" horiz-adv-x="686" 
d="M226 108h201v431h161v-431h88l-9 -248h-137v140h-465v539h161v-431v0z" />
    <glyph glyph-name="odieresis" unicode="&#x446;" horiz-adv-x="686" 
d="M226 108h201v431h161v-431h88l-9 -248h-137v140h-465v539h161v-431v0z" />
    <glyph glyph-name="divide" unicode="&#xf7;" horiz-adv-x="599" 
d="M42 539l161 0.000976562v-157v-1.5v-1.5c0 -18.667 3.83301 -35.667 11.5 -51s32.167 -23 73.5 -23h18.5h16.5l23.5 2c7.66699 0.666992 16.5 1.66699 26.5 3v229h161v-539h-161v202c-4.66699 0 -11.5 -0.333008 -20.5 -1s-18.5 -1 -28.5 -1
c-2 -0.666992 -3.83301 -1 -5.5 -1h-5.5c-12 -0.666992 -23.333 -1.16699 -34 -1.5s-19 -0.5 -25 -0.5c-96.667 0 -156.167 18.167 -178.5 54.5s-33.5 77.166 -33.5 122.499v165v0z" />
    <glyph glyph-name="divide" unicode="&#x447;" horiz-adv-x="599" 
d="M42 539l161 0.000976562v-157v-1.5v-1.5c0 -18.667 3.83301 -35.667 11.5 -51s32.167 -23 73.5 -23h18.5h16.5l23.5 2c7.66699 0.666992 16.5 1.66699 26.5 3v229h161v-539h-161v202c-4.66699 0 -11.5 -0.333008 -20.5 -1s-18.5 -1 -28.5 -1
c-2 -0.666992 -3.83301 -1 -5.5 -1h-5.5c-12 -0.666992 -23.333 -1.16699 -34 -1.5s-19 -0.5 -25 -0.5c-96.667 0 -156.167 18.167 -178.5 54.5s-33.5 77.166 -33.5 122.499v165v0z" />
    <glyph glyph-name="oslash" unicode="&#xf8;" horiz-adv-x="963" 
d="M226 108h175v431h161v-431h175v431h161v-539h-833v539h161v-431v0z" />
    <glyph glyph-name="oslash" unicode="&#x448;" horiz-adv-x="963" 
d="M226 108h175v431h161v-431h175v431h161v-539h-833v539h161v-431v0z" />
    <glyph glyph-name="ugrave" unicode="&#xf9;" horiz-adv-x="996" 
d="M226 108h175v431h161v-431h175v431h161v-431h88l-9 -248h-137v140h-775v539h161v-431v0z" />
    <glyph glyph-name="ugrave" unicode="&#x449;" horiz-adv-x="996" 
d="M226 108h175v431h161v-431h175v431h161v-431h88l-9 -248h-137v140h-775v539h161v-431v0z" />
    <glyph glyph-name="uacute" unicode="&#xfa;" horiz-adv-x="676" 
d="M14 539h301v-197h102c12 0 27.333 -0.5 46 -1.5s38 -3.83301 58 -8.5c31.333 -8 60.333 -24.167 87 -48.5s40 -63.833 40 -118.5c0 -48.667 -11 -84.5 -33 -107.5s-46.333 -38.5 -73 -46.5c-17.333 -5.33301 -34 -8.5 -50 -9.5s-29 -1.5 -39 -1.5h-299v431h-140v108v0z
M315 240v-137.997h73c5.33301 0 11.5 0.166992 18.5 0.5s13.833 1.16602 20.5 2.49902c14 3.33301 26.667 9.66602 38 18.999s17 25 17 47c0 23.333 -8.16699 40.666 -24.5 51.999s-40.833 17 -73.5 17h-69v0z" />
    <glyph glyph-name="uacute" unicode="&#x44a;" horiz-adv-x="676" 
d="M14 539h301v-197h102c12 0 27.333 -0.5 46 -1.5s38 -3.83301 58 -8.5c31.333 -8 60.333 -24.167 87 -48.5s40 -63.833 40 -118.5c0 -48.667 -11 -84.5 -33 -107.5s-46.333 -38.5 -73 -46.5c-17.333 -5.33301 -34 -8.5 -50 -9.5s-29 -1.5 -39 -1.5h-299v431h-140v108v0z
M315 240v-137.997h73c5.33301 0 11.5 0.166992 18.5 0.5s13.833 1.16602 20.5 2.49902c14 3.33301 26.667 9.66602 38 18.999s17 25 17 47c0 23.333 -8.16699 40.666 -24.5 51.999s-40.833 17 -73.5 17h-69v0z" />
    <glyph glyph-name="ucircumflex" unicode="&#xfb;" horiz-adv-x="853" 
d="M65 539h161v-197h102c12 0 27.333 -0.5 46 -1.5s38 -3.83301 58 -8.5c31.333 -8 60.333 -24.167 87 -48.5s40 -63.833 40 -118.5c0 -48.667 -11 -84.5 -33 -107.5s-46.333 -38.5 -73 -46.5c-17.333 -5.33301 -34 -8.5 -50 -9.5s-29 -1.5 -39 -1.5h-299v539v0zM226 240
v-137.997h73c5.33301 0 11.5 0.166992 18.5 0.5s13.833 1.16602 20.5 2.49902c14 3.33301 26.667 9.66602 38 18.999s17 25 17 47c0 23.333 -8.16699 40.666 -24.5 51.999s-40.833 17 -73.5 17h-69v0zM618 539.003h170v-539h-170v539v0z" />
    <glyph glyph-name="ucircumflex" unicode="&#x44b;" horiz-adv-x="853" 
d="M65 539h161v-197h102c12 0 27.333 -0.5 46 -1.5s38 -3.83301 58 -8.5c31.333 -8 60.333 -24.167 87 -48.5s40 -63.833 40 -118.5c0 -48.667 -11 -84.5 -33 -107.5s-46.333 -38.5 -73 -46.5c-17.333 -5.33301 -34 -8.5 -50 -9.5s-29 -1.5 -39 -1.5h-299v539v0zM226 240
v-137.997h73c5.33301 0 11.5 0.166992 18.5 0.5s13.833 1.16602 20.5 2.49902c14 3.33301 26.667 9.66602 38 18.999s17 25 17 47c0 23.333 -8.16699 40.666 -24.5 51.999s-40.833 17 -73.5 17h-69v0zM618 539.003h170v-539h-170v539v0z" />
    <glyph glyph-name="udieresis" unicode="&#xfc;" horiz-adv-x="587" 
d="M65 539h161v-197h102c12 0 27.333 -0.5 46 -1.5s38 -3.83301 58 -8.5c31.333 -8 60.333 -24.167 87 -48.5s40 -63.833 40 -118.5c0 -48.667 -11 -84.5 -33 -107.5s-46.333 -38.5 -73 -46.5c-17.333 -5.33301 -34 -8.5 -50 -9.5s-29 -1.5 -39 -1.5h-299v539v0zM226 240
v-137.997h73c5.33301 0 11.5 0.166992 18.5 0.5s13.833 1.16602 20.5 2.49902c14 3.33301 26.667 9.66602 38 18.999s17 25 17 47c0 23.333 -8.16699 40.666 -24.5 51.999s-40.833 17 -73.5 17h-69v0z" />
    <glyph glyph-name="udieresis" unicode="&#x44c;" horiz-adv-x="587" 
d="M65 539h161v-197h102c12 0 27.333 -0.5 46 -1.5s38 -3.83301 58 -8.5c31.333 -8 60.333 -24.167 87 -48.5s40 -63.833 40 -118.5c0 -48.667 -11 -84.5 -33 -107.5s-46.333 -38.5 -73 -46.5c-17.333 -5.33301 -34 -8.5 -50 -9.5s-29 -1.5 -39 -1.5h-299v539v0zM226 240
v-137.997h73c5.33301 0 11.5 0.166992 18.5 0.5s13.833 1.16602 20.5 2.49902c14 3.33301 26.667 9.66602 38 18.999s17 25 17 47c0 23.333 -8.16699 40.666 -24.5 51.999s-40.833 17 -73.5 17h-69v0z" />
    <glyph glyph-name="yacute" unicode="&#xfd;" horiz-adv-x="641" 
d="M253 223l-0.00195312 98.0039h187c0 7.33301 -0.666992 15.833 -2 25.5s-3.66602 19.5 -6.99902 29.5c-6 20 -17.333 38.167 -34 54.5s-42.334 24.5 -77.001 24.5c-40 0 -71.333 -10.333 -94 -31s-35 -46.667 -37 -78h-147c0.666992 11.333 2.33398 23.833 5.00098 37.5
s7 27.5 13 41.5c13.333 33.333 39 63.666 77 90.999s96.333 41 175 41c16 0 35.167 -1.16699 57.5 -3.5s45.5 -7.5 69.5 -15.5c40.667 -14.667 78 -42.334 112 -83.001s51 -104.667 51 -192c0 -94.667 -26.167 -165.167 -78.5 -211.5s-122.166 -69.5 -209.499 -69.5
c-80.667 0 -140.834 15 -180.501 45s-66.834 63 -81.501 99c-5.33301 13.333 -9.16602 26.666 -11.499 39.999s-3.83301 25.666 -4.5 36.999h151c0 -2.66699 0.166992 -5.16699 0.5 -7.5s0.833008 -4.83301 1.5 -7.5c4 -26 16 -50 36 -72s49.667 -33 89 -33
c38.667 0 66.834 9.83301 84.501 29.5s29.5 41.5 35.5 65.5c2 7.33301 3.5 15 4.5 23s1.5 15.333 1.5 22h-187v0z" />
    <glyph glyph-name="yacute" unicode="&#x44d;" horiz-adv-x="641" 
d="M253 223l-0.00195312 98.0039h187c0 7.33301 -0.666992 15.833 -2 25.5s-3.66602 19.5 -6.99902 29.5c-6 20 -17.333 38.167 -34 54.5s-42.334 24.5 -77.001 24.5c-40 0 -71.333 -10.333 -94 -31s-35 -46.667 -37 -78h-147c0.666992 11.333 2.33398 23.833 5.00098 37.5
s7 27.5 13 41.5c13.333 33.333 39 63.666 77 90.999s96.333 41 175 41c16 0 35.167 -1.16699 57.5 -3.5s45.5 -7.5 69.5 -15.5c40.667 -14.667 78 -42.334 112 -83.001s51 -104.667 51 -192c0 -94.667 -26.167 -165.167 -78.5 -211.5s-122.166 -69.5 -209.499 -69.5
c-80.667 0 -140.834 15 -180.501 45s-66.834 63 -81.501 99c-5.33301 13.333 -9.16602 26.666 -11.499 39.999s-3.83301 25.666 -4.5 36.999h151c0 -2.66699 0.166992 -5.16699 0.5 -7.5s0.833008 -4.83301 1.5 -7.5c4 -26 16 -50 36 -72s49.667 -33 89 -33
c38.667 0 66.834 9.83301 84.501 29.5s29.5 41.5 35.5 65.5c2 7.33301 3.5 15 4.5 23s1.5 15.333 1.5 22h-187v0z" />
    <glyph glyph-name="thorn" unicode="&#xfe;" horiz-adv-x="916" 
d="M226 336l77 -0.00195312l2 14.5c0.666992 5 1.66699 10.167 3 15.5c10.667 48 38.167 92 82.5 132s109.166 60 194.499 60c79.333 0 139.166 -15.5 179.499 -46.5s68.833 -65.167 85.5 -102.5c12.667 -29.333 20.334 -57 23.001 -83s4 -44.667 4 -56
c0 -92 -21.667 -158.833 -65 -200.5s-91.333 -68.167 -144 -79.5c-14 -3.33301 -28.333 -5.66602 -43 -6.99902s-28.667 -2 -42 -2c-16 0 -34.5 1.33301 -55.5 4s-42.167 7.66699 -63.5 15c-37.333 12.667 -72.166 36.334 -104.499 71.001s-52.5 87 -60.5 157h-73v-228h-161
v539h161v-203v0zM583 87.998c6.66699 0 14.334 0.498047 23.001 1.49805s17.334 3.16699 26.001 6.5c19.333 8 37.166 24.5 53.499 49.5s24.5 66.5 24.5 124.5c0 57.333 -8.16699 98.5 -24.5 123.5s-34.166 41.5 -53.499 49.5c-8.66699 3.33301 -17.334 5.5 -26.001 6.5
s-16.334 1.5 -23.001 1.5s-14.334 -0.5 -23.001 -1.5s-17.334 -3.5 -26.001 -7.5c-19.333 -8 -37 -24.5 -53 -49.5s-24 -65.833 -24 -122.5c0 -57.333 8 -98.666 24 -123.999s33.667 -41.666 53 -48.999c8.66699 -4 17.334 -6.5 26.001 -7.5s16.334 -1.5 23.001 -1.5v0z" />
    <glyph glyph-name="thorn" unicode="&#x44e;" horiz-adv-x="916" 
d="M226 336l77 -0.00195312l2 14.5c0.666992 5 1.66699 10.167 3 15.5c10.667 48 38.167 92 82.5 132s109.166 60 194.499 60c79.333 0 139.166 -15.5 179.499 -46.5s68.833 -65.167 85.5 -102.5c12.667 -29.333 20.334 -57 23.001 -83s4 -44.667 4 -56
c0 -92 -21.667 -158.833 -65 -200.5s-91.333 -68.167 -144 -79.5c-14 -3.33301 -28.333 -5.66602 -43 -6.99902s-28.667 -2 -42 -2c-16 0 -34.5 1.33301 -55.5 4s-42.167 7.66699 -63.5 15c-37.333 12.667 -72.166 36.334 -104.499 71.001s-52.5 87 -60.5 157h-73v-228h-161
v539h161v-203v0zM583 87.998c6.66699 0 14.334 0.498047 23.001 1.49805s17.334 3.16699 26.001 6.5c19.333 8 37.166 24.5 53.499 49.5s24.5 66.5 24.5 124.5c0 57.333 -8.16699 98.5 -24.5 123.5s-34.166 41.5 -53.499 49.5c-8.66699 3.33301 -17.334 5.5 -26.001 6.5
s-16.334 1.5 -23.001 1.5s-14.334 -0.5 -23.001 -1.5s-17.334 -3.5 -26.001 -7.5c-19.333 -8 -37 -24.5 -53 -49.5s-24 -65.833 -24 -122.5c0 -57.333 8 -98.666 24 -123.999s33.667 -41.666 53 -48.999c8.66699 -4 17.334 -6.5 26.001 -7.5s16.334 -1.5 23.001 -1.5v0z" />
    <glyph glyph-name="ydieresis" unicode="&#xff;" horiz-adv-x="617" 
d="M336 187l-107 -187.001h-182l136 194c-8 1.33301 -17.333 3.33301 -28 6s-21.334 7 -32.001 13c-21.333 10.667 -40.666 27.334 -57.999 50.001s-26 55.334 -26 98.001c0 10 0.666992 21.167 2 33.5s4.33301 25.166 9 38.499c10 26.667 28.667 51 56 73s71 33 131 33h315
v-539h-161v187h-55v0zM391 436.999h-85c-4.66699 0 -9.83398 -0.166992 -15.501 -0.5s-11.167 -0.833008 -16.5 -1.5c-17.333 -2.66699 -33.166 -9 -47.499 -19s-21.5 -28 -21.5 -54c0 -28 9.16699 -47.167 27.5 -57.5s41.833 -15.5 70.5 -15.5h88v148v0z" />
    <glyph glyph-name="ydieresis" unicode="&#x44f;" horiz-adv-x="617" 
d="M336 187l-107 -187.001h-182l136 194c-8 1.33301 -17.333 3.33301 -28 6s-21.334 7 -32.001 13c-21.333 10.667 -40.666 27.334 -57.999 50.001s-26 55.334 -26 98.001c0 10 0.666992 21.167 2 33.5s4.33301 25.166 9 38.499c10 26.667 28.667 51 56 73s71 33 131 33h315
v-539h-161v187h-55v0zM391 436.999h-85c-4.66699 0 -9.83398 -0.166992 -15.501 -0.5s-11.167 -0.833008 -16.5 -1.5c-17.333 -2.66699 -33.166 -9 -47.499 -19s-21.5 -28 -21.5 -54c0 -28 9.16699 -47.167 27.5 -57.5s41.833 -15.5 70.5 -15.5h88v148v0z" />
    <glyph glyph-name="Abreve" unicode="&#x102;" 
 />
    <glyph glyph-name="abreve" unicode="&#x103;" 
 />
    <glyph glyph-name="Aogonek" unicode="&#x104;" 
 />
    <glyph glyph-name="aogonek" unicode="&#x105;" 
 />
    <glyph glyph-name="Cacute" unicode="&#x106;" 
 />
    <glyph glyph-name="cacute" unicode="&#x107;" 
 />
    <glyph glyph-name="Ccaron" unicode="&#x10c;" 
 />
    <glyph glyph-name="ccaron" unicode="&#x10d;" 
 />
    <glyph glyph-name="Dcaron" unicode="&#x10e;" 
 />
    <glyph glyph-name="dcaron" unicode="&#x10f;" 
 />
    <glyph glyph-name="Dslash" unicode="&#x110;" 
 />
    <glyph glyph-name="dslash" unicode="&#x111;" 
 />
    <glyph glyph-name="Eogonek" unicode="&#x118;" 
 />
    <glyph glyph-name="eogonek" unicode="&#x119;" 
 />
    <glyph glyph-name="Ecaron" unicode="&#x11a;" 
 />
    <glyph glyph-name="ecaron" unicode="&#x11b;" 
 />
    <glyph glyph-name="Gbreve" unicode="&#x11e;" 
 />
    <glyph glyph-name="gbreve" unicode="&#x11f;" 
 />
    <glyph glyph-name="Idot" unicode="&#x130;" 
 />
    <glyph glyph-name="dotlessi" unicode="&#x131;" horiz-adv-x="291" 
d="M65 539h161v-539h-161v539v0z" />
    <glyph glyph-name="Lacute" unicode="&#x139;" 
 />
    <glyph glyph-name="lacute" unicode="&#x13a;" 
 />
    <glyph glyph-name="Lcaron" unicode="&#x13d;" 
 />
    <glyph glyph-name="lcaron" unicode="&#x13e;" 
 />
    <glyph glyph-name="Ldot" unicode="&#x13f;" 
 />
    <glyph glyph-name="ldot" unicode="&#x140;" 
 />
    <glyph glyph-name="Lslash" unicode="&#x141;" horiz-adv-x="742" 
d="M266 371c0 31.333 10.667 56.501 32 75.501s44.666 28.833 69.999 29.5h1.5h1.5c28 0 52.5 -10 73.5 -30s31.5 -45 31.5 -75c0 -28.667 -10.167 -53.334 -30.5 -74.001s-45.166 -31 -74.499 -31c-30 0 -55 10.5 -75 31.5s-30 45.5 -30 73.5v0z" />
    <glyph glyph-name="lslash" unicode="&#x142;" horiz-adv-x="742" 
d="M266 371c0 31.333 10.667 56.501 32 75.501s44.666 28.833 69.999 29.5h1.5h1.5c28 0 52.5 -10 73.5 -30s31.5 -45 31.5 -75c0 -28.667 -10.167 -53.334 -30.5 -74.001s-45.166 -31 -74.499 -31c-30 0 -55 10.5 -75 31.5s-30 45.5 -30 73.5v0z" />
    <glyph glyph-name="Nacute" unicode="&#x143;" 
 />
    <glyph glyph-name="nacute" unicode="&#x144;" 
 />
    <glyph glyph-name="Ncaron" unicode="&#x147;" 
 />
    <glyph glyph-name="ncaron" unicode="&#x148;" 
 />
    <glyph glyph-name="Odblacute" unicode="&#x150;" 
 />
    <glyph glyph-name="odblacute" unicode="&#x151;" 
 />
    <glyph glyph-name="OE" unicode="&#x152;" horiz-adv-x="1227" 
d="M634 742l558.999 0.00292969v-144h-412v-151h363v-136h-363v-167h422v-144h-569v71c-3.33301 -4.66699 -7 -9.33398 -11 -14.001s-8.33301 -9.33398 -13 -14.001c-17.333 -16 -41 -30.5 -71 -43.5s-69.667 -19.5 -119 -19.5c-121.333 0 -214.166 36.333 -278.499 109
s-96.5 166.667 -96.5 282c0 137.333 37.5 237.166 112.5 299.499s162.833 93.5 263.5 93.5c44 0 80 -5 108 -15s50 -21 66 -33c10.667 -8.66699 19 -16.667 25 -24s10.667 -13.333 14 -18v68v0zM419.999 123.003c55.333 0 95.835 14.833 121.502 44.5
s43.167 62.167 52.5 97.5c5.33301 19.333 8.66602 38.5 9.99902 57.5s2 35.167 2 48.5c0 14 -0.666992 30 -2 48s-4.33301 36.667 -9 56c-8.66699 36 -26 69 -52 99s-67 45 -123 45c-67.333 0 -113.833 -21.5 -139.5 -64.5s-40.5 -90.167 -44.5 -141.5
c-0.666992 -7.33301 -1.16699 -14.5 -1.5 -21.5s-0.5 -13.833 -0.5 -20.5c0 -8.66699 0.166992 -17.167 0.5 -25.5s1.16602 -16.833 2.49902 -25.5c4.66699 -49.333 20 -94.5 46 -135.5s71.667 -61.5 137 -61.5v0z" />
    <glyph glyph-name="oe" unicode="&#x153;" horiz-adv-x="1070" 
d="M856 156l163.004 -0.00195312c-8.66699 -46.667 -35 -87.167 -79 -121.5s-106.667 -51.5 -188 -51.5c-13.333 0 -29.5 0.833008 -48.5 2.5s-38.5 5.83398 -58.5 12.501c-19.333 5.33301 -38.333 14 -57 26s-34.667 28.333 -48 49c-22.667 -34.667 -52 -58.667 -88 -72
s-76 -20 -120 -20c-14 0 -28.5 0.833008 -43.5 2.5s-29.833 4.16699 -44.5 7.5c-51.333 11.333 -98.333 38 -141 80s-64 108.333 -64 199c0 102.667 29 176.5 87 221.5s126.333 67.5 205 67.5c45.333 0 87.5 -9 126.5 -27s66.833 -43.667 83.5 -77
c13.333 22 28.666 39.833 45.999 53.5s35.333 24.167 54 31.5c20.667 8 41 13.167 61 15.5s37 3.5 51 3.5c85.333 0 148.666 -22.5 189.999 -67.5s67.666 -94.5 78.999 -148.5c3.33301 -14 5.66602 -28 6.99902 -42s2 -27.333 2 -40v-13c0 -4 -0.333008 -8 -1 -12h-412
c0 -8 0.5 -16.833 1.5 -26.5s2.83301 -19.5 5.5 -29.5c6.66699 -24 19.334 -46 38.001 -66s46.667 -30 84 -30c24.667 0 47.667 5.83301 69 17.5s34.666 29.834 39.999 54.501v0zM332.004 87.998c38.667 0 66.834 10.8311 84.501 32.498s29.167 45.167 34.5 70.5
c4 14.667 6.33301 29 7 43s1 26 1 36c0 57.333 -8.16699 98.5 -24.5 123.5s-34.166 41.5 -53.499 49.5c-8.66699 3.33301 -17.334 5.5 -26.001 6.5s-16.334 1.5 -23.001 1.5s-14.334 -0.5 -23.001 -1.5s-17.334 -3.5 -26.001 -7.5c-19.333 -8 -37 -24.5 -53 -49.5
s-24 -65.833 -24 -122.5c0 -57.333 8 -98.666 24 -123.999s33.667 -41.666 53 -48.999c8.66699 -4 17.334 -6.5 26.001 -7.5s16.334 -1.5 23.001 -1.5v0zM618.004 319.996l246.002 -0.00195312c-0.666992 39.333 -8 68.333 -22 87s-29 31.334 -45 38.001
c-8.66699 4 -17 6.5 -25 7.5s-15.333 1.5 -22 1.5c-39.333 0 -69 -11.167 -89 -33.5s-33 -47.166 -39 -74.499c-0.666992 -4 -1.33398 -8.33301 -2.00098 -13s-1.33398 -9 -2.00098 -13v0z" />
    <glyph glyph-name="Racute" unicode="&#x154;" 
 />
    <glyph glyph-name="racute" unicode="&#x155;" 
 />
    <glyph glyph-name="Rcaron" unicode="&#x158;" 
 />
    <glyph glyph-name="rcaron" unicode="&#x159;" 
 />
    <glyph glyph-name="Sacute" unicode="&#x15a;" 
 />
    <glyph glyph-name="sacute" unicode="&#x15b;" 
 />
    <glyph glyph-name="Scedilla" unicode="&#x15e;" 
 />
    <glyph glyph-name="scedilla" unicode="&#x15f;" 
 />
    <glyph glyph-name="Scaron" unicode="&#x160;" 
 />
    <glyph glyph-name="scaron" unicode="&#x161;" horiz-adv-x="742" 
d="M266 371c0 31.333 10.667 56.501 32 75.501s44.666 28.833 69.999 29.5h1.5h1.5c28 0 52.5 -10 73.5 -30s31.5 -45 31.5 -75c0 -28.667 -10.167 -53.334 -30.5 -74.001s-45.166 -31 -74.499 -31c-30 0 -55 10.5 -75 31.5s-30 45.5 -30 73.5v0z" />
    <glyph glyph-name="Tcedilla" unicode="&#x162;" 
 />
    <glyph glyph-name="tcedilla" unicode="&#x163;" 
 />
    <glyph glyph-name="Tcaron" unicode="&#x164;" 
 />
    <glyph glyph-name="tcaron" unicode="&#x165;" 
 />
    <glyph glyph-name="Uring" unicode="&#x16e;" 
 />
    <glyph glyph-name="uring" unicode="&#x16f;" 
 />
    <glyph glyph-name="udblacute" unicode="&#x170;" 
 />
    <glyph glyph-name="Udblacute" unicode="&#x171;" 
 />
    <glyph glyph-name="Ydieresis" unicode="&#x178;" horiz-adv-x="742" 
d="M266 371c0 31.333 10.667 56.501 32 75.501s44.666 28.833 69.999 29.5h1.5h1.5c28 0 52.5 -10 73.5 -30s31.5 -45 31.5 -75c0 -28.667 -10.167 -53.334 -30.5 -74.001s-45.166 -31 -74.499 -31c-30 0 -55 10.5 -75 31.5s-30 45.5 -30 73.5v0z" />
    <glyph glyph-name="Zacute" unicode="&#x179;" 
 />
    <glyph glyph-name="zacute" unicode="&#x17a;" 
 />
    <glyph glyph-name="Zdot" unicode="&#x17b;" 
 />
    <glyph glyph-name="zdot" unicode="&#x17c;" 
 />
    <glyph glyph-name="Zcaron" unicode="&#x17d;" 
 />
    <glyph glyph-name="zcaron" unicode="&#x17e;" 
 />
    <glyph glyph-name="florin" unicode="&#x192;" horiz-adv-x="742" 
d="M266 371c0 31.333 10.667 56.501 32 75.501s44.666 28.833 69.999 29.5h1.5h1.5c28 0 52.5 -10 73.5 -30s31.5 -45 31.5 -75c0 -28.667 -10.167 -53.334 -30.5 -74.001s-45.166 -31 -74.499 -31c-30 0 -55 10.5 -75 31.5s-30 45.5 -30 73.5v0z" />
    <glyph glyph-name="hungarumlaut" unicode="&#x2ba;" horiz-adv-x="742" 
d="M266 371c0 31.333 10.667 56.501 32 75.501s44.666 28.833 69.999 29.5h1.5h1.5c28 0 52.5 -10 73.5 -30s31.5 -45 31.5 -75c0 -28.667 -10.167 -53.334 -30.5 -74.001s-45.166 -31 -74.499 -31c-30 0 -55 10.5 -75 31.5s-30 45.5 -30 73.5v0z" />
    <glyph glyph-name="tilde" unicode="&#x2c6;" horiz-adv-x="0" 
d="M147 742h97.9971c-1.33301 -5.33301 -2.66602 -11 -3.99902 -17s-3 -12 -5 -18c-8.66699 -25.333 -22.334 -48.5 -41.001 -69.5s-45 -31.5 -79 -31.5c-10.667 0 -20.667 1 -30 3s-18.666 4.33301 -27.999 7c-10 3.33301 -20.167 7.33301 -30.5 12l-33.5 15
c-13.333 5.33301 -25.333 9.5 -36 12.5s-20.334 4.5 -29.001 4.5c-13.333 0 -24.166 -3.33301 -32.499 -10s-13.166 -17.667 -14.499 -33h-99c1.33301 6 2.83301 12.167 4.5 18.5s3.83398 12.833 6.50098 19.5c8.66699 24 22.667 45.833 42 65.5s45 29.5 77 29.5
c20.667 0 38.5 -2.66699 53.5 -8s28.833 -11.333 41.5 -18c1.33301 0 2.33301 -0.333008 3 -1s1.66699 -1 3 -1c2 -1.33301 4.16699 -2.5 6.5 -3.5s4.83301 -2.16699 7.5 -3.5c6.66699 -3.33301 14 -6.33301 22 -9s16 -5 24 -7l13.5 -2
c4.33301 -0.666992 8.83301 -1 13.5 -1c14 0 24.667 4.33301 32 13s12 18 14 28v2.5v2.5v0z" />
    <glyph glyph-name="caron" unicode="&#x2c7;" horiz-adv-x="0" 
d="M106 602h-212l-118 140h126l98 -98l98 98h126l-118 -140v0z" />
    <glyph glyph-name="macron" unicode="&#x2c9;" horiz-adv-x="380" 
d="M102 742h175v-742h-175v742v0zM30 809v115h130v-115h-130v0zM220 809v115h130v-115h-130v0z" />
    <glyph glyph-name="breve" unicode="&#x2d8;" horiz-adv-x="0" 
d="M-210 742h118.003c0.666992 -18.667 6 -33 16 -43s20.667 -17 32 -21c10 -3.33301 19.167 -5.33301 27.5 -6s13.833 -1 16.5 -1c3.33301 0 9.16602 0.333008 17.499 1s17.5 2.66699 27.5 6c11.333 4 22 11 32 21s15 24.333 15 43h118
c-0.666992 -8 -2.33398 -17 -5.00098 -27s-6.66699 -20 -12 -30c-11.333 -22.667 -31.5 -43.167 -60.5 -61.5s-73.167 -27.5 -132.5 -27.5c-58.667 0 -102.5 9.16699 -131.5 27.5s-49.167 38.833 -60.5 61.5c-5.33301 10 -9.33301 20 -12 30s-4.33398 19 -5.00098 27h-1z
" />
    <glyph glyph-name="dotaccent" unicode="&#x2d9;" horiz-adv-x="0" 
d="M-101 -196l14.999 53.001c12.667 -2.66699 22.834 -4.5 30.501 -5.5s14.834 -1.5 21.501 -1.5c13.333 0 24.166 1.5 32.499 4.5s12.5 10.167 12.5 21.5c0 0.666992 -0.166992 1.66699 -0.5 3s-0.5 2.33301 -0.5 3c-2 5.33301 -7 10.166 -15 14.499s-21 6.5 -39 6.5h-3.5
c-1 0 -2.16699 -0.333008 -3.5 -1h-3.5h-3.5l-13 -1l14 49c6 1.33301 11.667 2 17 2h15c45.333 0 77.333 -8 96 -24s28 -34.667 28 -56c0 -30.667 -12.5 -50.5 -37.5 -59.5s-52.833 -13.5 -83.5 -13.5c-10.667 0 -22.167 0.5 -34.5 1.5s-26.833 2.5 -43.5 4.5z" />
    <glyph glyph-name="ring" unicode="&#x2da;" horiz-adv-x="-1" 
d="M-104 687c0.666992 31.333 11.5 56.5 32.5 75.5s44.833 28.5 71.5 28.5c28.667 0 53 -10.333 73 -31s30 -45 30 -73c0 -27.333 -10 -51.333 -30 -72s-44.333 -31 -73 -31c-29.333 0 -53.833 10 -73.5 30s-29.5 44.333 -29.5 73h-1zM-48 687
c0.666992 -2 1.16602 -4.16699 1.49902 -6.5s0.833008 -4.5 1.5 -6.5c2 -8.66699 6.66699 -16.5 14 -23.5s17.666 -10.5 30.999 -10.5c12 0 21.833 3.5 29.5 10.5s12.834 14.833 15.501 23.5c0.666992 2 1.16699 4.16699 1.5 6.5s0.5 4.5 0.5 6.5s-0.166992 4 -0.5 6
s-0.833008 4 -1.5 6c-2 8.66699 -7 16.834 -15 24.501s-18 11.5 -30 11.5c-13.333 0 -23.666 -3.83301 -30.999 -11.5s-12.333 -15.834 -15 -24.501c0 -2 -0.166992 -4 -0.5 -6s-0.5 -4 -0.5 -6h-1z" />
    <glyph glyph-name="ogonek" unicode="&#x2db;" horiz-adv-x="742" 
d="M266 371c0 31.333 10.667 56.501 32 75.501s44.666 28.833 69.999 29.5h1.5h1.5c28 0 52.5 -10 73.5 -30s31.5 -45 31.5 -75c0 -28.667 -10.167 -53.334 -30.5 -74.001s-45.166 -31 -74.499 -31c-30 0 -55 10.5 -75 31.5s-30 45.5 -30 73.5v0z" />
    <glyph glyph-name="circumflex" unicode="&#x2dc;" horiz-adv-x="0" 
d="M-106 742h212l118 -140h-126l-98 98l-98 -98h-126l118 140v0z" />
    <glyph glyph-name="Gamma" unicode="&#x393;" horiz-adv-x="500" 
 />
    <glyph glyph-name="Theta" unicode="&#x398;" horiz-adv-x="500" 
 />
    <glyph glyph-name="summation" unicode="&#x3a3;" horiz-adv-x="500" 
 />
    <glyph glyph-name="Phi" unicode="&#x3a6;" horiz-adv-x="500" 
 />
    <glyph glyph-name="Omega" unicode="&#x3a9;" horiz-adv-x="500" 
 />
    <glyph glyph-name="alpha" unicode="&#x3b1;" horiz-adv-x="500" 
 />
    <glyph glyph-name="delta" unicode="&#x3b4;" horiz-adv-x="500" 
 />
    <glyph glyph-name="epsilon" unicode="&#x3b5;" horiz-adv-x="500" 
 />
    <glyph glyph-name="pi" unicode="&#x3c0;" horiz-adv-x="500" 
 />
    <glyph glyph-name="sigma" unicode="&#x3c3;" 
 />
    <glyph glyph-name="tau" unicode="&#x3c4;" horiz-adv-x="500" 
 />
    <glyph glyph-name="phi" unicode="&#x3c6;" 
 />
    <glyph glyph-name="endash" unicode="&#x2013;" horiz-adv-x="712" 
d="M56 413h600v-84h-600v84v0z" />
    <glyph glyph-name="emdash" unicode="&#x2014;" horiz-adv-x="952" 
d="M56 238v91h840v-91h-840v0z" />
    <glyph glyph-name="underscoredbl" unicode="&#x2017;" horiz-adv-x="500" 
 />
    <glyph glyph-name="quoteleft" unicode="&#x2018;" horiz-adv-x="399" 
d="M287 575v-168h-175v168c0 10.667 0.666992 22.667 2 36s4.33301 27 9 41c8 26.667 24.167 51.167 48.5 73.5s62.833 34.833 115.5 37.5v-84h-1.5h-1.5c-22 -1.33301 -42.167 -9.5 -60.5 -24.5s-27.5 -39.833 -27.5 -74.5v-5h91v0z" />
    <glyph glyph-name="quoteright" unicode="&#x2019;" horiz-adv-x="399" 
d="M112 574l-0.00195312 167.998h175v-168c0 -10.667 -0.5 -22.167 -1.5 -34.5s-3.16699 -24.833 -6.5 -37.5c-7.33301 -27.333 -23.166 -52.666 -47.499 -75.999s-64.166 -36.666 -119.499 -39.999v84h1.5h1.5c22 1.33301 42.167 9.5 60.5 24.5s27.5 39.5 27.5 73.5v6h-91
v0z" />
    <glyph glyph-name="quotesinglbase" unicode="&#x201a;" horiz-adv-x="399" 
d="M112 0l-0.00195312 168h175v-168c0 -56.667 -11.333 -98.167 -34 -124.5s-48 -43.833 -76 -52.5c-11.333 -4 -22.666 -6.66699 -33.999 -8s-21.666 -2 -30.999 -2v83c0.666992 0.666992 1.16699 1 1.5 1h1.5c22 1.33301 42.167 9.5 60.5 24.5s27.5 39.5 27.5 73.5v5h-91
v0z" />
    <glyph glyph-name="quotedblleft" unicode="&#x201c;" horiz-adv-x="588" 
d="M259 575v-168h-175v168c0 10.667 0.666992 22.667 2 36s4.33301 27 9 41c8 26.667 24.167 51.167 48.5 73.5s62.833 34.833 115.5 37.5v-84h-1.5h-1.5c-22 -1.33301 -42.167 -9.5 -60.5 -24.5s-27.5 -39.833 -27.5 -74.5v-5h91v0zM504 575v-168h-175v168
c0 10.667 0.666992 22.667 2 36s4.33301 27 9 41c8 26.667 24.167 51.167 48.5 73.5s62.833 34.833 115.5 37.5v-84h-1.5h-1.5c-22 -1.33301 -42.167 -9.5 -60.5 -24.5s-27.5 -39.833 -27.5 -74.5v-5h91v0z" />
    <glyph glyph-name="quotedblright" unicode="&#x201d;" horiz-adv-x="588" 
d="M84 574l-0.00195312 167.998h175v-168c0 -10.667 -0.5 -22.167 -1.5 -34.5s-3.16699 -24.833 -6.5 -37.5c-7.33301 -27.333 -23.166 -52.666 -47.499 -75.999s-64.166 -36.666 -119.499 -39.999v84h1.5h1.5c22 1.33301 42.167 9.5 60.5 24.5s27.5 39.5 27.5 73.5v6h-91v0
zM328.998 573.998l-0.00195312 167.998h175v-168c0 -10.667 -0.5 -22.167 -1.5 -34.5s-3.16699 -24.833 -6.5 -37.5c-7.33301 -27.333 -23.166 -52.666 -47.499 -75.999s-64.166 -36.666 -119.499 -39.999v84h1.5h1.5c22 1.33301 42.167 9.5 60.5 24.5s27.5 39.5 27.5 73.5
v6h-91v0z" />
    <glyph glyph-name="quotedblbase" unicode="&#x201e;" horiz-adv-x="588" 
d="M84 0l-0.00195312 168h175v-168c0 -56.667 -11.333 -98.167 -34 -124.5s-48 -43.833 -76 -52.5c-11.333 -4 -22.666 -6.66699 -33.999 -8s-21.666 -2 -30.999 -2v83c0.666992 0.666992 1.16699 1 1.5 1h1.5c22 1.33301 42.167 9.5 60.5 24.5s27.5 39.5 27.5 73.5v5h-91v0
zM328.998 0l-0.00195312 168h175v-168c0 -56.667 -11.333 -98.167 -34 -124.5s-48 -43.833 -76 -52.5c-11.333 -4 -22.666 -6.66699 -33.999 -8s-21.666 -2 -30.999 -2v83c0.666992 0.666992 1.16699 1 1.5 1h1.5c22 1.33301 42.167 9.5 60.5 24.5s27.5 39.5 27.5 73.5v5
h-91v0z" />
    <glyph glyph-name="dagger" unicode="&#x2020;" horiz-adv-x="600" 
d="M216 742h168v-203h189v-140h-189v-595h-168v595h-189v140h189v203v0z" />
    <glyph glyph-name="daggerdbl" unicode="&#x2021;" horiz-adv-x="742" 
d="M266 371c0 31.333 10.667 56.501 32 75.501s44.666 28.833 69.999 29.5h1.5h1.5c28 0 52.5 -10 73.5 -30s31.5 -45 31.5 -75c0 -28.667 -10.167 -53.334 -30.5 -74.001s-45.166 -31 -74.499 -31c-30 0 -55 10.5 -75 31.5s-30 45.5 -30 73.5v0z" />
    <glyph glyph-name="bullet" unicode="&#x2022;" horiz-adv-x="742" 
d="M266 371c0 31.333 10.667 56.501 32 75.501s44.666 28.833 69.999 29.5h1.5h1.5c28 0 52.5 -10 73.5 -30s31.5 -45 31.5 -75c0 -28.667 -10.167 -53.334 -30.5 -74.001s-45.166 -31 -74.499 -31c-30 0 -55 10.5 -75 31.5s-30 45.5 -30 73.5v0z" />
    <glyph glyph-name="ellipsis" unicode="&#x2026;" horiz-adv-x="1197" 
d="M112 0v168h175v-168h-175v0zM511 0v168h175v-168h-175v0zM910 0v168h175v-168h-175v0z" />
    <glyph glyph-name="perthousand" unicode="&#x2030;" horiz-adv-x="930" 
d="M45 246c0 114.667 40.5 213.334 121.5 296.001s180.5 124 298.5 124s217.5 -41.333 298.5 -124s121.5 -181.334 121.5 -296.001c0 -116.667 -41.5 -215.667 -124.5 -297s-181.5 -122 -295.5 -122s-212.5 40.667 -295.5 122s-124.5 180.333 -124.5 297v0z" />
    <glyph glyph-name="guilsinglleft" unicode="&#x2039;" horiz-adv-x="293" 
d="M60 358l159 145v-146l-87 -73l87 -74v-146l-159 144v150v0z" />
    <glyph glyph-name="guilsinglright" unicode="&#x203a;" horiz-adv-x="293" 
d="M233 358v-150l-159 -144v144l87 74l-87 74v147l159 -145v0z" />
    <glyph glyph-name="exclamdbl" unicode="&#x203c;" horiz-adv-x="500" 
 />
    <glyph glyph-name="nsuperior" unicode="&#x207f;" horiz-adv-x="500" 
 />
    <glyph glyph-name="franc" unicode="&#x20a3;" horiz-adv-x="500" 
 />
    <glyph glyph-name="peseta" unicode="&#x20a7;" horiz-adv-x="500" 
 />
    <glyph glyph-name="trademark" unicode="&#x2122;" horiz-adv-x="994" 
d="M137 655h-116v87h350v-87h-116v-284h-118v284v0zM656 371l-85 252h-8l8 -48v-204h-118v371h160l74 -227l5 -39h7l4 39l75 227h160v-371h-118v204l8 48h-8l-85 -252h-79v0z" />
    <glyph glyph-name="arrowleft" unicode="&#x2190;" 
 />
    <glyph glyph-name="arrowup" unicode="&#x2191;" 
 />
    <glyph glyph-name="arrowright" unicode="&#x2192;" horiz-adv-x="500" 
 />
    <glyph glyph-name="arrowdown" unicode="&#x2193;" 
 />
    <glyph glyph-name="arrowboth" unicode="&#x2194;" 
 />
    <glyph glyph-name="arrowupdn" unicode="&#x2195;" 
 />
    <glyph glyph-name="arrowupdnbase" unicode="&#x21a8;" 
 />
    <glyph glyph-name="partialdiff" unicode="&#x2202;" horiz-adv-x="500" 
 />
    <glyph glyph-name="Delta" unicode="&#x2206;" horiz-adv-x="500" 
 />
    <glyph glyph-name="product" unicode="&#x220f;" 
 />
    <glyph glyph-name="minus" unicode="&#x2212;" horiz-adv-x="712" 
d="M56 413h600v-84h-600v84v0z" />
    <glyph glyph-name="fraction" unicode="&#x2215;" horiz-adv-x="742" 
d="M266 371c0 31.333 10.667 56.501 32 75.501s44.666 28.833 69.999 29.5h1.5h1.5c28 0 52.5 -10 73.5 -30s31.5 -45 31.5 -75c0 -28.667 -10.167 -53.334 -30.5 -74.001s-45.166 -31 -74.499 -31c-30 0 -55 10.5 -75 31.5s-30 45.5 -30 73.5v0z" />
    <glyph glyph-name="periodcentered" unicode="&#x2219;" horiz-adv-x="399" 
d="M112 200v168h175v-168h-175v0z" />
    <glyph glyph-name="radical" unicode="&#x221a;" horiz-adv-x="500" 
 />
    <glyph glyph-name="infinity" unicode="&#x221e;" 
 />
    <glyph glyph-name="orthogonal" unicode="&#x221f;" 
 />
    <glyph glyph-name="intersection" unicode="&#x2229;" 
 />
    <glyph glyph-name="integral" unicode="&#x222b;" 
 />
    <glyph glyph-name="approxequal" unicode="&#x2248;" horiz-adv-x="500" 
 />
    <glyph glyph-name="notequal" unicode="&#x2260;" horiz-adv-x="500" 
 />
    <glyph glyph-name="equivalence" unicode="&#x2261;" 
 />
    <glyph glyph-name="lessequal" unicode="&#x2264;" horiz-adv-x="500" 
 />
    <glyph glyph-name="greaterequal" unicode="&#x2265;" horiz-adv-x="500" 
 />
    <glyph glyph-name="house" unicode="&#x2302;" 
 />
    <glyph glyph-name="revlogicalnot" unicode="&#x2310;" 
 />
    <glyph glyph-name="integraltp" unicode="&#x2320;" 
 />
    <glyph glyph-name="integralbt" unicode="&#x2321;" 
 />
    <glyph glyph-name="2500" unicode="&#x2500;" 
 />
    <glyph glyph-name="2502" unicode="&#x2502;" 
 />
    <glyph glyph-name="250c" unicode="&#x250c;" 
 />
    <glyph glyph-name="2510" unicode="&#x2510;" 
 />
    <glyph glyph-name="2514" unicode="&#x2514;" 
 />
    <glyph glyph-name="2518" unicode="&#x2518;" 
 />
    <glyph glyph-name="251c" unicode="&#x251c;" 
 />
    <glyph glyph-name="2524" unicode="&#x2524;" 
 />
    <glyph glyph-name="252c" unicode="&#x252c;" 
 />
    <glyph glyph-name="2534" unicode="&#x2534;" 
 />
    <glyph glyph-name="253c" unicode="&#x253c;" 
 />
    <glyph glyph-name="2550" unicode="&#x2550;" 
 />
    <glyph glyph-name="2551" unicode="&#x2551;" 
 />
    <glyph glyph-name="2552" unicode="&#x2552;" 
 />
    <glyph glyph-name="2553" unicode="&#x2553;" 
 />
    <glyph glyph-name="2554" unicode="&#x2554;" 
 />
    <glyph glyph-name="2555" unicode="&#x2555;" 
 />
    <glyph glyph-name="2556" unicode="&#x2556;" 
 />
    <glyph glyph-name="2557" unicode="&#x2557;" 
 />
    <glyph glyph-name="2558" unicode="&#x2558;" 
 />
    <glyph glyph-name="2559" unicode="&#x2559;" 
 />
    <glyph glyph-name="255a" unicode="&#x255a;" 
 />
    <glyph glyph-name="255b" unicode="&#x255b;" 
 />
    <glyph glyph-name="255c" unicode="&#x255c;" 
 />
    <glyph glyph-name="255d" unicode="&#x255d;" 
 />
    <glyph glyph-name="255e" unicode="&#x255e;" 
 />
    <glyph glyph-name="255f" unicode="&#x255f;" 
 />
    <glyph glyph-name="2560" unicode="&#x2560;" 
 />
    <glyph glyph-name="2561" unicode="&#x2561;" 
 />
    <glyph glyph-name="2562" unicode="&#x2562;" 
 />
    <glyph glyph-name="2563" unicode="&#x2563;" 
 />
    <glyph glyph-name="2564" unicode="&#x2564;" 
 />
    <glyph glyph-name="2565" unicode="&#x2565;" 
 />
    <glyph glyph-name="2566" unicode="&#x2566;" 
 />
    <glyph glyph-name="2567" unicode="&#x2567;" 
 />
    <glyph glyph-name="2568" unicode="&#x2568;" 
 />
    <glyph glyph-name="2569" unicode="&#x2569;" 
 />
    <glyph glyph-name="256a" unicode="&#x256a;" 
 />
    <glyph glyph-name="256b" unicode="&#x256b;" 
 />
    <glyph glyph-name="256c" unicode="&#x256c;" 
 />
    <glyph glyph-name="upblock" unicode="&#x2580;" 
 />
    <glyph glyph-name="dnblock" unicode="&#x2584;" 
 />
    <glyph glyph-name="block" unicode="&#x2588;" 
 />
    <glyph glyph-name="lfblock" unicode="&#x258c;" 
 />
    <glyph glyph-name="rtblock" unicode="&#x2590;" 
 />
    <glyph glyph-name="ltshade" unicode="&#x2591;" 
 />
    <glyph glyph-name="shade" unicode="&#x2592;" 
 />
    <glyph glyph-name="dkshade" unicode="&#x2593;" 
 />
    <glyph glyph-name="filledbox" unicode="&#x25a0;" horiz-adv-x="500" 
 />
    <glyph glyph-name="filledrect" unicode="&#x25ac;" 
 />
    <glyph glyph-name="triagup" unicode="&#x25b2;" 
 />
    <glyph glyph-name="triagrt" unicode="&#x25ba;" 
 />
    <glyph glyph-name="triagdn" unicode="&#x25bc;" 
 />
    <glyph glyph-name="triaglf" unicode="&#x25c4;" 
 />
    <glyph glyph-name="lozenge" unicode="&#x25ca;" horiz-adv-x="500" 
 />
    <glyph glyph-name="circle" unicode="&#x25cb;" 
 />
    <glyph glyph-name="invbullet" unicode="&#x25d8;" 
 />
    <glyph glyph-name="invcircle" unicode="&#x25d9;" 
 />
    <glyph glyph-name="smileface" unicode="&#x263a;" 
 />
    <glyph glyph-name="invsmileface" unicode="&#x263b;" 
 />
    <glyph glyph-name="sun" unicode="&#x263c;" 
 />
    <glyph glyph-name="female" unicode="&#x2640;" 
 />
    <glyph glyph-name="male" unicode="&#x2642;" 
 />
    <glyph glyph-name="spade" unicode="&#x2660;" 
 />
    <glyph glyph-name="club" unicode="&#x2663;" 
 />
    <glyph glyph-name="heart" unicode="&#x2665;" 
 />
    <glyph glyph-name="diamond" unicode="&#x2666;" 
 />
    <glyph glyph-name="musicalnote" unicode="&#x266a;" 
 />
    <glyph glyph-name="musicalnotedbl" unicode="&#x266b;" 
 />
    <glyph glyph-name="apple" unicode="&#xf000;" 
 />
    <glyph glyph-name="fi" unicode="&#xf001;" horiz-adv-x="742" 
d="M266 371c0 31.333 10.667 56.501 32 75.501s44.666 28.833 69.999 29.5h1.5h1.5c28 0 52.5 -10 73.5 -30s31.5 -45 31.5 -75c0 -28.667 -10.167 -53.334 -30.5 -74.001s-45.166 -31 -74.499 -31c-30 0 -55 10.5 -75 31.5s-30 45.5 -30 73.5v0z" />
    <glyph glyph-name="fl" unicode="&#xf002;" horiz-adv-x="742" 
d="M266 371c0 31.333 10.667 56.501 32 75.501s44.666 28.833 69.999 29.5h1.5h1.5c28 0 52.5 -10 73.5 -30s31.5 -45 31.5 -75c0 -28.667 -10.167 -53.334 -30.5 -74.001s-45.166 -31 -74.499 -31c-30 0 -55 10.5 -75 31.5s-30 45.5 -30 73.5v0z" />
    <glyph glyph-name="glyph1" horiz-adv-x="0" 
 />
    <glyph glyph-name="glyph2" 
 />
    <glyph glyph-name="degree" horiz-adv-x="316" 
d="M39 641v6.5c0 2.33301 0.333008 4.5 1 6.5c2.66699 26.667 14.5 51 35.5 73s48.5 33 82.5 33c32 0 59.833 -11.5 83.5 -34.5s35.5 -51.167 35.5 -84.5c0 -34 -11.5 -62.333 -34.5 -85s-51.167 -34 -84.5 -34c-32.667 0 -58.5 9.33301 -77.5 28s-31.5 39 -37.5 61
c-1.33301 5.33301 -2.33301 10.5 -3 15.5s-1 9.83301 -1 14.5v0zM102 641c0 -16 5.33301 -29.333 16 -40s24 -16 40 -16c14.667 0 26.5 4.33301 35.5 13s15.167 18 18.5 28c0.666992 2.66699 1.16699 5.16699 1.5 7.5s0.5 4.83301 0.5 7.5c0 14.667 -5.5 27.667 -16.5 39
s-24.167 17 -39.5 17c-2.66699 0 -5.16699 -0.166992 -7.5 -0.5s-4.83301 -0.833008 -7.5 -1.5c-10 -3.33301 -19.333 -9.5 -28 -18.5s-13 -20.833 -13 -35.5v0z" />
    <glyph glyph-name="bullet" horiz-adv-x="742" 
d="M266 371c0 31.333 10.667 56.501 32 75.501s44.666 28.833 69.999 29.5h1.5h1.5c28 0 52.5 -10 73.5 -30s31.5 -45 31.5 -75c0 -28.667 -10.167 -53.334 -30.5 -74.001s-45.166 -31 -74.499 -31c-30 0 -55 10.5 -75 31.5s-30 45.5 -30 73.5v0z" />
    <glyph glyph-name="endash" horiz-adv-x="712" 
d="M56 413h600v-84h-600v84v0z" />
  </font>
</defs>
</svg>
